<?xml version="1.0" encoding="UTF-8"?>
<svg id="Layer_1" data-name="Layer 1" xmlns="http://www.w3.org/2000/svg" viewBox="0 0 761.92 161.4">
  <defs>
    <style>
      .cls-1 {
        font-family: HankenGrotesk-Light, 'Hanken Grotesk';
        font-size: 50px;
        font-variation-settings: 'wght' 300;
        font-weight: 300;
      }

      .cls-2 {
        letter-spacing: -.04em;
      }

      .cls-3 {
        letter-spacing: -.04em;
      }

      .cls-4 {
        fill: #1d1d1b;
        stroke-width: 0px;
      }
    </style>
  </defs>
  <g>
    <path class="cls-4" d="m4.45,38.49V3.64h23.46v2.95H7.82v12.7h17.44v2.95H7.82v16.25h-3.37Z"/>
    <path class="cls-4" d="m31.6,38.49V13.84h3.32v6.55l-.83.15c.28-1.53.88-2.82,1.82-3.85s2.02-1.83,3.27-2.38c1.25-.55,2.44-.83,3.58-.83.69,0,1.39.08,2.1.23.71.15,1.39.39,2.05.73l-1.61,2.85c-.45-.2-.95-.37-1.51-.5-.55-.13-1.09-.2-1.61-.2-.9,0-1.8.17-2.7.5-.9.33-1.72.86-2.47,1.57s-1.29,1.68-1.64,2.88c-.14.5-.25,1.12-.34,1.85-.09.73-.13,1.75-.13,3.05v12.05h-3.32Z"/>
    <path class="cls-4" d="m51.9,9.04V3.64h3.89v5.4h-3.89Zm.31,29.45V13.84h3.27v24.65h-3.27Z"/>
    <path class="cls-4" d="m60.88,46.29l5.55-14.9h3.63l-6.9,14.9h-2.28Z"/>
    <path class="cls-4" d="m89.84,38.49V3.64h23.46v2.95h-20.09v12.7h17.44v2.95h-17.44v16.25h-3.37Z"/>
    <path class="cls-4" d="m116.99,38.49V13.84h3.32v6.55l-.83.15c.28-1.53.88-2.82,1.82-3.85s2.02-1.83,3.27-2.38c1.25-.55,2.44-.83,3.58-.83.69,0,1.39.08,2.1.23.71.15,1.39.39,2.05.73l-1.61,2.85c-.45-.2-.95-.37-1.51-.5-.55-.13-1.09-.2-1.61-.2-.9,0-1.8.17-2.7.5-.9.33-1.72.86-2.47,1.57s-1.29,1.68-1.64,2.88c-.14.5-.25,1.12-.34,1.85-.09.73-.13,1.75-.13,3.05v12.05h-3.32Z"/>
    <path class="cls-4" d="m146.27,38.84c-1.9,0-3.59-.32-5.06-.95-1.47-.63-2.69-1.52-3.66-2.65-.97-1.13-1.7-2.47-2.21-4-.5-1.53-.75-3.17-.75-4.9s.24-3.43.73-4.98c.48-1.55,1.2-2.92,2.15-4.1.95-1.18,2.13-2.11,3.53-2.77,1.4-.67,3.02-1,4.85-1,1.94,0,3.61.33,5.01.98,1.4.65,2.54,1.53,3.43,2.65.88,1.12,1.54,2.34,1.97,3.67.43,1.33.65,2.68.65,4.05,0,.27,0,.62-.03,1.05-.02.43-.06.8-.13,1.1h-18.95c.07,2.83.86,5.03,2.36,6.6,1.51,1.57,3.54,2.35,6.1,2.35,1.63,0,3.02-.24,4.18-.73,1.16-.48,2.28-1.29,3.35-2.43l2.34,2c-.97.97-1.96,1.74-2.96,2.33-1,.58-2.07,1.02-3.19,1.3-1.13.28-2.36.43-3.71.43Zm7.37-13.45c.07-.27.1-.54.1-.82v-.83c0-.87-.15-1.75-.44-2.65-.29-.9-.75-1.72-1.38-2.45-.62-.73-1.44-1.33-2.44-1.8-1-.47-2.2-.7-3.58-.7-1.59,0-2.98.38-4.18,1.15-1.19.77-2.12,1.78-2.78,3.05-.66,1.27-1.04,2.7-1.14,4.3h16.92l-1.09.75Z"/>
    <path class="cls-4" d="m174.1,38.84c-1.9,0-3.59-.32-5.06-.95-1.47-.63-2.69-1.52-3.66-2.65-.97-1.13-1.7-2.47-2.21-4-.5-1.53-.75-3.17-.75-4.9s.24-3.43.73-4.98c.48-1.55,1.2-2.92,2.15-4.1.95-1.18,2.13-2.11,3.53-2.77,1.4-.67,3.02-1,4.85-1,1.94,0,3.61.33,5.01.98,1.4.65,2.54,1.53,3.43,2.65.88,1.12,1.54,2.34,1.97,3.67.43,1.33.65,2.68.65,4.05,0,.27,0,.62-.03,1.05-.02.43-.06.8-.13,1.1h-18.95c.07,2.83.86,5.03,2.36,6.6,1.51,1.57,3.54,2.35,6.1,2.35,1.63,0,3.02-.24,4.18-.73,1.16-.48,2.28-1.29,3.35-2.43l2.34,2c-.97.97-1.96,1.74-2.96,2.33-1,.58-2.07,1.02-3.19,1.3-1.13.28-2.36.43-3.71.43Zm7.37-13.45c.07-.27.1-.54.1-.82v-.83c0-.87-.15-1.75-.44-2.65-.29-.9-.75-1.72-1.38-2.45-.62-.73-1.44-1.33-2.44-1.8-1-.47-2.2-.7-3.58-.7-1.59,0-2.98.38-4.18,1.15-1.19.77-2.12,1.78-2.78,3.05-.66,1.27-1.04,2.7-1.14,4.3h16.92l-1.09.75Z"/>
    <path class="cls-4" d="m188.94,46.29l5.55-14.9h3.63l-6.9,14.9h-2.28Z"/>
    <path class="cls-4" d="m217.91,38.49V3.64h3.37v31.9h16.66v2.95h-20.04Z"/>
    <path class="cls-4" d="m242.36,9.04V3.64h3.89v5.4h-3.89Zm.31,29.45V13.84h3.27v24.65h-3.27Z"/>
    <path class="cls-4" d="m266.24,38.84c-1.66,0-3.18-.33-4.54-.98-1.37-.65-2.52-1.56-3.45-2.73-.93-1.17-1.63-2.52-2.08-4.05l1.04-.35v7.75h-3.27V3.64h3.27v17.9l-.88-.5c.38-1.43,1.04-2.72,1.97-3.85.93-1.13,2.08-2.03,3.43-2.7,1.35-.67,2.86-1,4.52-1,2.18,0,4.14.52,5.89,1.58,1.75,1.05,3.14,2.52,4.18,4.42s1.56,4.12,1.56,6.65c0,2.4-.49,4.56-1.48,6.48-.99,1.92-2.35,3.43-4.1,4.55-1.75,1.12-3.76,1.68-6.05,1.68Zm-.52-2.9c1.73,0,3.26-.43,4.59-1.28,1.33-.85,2.38-2.01,3.14-3.47.76-1.47,1.14-3.15,1.14-5.05s-.38-3.58-1.14-5.05c-.76-1.47-1.81-2.62-3.14-3.45-1.33-.83-2.86-1.25-4.59-1.25s-3.25.42-4.57,1.25c-1.32.83-2.34,1.98-3.09,3.45-.74,1.47-1.12,3.15-1.12,5.05s.37,3.58,1.12,5.05c.74,1.47,1.77,2.62,3.09,3.47,1.32.85,2.84,1.28,4.57,1.28Z"/>
    <path class="cls-4" d="m284.72,38.49V13.84h3.32v6.55l-.83.15c.28-1.53.88-2.82,1.82-3.85s2.02-1.83,3.27-2.38c1.25-.55,2.44-.83,3.58-.83.69,0,1.39.08,2.1.23.71.15,1.39.39,2.05.73l-1.61,2.85c-.45-.2-.95-.37-1.51-.5-.55-.13-1.09-.2-1.61-.2-.9,0-1.8.17-2.7.5-.9.33-1.72.86-2.47,1.57s-1.29,1.68-1.64,2.88c-.14.5-.25,1.12-.34,1.85-.09.73-.13,1.75-.13,3.05v12.05h-3.32Z"/>
    <path class="cls-4" d="m314,38.84c-1.9,0-3.59-.32-5.06-.95-1.47-.63-2.69-1.52-3.66-2.65-.97-1.13-1.7-2.47-2.21-4-.5-1.53-.75-3.17-.75-4.9s.24-3.43.73-4.98c.48-1.55,1.2-2.92,2.15-4.1.95-1.18,2.13-2.11,3.53-2.77,1.4-.67,3.02-1,4.85-1,1.94,0,3.61.33,5.01.98,1.4.65,2.54,1.53,3.43,2.65.88,1.12,1.54,2.34,1.97,3.67.43,1.33.65,2.68.65,4.05,0,.27,0,.62-.03,1.05-.02.43-.06.8-.13,1.1h-18.95c.07,2.83.86,5.03,2.36,6.6,1.51,1.57,3.54,2.35,6.1,2.35,1.63,0,3.02-.24,4.18-.73,1.16-.48,2.28-1.29,3.35-2.43l2.34,2c-.97.97-1.96,1.74-2.96,2.33-1,.58-2.07,1.02-3.19,1.3-1.13.28-2.36.43-3.71.43Zm7.37-13.45c.07-.27.1-.54.1-.82v-.83c0-.87-.15-1.75-.44-2.65-.29-.9-.75-1.72-1.38-2.45-.62-.73-1.44-1.33-2.44-1.8-1-.47-2.2-.7-3.58-.7-1.59,0-2.98.38-4.18,1.15-1.19.77-2.12,1.78-2.78,3.05-.66,1.27-1.04,2.7-1.14,4.3h16.92l-1.09.75Z"/>
    <path class="cls-4" d="m360.82,12.59v13.4h-3.27v-13.4h3.27Z"/>
    <path class="cls-4" d="m370.99,12.59c.28,6.07.48,9.7.62,10.9.14,1.2.35,2.3.62,3.3,2.46-.2,4.22-.59,5.3-1.17,1.07-.58,1.79-1.3,2.15-2.15.36-.85.63-2.16.81-3.93l.57-6.95h3.32l-.62,7.7c-.24,2.47-.73,4.25-1.45,5.35-.73,1.1-1.8,1.96-3.22,2.58-1.42.62-3.44,1.04-6.07,1.27.62,2.2,1.73,3.9,3.32,5.1,1.59,1.2,3.53,1.8,5.81,1.8,3.36,0,5.86-1.06,7.5-3.17,1.64-2.12,2.67-5.29,3.09-9.52l1.09-11.1h3.32l-1.14,11c-.55,5.73-1.96,9.77-4.23,12.1-2.27,2.33-5.55,3.5-9.84,3.5-4.53,0-7.92-1.56-10.15-4.68-2.23-3.12-3.49-8.04-3.76-14.77l-.31-7.15h3.27Z"/>
    <path class="cls-4" d="m403.08,13.44c2.77-.87,5.62-1.3,8.57-1.3,3.67,0,6.71,1.12,9.14,3.38,2.42,2.25,3.63,5.48,3.63,9.68s-1.29,7.74-3.87,10.12c-2.58,2.38-5.94,3.57-10.1,3.57-3.11,0-5.64-.5-7.58-1.5l.88-2.7c1.7.87,3.81,1.3,6.33,1.3,3.36,0,6.03-.94,8.02-2.83,1.99-1.88,2.98-4.51,2.98-7.88s-.91-5.83-2.73-7.6c-1.82-1.77-4.28-2.65-7.4-2.65-1.7,0-3.24.2-4.62.6v4.95c0,2.6,1.06,3.9,3.17,3.9.8,0,1.54-.1,2.23-.3l.47,2.75c-.8.3-1.84.45-3.11.45-1.8,0-3.25-.54-4.36-1.62-1.11-1.08-1.66-2.79-1.66-5.12v-7.2Z"/>
    <path class="cls-4" d="m434.33,12.59v25.9h-3.27V12.59h3.27Z"/>
    <path class="cls-4" d="m464.54,38.49h-3.27v-14.8c0-1.93-.25-3.48-.75-4.65-.5-1.17-1.5-2.1-3.01-2.8s-3.61-1.05-6.31-1.05c-1.84,0-3.6.12-5.29.35v22.95h-3.27V13.14c3.6-.57,6.65-.85,9.14-.85,3.11,0,5.65.48,7.61,1.45,1.95.97,3.3,2.26,4.05,3.88.74,1.62,1.12,3.74,1.12,6.38v14.5Z"/>
    <path class="cls-4" d="m501.99,41.26l-14.33-34.85h3.74l12.41,30.9h-.83l12.3-30.9h3.74l-14.28,34.85h-2.75Z"/>
    <path class="cls-4" d="m521.24,41.26v-24.65h3.32v6.55l-.83.15c.28-1.53.88-2.82,1.82-3.85s2.02-1.83,3.27-2.38c1.25-.55,2.44-.83,3.58-.83.69,0,1.39.08,2.1.23.71.15,1.39.39,2.05.73l-1.61,2.85c-.45-.2-.95-.37-1.51-.5-.55-.13-1.09-.2-1.61-.2-.9,0-1.8.17-2.7.5-.9.33-1.72.86-2.47,1.57-.75.72-1.29,1.68-1.64,2.88-.14.5-.25,1.12-.34,1.85-.09.73-.13,1.75-.13,3.05v12.05h-3.32Z"/>
    <path class="cls-4" d="m541.54,11.81v-5.4h3.89v5.4h-3.89Zm.31,29.45v-24.65h3.27v24.65h-3.27Z"/>
    <path class="cls-4" d="m551.56,51.81c-.55,0-1.14-.06-1.76-.17-.62-.12-1.26-.26-1.92-.42v-2.8c.55.2,1.05.33,1.48.4.43.07.79.1,1.06.1.9,0,1.57-.26,2.02-.77.45-.52.67-1.39.67-2.62v-28.9h3.27v29.65c0,1.93-.43,3.34-1.3,4.23-.87.88-2.04,1.32-3.53,1.32Zm1.3-40v-5.4h3.89v5.4h-3.89Z"/>
    <path class="cls-4" d="m561.79,49.06l5.56-14.9h3.63l-6.9,14.9h-2.28Z"/>
    <path class="cls-4" d="m3.05,86.16v-34.85h3.37v31.9h16.66v2.95H3.05Z"/>
    <path class="cls-4" d="m27.5,56.71v-5.4h3.89v5.4h-3.89Zm.31,29.45v-24.65h3.27v24.65h-3.27Z"/>
    <path class="cls-4" d="m47.07,86.16l-10.49-24.65h3.58l8.25,20.65,8.31-20.65h3.58l-10.43,24.65h-2.8Z"/>
    <path class="cls-4" d="m65.86,86.16v-24.65h3.32v6.55l-.83.15c.28-1.53.88-2.82,1.82-3.85s2.02-1.83,3.27-2.38c1.25-.55,2.44-.83,3.58-.83.69,0,1.39.08,2.1.23.71.15,1.39.39,2.05.73l-1.61,2.85c-.45-.2-.95-.37-1.51-.5-.55-.13-1.09-.2-1.61-.2-.9,0-1.8.17-2.7.5-.9.33-1.72.86-2.47,1.57s-1.29,1.68-1.64,2.88c-.14.5-.25,1.12-.34,1.85-.09.73-.13,1.75-.13,3.05v12.05h-3.32Z"/>
    <path class="cls-4" d="m95.14,86.51c-1.9,0-3.59-.32-5.06-.95-1.47-.63-2.69-1.52-3.66-2.65-.97-1.13-1.7-2.47-2.21-4-.5-1.53-.75-3.17-.75-4.9s.24-3.43.73-4.98c.48-1.55,1.2-2.92,2.15-4.1.95-1.18,2.13-2.11,3.53-2.77,1.4-.67,3.02-1,4.85-1,1.94,0,3.61.33,5.01.98,1.4.65,2.54,1.53,3.43,2.65.88,1.12,1.54,2.34,1.97,3.67.43,1.33.65,2.68.65,4.05,0,.27,0,.62-.03,1.05-.02.43-.06.8-.13,1.1h-18.95c.07,2.83.86,5.03,2.36,6.6,1.51,1.57,3.54,2.35,6.1,2.35,1.63,0,3.02-.24,4.18-.73,1.16-.48,2.28-1.29,3.35-2.43l2.34,2c-.97.97-1.96,1.74-2.96,2.33-1,.58-2.07,1.02-3.19,1.3-1.13.28-2.36.43-3.71.43Zm7.37-13.45c.07-.27.1-.54.1-.82v-.83c0-.87-.15-1.75-.44-2.65-.29-.9-.75-1.72-1.38-2.45-.62-.73-1.44-1.33-2.44-1.8-1-.47-2.2-.7-3.58-.7-1.59,0-2.98.38-4.18,1.15-1.19.77-2.12,1.78-2.78,3.05-.66,1.27-1.04,2.7-1.14,4.3h16.92l-1.09.75Z"/>
    <path class="cls-4" d="m109.99,93.96l5.55-14.9h3.63l-6.9,14.9h-2.28Z"/>
    <path class="cls-4" d="m151.1,63.85c-3.75-1.34-6.01-1.74-8.98-1.74-1.84,0-3.2.56-4.1,1.56l.65,2.61-.9,2.46-.36.09-1.87-4.92c.26-3.45,3.13-5.6,7.01-5.6,2.16,0,5.59.75,10.6,2.71,1.55.59,3.13.96,5.53,1l2.84-.03.03.06-1.94,3.14c-2.2.22-7.14,1.52-8.63,2.05-7.08,2.55-11.96,6.22-11.96,10.36,0,6.47,7.11,10.21,16.12,10.21,2.91,0,5.65-.28,8.3-.68l.1.31c-1.65,1.31-3.49,2.74-5.27,3.7-1.68.31-3.81.56-6.11.56-8.5,0-15.57-3.98-15.57-12.64,0-7.41,6.49-13.29,14.54-15.13l-.03-.09Z"/>
    <path class="cls-4" d="m177.63,57.97l2.29,4.2c.84,1.56,1.62,3.24,1.62,5.91v3.42c0,2.77-1.55,5.73-4.07,8.65-1.97,1.99-3.72,2.83-5.33,2.83-2.39,0-5.14-.84-8.3-2.4l.36-1.06c1,.31,2.16.56,3.59.56,4.56-.03,9.21-3.8,11.34-8.4.26-.53.36-1.03.36-1.37,0-.53-.26-1.12-.45-1.65-1.16-2.49-2.46-4.76-3.88-6.85.74-1.34,1.49-2.61,2.29-3.89l.19.03Z"/>
    <path class="cls-4" d="m179.26,95.79l5.55-14.9h3.63l-6.9,14.9h-2.28Z"/>
    <path class="cls-4" d="m239.44,49.07c-.14.26-.45.44-.99.48-.5,1.39-1.26,3.26-1.99,4.87h16.38v34.16h-3.16v-2.3h-24.59v2.56h-3.02v-34.42h11.19c.81-1.91,1.62-4.39,2.03-6.13l4.15.78Zm10.24,8.21h-24.59v6.95h24.59v-6.95Zm0,9.69h-24.59v6.87h24.59v-6.87Zm-24.59,16.52h24.59v-6.91h-24.59v6.91Z"/>
    <path class="cls-4" d="m281.86,56.94h16.43v31.6h-3.11v-2.61h-29.56v2.78h-3.02v-31.77h16.16v-8.56l3.97.22c-.05.3-.27.52-.86.61v7.74Zm-3.11,2.96h-13.13v10h13.13v-10Zm-13.13,12.87v10.26h13.13v-10.26h-13.13Zm29.56-12.87h-13.31v10h13.31v-10Zm-13.31,23.12h13.31v-10.26h-13.31v10.26Z"/>
    <path class="cls-4" d="m332.27,88.99v-34.85h3.37v15.55h19.1v-15.55h3.43v34.85h-3.43v-16.25h-19.1v16.25h-3.37Z"/>
    <path class="cls-4" d="m375.04,89.34c-1.8,0-3.36-.36-4.67-1.08-1.32-.72-2.33-1.78-3.04-3.2-.71-1.42-1.06-3.21-1.06-5.38v-15.35h3.27v14.25c0,1.8.24,3.29.73,4.48.48,1.18,1.19,2.07,2.13,2.65.93.58,2.11.88,3.53.88,1.52,0,2.82-.35,3.89-1.05,1.07-.7,1.89-1.77,2.47-3.2.57-1.43.86-3.27.86-5.5v-12.5h3.27v24.65h-3.27v-5.75h.78c-.66,2.03-1.77,3.56-3.35,4.58-1.58,1.02-3.42,1.52-5.53,1.52Z"/>
    <path class="cls-4" d="m394.46,88.99v-24.65h3.32v6.55l-.83.15c.28-1.53.88-2.82,1.82-3.85s2.02-1.83,3.27-2.38c1.25-.55,2.44-.83,3.58-.83.69,0,1.39.08,2.1.23.71.15,1.39.39,2.05.73l-1.61,2.85c-.45-.2-.95-.37-1.51-.5-.55-.13-1.09-.2-1.61-.2-.9,0-1.8.17-2.7.5-.9.33-1.72.86-2.47,1.57s-1.29,1.68-1.64,2.88c-.14.5-.25,1.12-.34,1.85-.09.73-.13,1.75-.13,3.05v12.05h-3.32Z"/>
    <path class="cls-4" d="m423.22,89.34c-1.8,0-3.36-.36-4.67-1.08-1.32-.72-2.33-1.78-3.04-3.2-.71-1.42-1.06-3.21-1.06-5.38v-15.35h3.27v14.25c0,1.8.24,3.29.73,4.48.48,1.18,1.19,2.07,2.13,2.65.93.58,2.11.88,3.53.88,1.52,0,2.82-.35,3.89-1.05,1.07-.7,1.89-1.77,2.47-3.2.57-1.43.86-3.27.86-5.5v-12.5h3.27v24.65h-3.27v-5.75h.78c-.66,2.03-1.77,3.56-3.35,4.58-1.58,1.02-3.42,1.52-5.53,1.52Z"/>
    <path class="cls-4" d="m440.04,96.79l5.56-14.9h3.63l-6.9,14.9h-2.28Z"/>
    <path class="cls-4" d="m18.19,142.95c-3.29,0-6.17-.74-8.64-2.23-2.47-1.48-4.4-3.57-5.76-6.25-1.37-2.68-2.05-5.82-2.05-9.42s.68-6.75,2.05-9.45c1.37-2.7,3.29-4.79,5.76-6.27,2.47-1.48,5.34-2.23,8.59-2.23s6.27.74,8.75,2.23c2.47,1.48,4.39,3.58,5.76,6.27,1.37,2.7,2.05,5.85,2.05,9.45s-.69,6.74-2.08,9.42c-1.38,2.68-3.31,4.77-5.79,6.25-2.47,1.48-5.36,2.23-8.64,2.23Zm-.05-3.15c2.7,0,5.03-.61,6.98-1.83,1.95-1.22,3.47-2.92,4.54-5.12,1.07-2.2,1.61-4.8,1.61-7.8s-.54-5.65-1.61-7.85c-1.07-2.2-2.59-3.91-4.54-5.12-1.96-1.22-4.28-1.83-6.98-1.83s-4.92.6-6.88,1.8c-1.96,1.2-3.47,2.9-4.54,5.1-1.07,2.2-1.61,4.83-1.61,7.9s.54,5.65,1.61,7.85c1.07,2.2,2.59,3.9,4.54,5.1,1.95,1.2,4.25,1.8,6.88,1.8Zm-6.49-37v-5.4h3.89v5.4h-3.89Zm9.29,0v-5.4h3.89v5.4h-3.89Z"/>
    <path class="cls-4" d="m39.53,142.45v-2.35l17.18-20.35.16.6h-16.51v-2.55h19.52v2.55l-17.08,20.4-.1-.9h17.03v2.6h-20.19Z"/>
    <path class="cls-4" d="m75.97,153.05c-3.63,0-6.5-.65-8.59-1.95-2.09-1.3-3.14-3.1-3.14-5.4v-.62c0-.25.03-.48.1-.67l5.92-4.55,1.25.8-4,4.45c-.03.13-.05.26-.05.38v.33c0,1.6.8,2.8,2.39,3.6,1.59.8,3.63,1.2,6.13,1.2,2.11,0,3.85-.32,5.22-.98,1.37-.65,2.05-1.66,2.05-3.02,0-.8-.23-1.44-.7-1.92-.47-.48-1.12-.87-1.95-1.15-.83-.28-1.8-.52-2.91-.7-1.11-.18-2.3-.38-3.58-.58-1.52-.23-2.98-.56-4.39-.97-1.4-.42-2.54-1.02-3.43-1.8-.88-.78-1.32-1.84-1.32-3.17,0-1.13.38-2.14,1.14-3.02.76-.88,1.82-1.64,3.17-2.28l2.08,1.4c-1.18.33-2.02.79-2.52,1.38-.5.58-.75,1.27-.75,2.07s.27,1.38.8,1.85c.54.47,1.28.83,2.23,1.08.95.25,2.07.46,3.35.62,1.59.23,3.11.48,4.54.75,1.44.27,2.72.63,3.84,1.1,1.12.47,2.01,1.09,2.65,1.88.64.78.96,1.83.96,3.12,0,2.2-.94,3.88-2.83,5.05-1.89,1.17-4.44,1.75-7.66,1.75Zm-.73-18.75c-1.87,0-3.54-.35-5.01-1.05-1.47-.7-2.61-1.68-3.43-2.95-.81-1.27-1.22-2.72-1.22-4.35s.42-3.14,1.27-4.42c.85-1.28,2-2.28,3.45-3s3.06-1.08,4.83-1.08,3.37.36,4.8,1.08c1.44.72,2.58,1.72,3.43,3.02.85,1.3,1.27,2.82,1.27,4.55,0,1.63-.41,3.07-1.22,4.3-.81,1.23-1.92,2.19-3.32,2.88-1.4.68-3.02,1.02-4.85,1.02Zm-.05-2.6c1.9,0,3.41-.55,4.52-1.65,1.11-1.1,1.66-2.48,1.66-4.15,0-1.77-.57-3.19-1.71-4.28-1.14-1.08-2.63-1.62-4.46-1.62s-3.39.55-4.57,1.65c-1.18,1.1-1.76,2.5-1.76,4.2s.57,3.06,1.71,4.18c1.14,1.12,2.68,1.67,4.62,1.67Zm7.84-9.65l-2.39-1.55,5.14-4.2,1.66,2-4.41,3.75Z"/>
    <path class="cls-4" d="m100.32,142.8c-1.8,0-3.36-.36-4.67-1.08-1.32-.72-2.33-1.78-3.04-3.2-.71-1.42-1.06-3.21-1.06-5.38v-15.35h3.27v14.25c0,1.8.24,3.29.73,4.48.48,1.18,1.19,2.07,2.13,2.65.93.58,2.11.88,3.53.88,1.52,0,2.82-.35,3.89-1.05,1.07-.7,1.89-1.77,2.47-3.2.57-1.43.86-3.27.86-5.5v-12.5h3.27v24.65h-3.27v-5.75h.78c-.66,2.03-1.77,3.56-3.35,4.58-1.58,1.02-3.42,1.52-5.53,1.52Zm-5.3-29.8v-5.4h3.89v5.4h-3.89Zm9.29,0v-5.4h3.89v5.4h-3.89Z"/>
    <path class="cls-4" d="m119.73,142.45v-24.65h3.32v6.55l-.83.15c.28-1.53.88-2.82,1.82-3.85s2.02-1.83,3.27-2.38c1.25-.55,2.44-.83,3.58-.83.69,0,1.39.08,2.1.23.71.15,1.39.39,2.05.73l-1.61,2.85c-.45-.2-.95-.37-1.51-.5-.55-.13-1.09-.2-1.61-.2-.9,0-1.8.17-2.7.5-.9.33-1.72.86-2.47,1.57s-1.29,1.68-1.64,2.88c-.14.5-.25,1.12-.34,1.85-.09.73-.13,1.75-.13,3.05v12.05h-3.32Z"/>
    <path class="cls-4" d="m135.15,150.25l5.55-14.9h3.63l-6.9,14.9h-2.28Z"/>
    <path class="cls-4" d="m176.9,143.32l-14.33-34.85h3.74l12.41,30.9h-.83l12.3-30.9h3.74l-14.28,34.85h-2.75Z"/>
    <path class="cls-4" d="m203.69,143.67c-1.9,0-3.56-.32-4.96-.95s-2.47-1.51-3.22-2.62c-.75-1.12-1.12-2.42-1.12-3.92,0-1.33.27-2.46.8-3.38.54-.92,1.24-1.64,2.1-2.18.93-.6,2-1.02,3.19-1.25,1.19-.23,2.48-.35,3.87-.35h8.46v2.4h-8.05c-1,0-1.98.08-2.93.25-.95.17-1.76.5-2.41,1-.55.37-.98.84-1.27,1.42-.3.58-.44,1.27-.44,2.08,0,1.5.56,2.69,1.69,3.57,1.12.88,2.66,1.33,4.59,1.33,1.56,0,2.98-.36,4.26-1.08,1.28-.72,2.31-1.71,3.09-2.97.78-1.27,1.17-2.68,1.17-4.25l1.4,1.5c-.17,1.87-.73,3.52-1.66,4.95-.93,1.43-2.15,2.53-3.63,3.3-1.49.77-3.13,1.15-4.93,1.15Zm9.03-.35l-.21-5.6v-9.75c0-2.27-.61-3.98-1.82-5.15-1.21-1.17-2.99-1.75-5.35-1.75-1.52,0-2.93.29-4.2.88-1.28.58-2.49,1.58-3.63,2.98l-2.39-1.95c1.38-1.6,2.93-2.77,4.65-3.52s3.64-1.12,5.79-1.12c3.25,0,5.76.83,7.53,2.48s2.65,4.04,2.65,7.17v15.35h-3.01Z"/>
    <path class="cls-4" d="m223.47,153.52v-34.85h3.27v7.75l-1.04-.7c.48-1.57,1.19-2.9,2.13-4,.93-1.1,2.08-1.94,3.43-2.52,1.35-.58,2.86-.88,4.52-.88,2.28,0,4.3.56,6.05,1.67,1.75,1.12,3.11,2.62,4.1,4.53.99,1.9,1.48,4.07,1.48,6.5s-.52,4.71-1.56,6.62c-1.04,1.92-2.43,3.4-4.18,4.45-1.75,1.05-3.71,1.58-5.89,1.58-1.66,0-3.18-.31-4.54-.93-1.37-.62-2.51-1.47-3.43-2.57-.92-1.1-1.57-2.35-1.95-3.75l.88-.8v17.9h-3.27Zm11.78-12.75c1.73,0,3.26-.42,4.59-1.25,1.33-.83,2.38-1.98,3.14-3.45.76-1.47,1.14-3.15,1.14-5.05s-.38-3.58-1.14-5.05c-.76-1.47-1.81-2.62-3.14-3.48-1.33-.85-2.86-1.27-4.59-1.27s-3.25.43-4.57,1.27c-1.32.85-2.35,2.01-3.09,3.48-.75,1.47-1.12,3.15-1.12,5.05s.37,3.58,1.12,5.05c.74,1.47,1.77,2.62,3.09,3.45,1.32.83,2.84,1.25,4.57,1.25Z"/>
    <path class="cls-4" d="m262.35,143.67c-1.9,0-3.56-.32-4.96-.95s-2.47-1.51-3.22-2.62c-.75-1.12-1.12-2.42-1.12-3.92,0-1.33.27-2.46.8-3.38.54-.92,1.24-1.64,2.1-2.18.93-.6,2-1.02,3.19-1.25,1.19-.23,2.48-.35,3.87-.35h8.46v2.4h-8.05c-1,0-1.98.08-2.93.25-.95.17-1.76.5-2.41,1-.55.37-.98.84-1.27,1.42-.3.58-.44,1.27-.44,2.08,0,1.5.56,2.69,1.69,3.57,1.12.88,2.66,1.33,4.59,1.33,1.56,0,2.98-.36,4.26-1.08,1.28-.72,2.31-1.71,3.09-2.97.78-1.27,1.17-2.68,1.17-4.25l1.4,1.5c-.17,1.87-.73,3.52-1.66,4.95-.93,1.43-2.15,2.53-3.63,3.3-1.49.77-3.13,1.15-4.93,1.15Zm9.03-.35l-.21-5.6v-9.75c0-2.27-.61-3.98-1.82-5.15-1.21-1.17-2.99-1.75-5.35-1.75-1.52,0-2.93.29-4.2.88-1.28.58-2.49,1.58-3.63,2.98l-2.39-1.95c1.38-1.6,2.93-2.77,4.65-3.52s3.64-1.12,5.79-1.12c3.25,0,5.76.83,7.53,2.48s2.65,4.04,2.65,7.17v15.35h-3.01Z"/>
    <path class="cls-4" d="m290.22,143.67c-1.9,0-3.56-.32-4.96-.95s-2.47-1.51-3.22-2.62c-.75-1.12-1.12-2.42-1.12-3.92,0-1.33.27-2.46.8-3.38.54-.92,1.24-1.64,2.1-2.18.93-.6,2-1.02,3.19-1.25,1.19-.23,2.48-.35,3.87-.35h8.46v2.4h-8.05c-1,0-1.98.08-2.93.25-.95.17-1.76.5-2.41,1-.55.37-.98.84-1.27,1.42-.3.58-.44,1.27-.44,2.08,0,1.5.56,2.69,1.69,3.57,1.12.88,2.66,1.33,4.59,1.33,1.56,0,2.98-.36,4.26-1.08,1.28-.72,2.31-1.71,3.09-2.97.78-1.27,1.17-2.68,1.17-4.25l1.4,1.5c-.17,1.87-.73,3.52-1.66,4.95-.93,1.43-2.15,2.53-3.63,3.3-1.49.77-3.13,1.15-4.93,1.15Zm9.03-.35l-.21-5.6v-9.75c0-2.27-.61-3.98-1.82-5.15-1.21-1.17-2.99-1.75-5.35-1.75-1.52,0-2.93.29-4.2.88-1.28.58-2.49,1.58-3.63,2.98l-2.39-1.95c1.38-1.6,2.93-2.77,4.65-3.52s3.64-1.12,5.79-1.12c3.25,0,5.76.83,7.53,2.48s2.65,4.04,2.65,7.17v15.35h-3.01Z"/>
    <path class="cls-4" d="m303.41,151.12l5.56-14.9h3.63l-6.9,14.9h-2.28Z"/>
    <path class="cls-4" d="m357.26,140.27c-1.26.55-2.29,1.37-3.07,2.48-1.58-1.16-3.35-3.06-5.33-5.68s-3.44-4.9-4.38-6.83c-2.07,5.03-5.05,9.33-8.94,12.9-.89-1.12-1.87-1.95-2.92-2.48,3.32-2.61,5.92-5.95,7.78-10.01s2.8-7.85,2.8-11.38h-8.81v-3.18h21.33v3.18h-8.94c-.07.93-.22,2.24-.45,3.92l-.34,2.3c0,.72,1.15,2.85,3.45,6.37s4.9,6.33,7.81,8.42Zm12.99-8.7h-6.94v17.47h-3.3v-38.25h3.3v17.55h6.94v3.22Z"/>
    <path class="cls-4" d="m413.51,134.53h-10.22v14.31h-3.3v-14.31h-10.39v14.31h-3.3v-14.31h-10.18v-3.24h37.39v3.24Zm-4.28-13.58c0,2.19-1.37,4.09-4.12,5.72s-6.17,2.44-10.27,2.44-7.7-.78-10.38-2.34-4.01-3.5-4.01-5.82c0-2.17,1.41-4.07,4.22-5.68s6.2-2.42,10.18-2.42,7.37.81,10.18,2.42,4.22,3.51,4.22,5.68Zm-3.92,0c0-1.37-1-2.53-3-3.5s-4.48-1.45-7.43-1.45-5.45.48-7.45,1.45-3,2.13-3,3.5,1,2.55,3,3.52,4.49,1.45,7.45,1.45,5.43-.49,7.43-1.46,3-2.14,3-3.51Z"/>
    <path class="cls-4" d="m457.76,145.03h-38.41v-3.32h17.4v-6.64h-12.07v-12h23.23v-5.25h-23.23v-3.36h26.68v11.92h-23.23v5.33h24.32v3.36h-12.37v6.64h17.69v3.32Z"/>
    <path class="cls-4" d="m500.4,133.48h-16.69v5.91h-3.32v-5.91h-16.69v-3.24h36.71v3.24Zm-3.96-13.25c0,2-1.37,3.74-4.12,5.22s-6.17,2.23-10.27,2.23-7.7-.71-10.36-2.12-3.99-3.19-3.99-5.32c0-1.98,1.4-3.71,4.19-5.18s6.18-2.2,10.16-2.2,7.38.73,10.19,2.19,4.21,3.19,4.21,5.19Zm-.36,27.85h-27.64v-12.8h3.41v9.47h24.23v3.32Zm-3.47-27.85c0-1.16-1-2.14-3.01-2.94s-4.51-1.2-7.51-1.2-5.5.4-7.51,1.2-3.01,1.78-3.01,2.94,1,2.19,3,2.99,4.51,1.21,7.52,1.21,5.51-.4,7.52-1.21,3-1.8,3-2.99Z"/>
    <path class="cls-4" d="m685.59,51.14l5.55-14.9h3.63l-6.9,14.9h-2.28Z"/>
    <path class="cls-4" d="m301.13,97.83l5.55-14.9h3.63l-6.9,14.9h-2.28Z"/>
    <path class="cls-4" d="m464.81,46.55l5.55-14.9h3.63l-6.9,14.9h-2.28Z"/>
    <path class="cls-4" d="m326.64,43.39l5.55-14.9h3.63l-6.9,14.9h-2.28Z"/>
    <path class="cls-4" d="m553.08,141.47h-22.38v-29.67h22.07v2.41h-19.07v10.78h17.59v2.41h-17.59v11.56h19.38v2.5Z"/>
    <path class="cls-4" d="m579.39,142.35h-3.27l-7.92-17.64-8.19,17.64h-3.22l9.76-21.17-4.43-9.79h3.22l14.06,30.96Z"/>
    <path class="cls-4" d="m598.02,140.06c-1.94,2.04-4.55,3.06-7.83,3.06-2.36,0-4.28-.66-5.78-1.98-1.49-1.32-2.24-3.03-2.24-5.13,0-2.9,1.43-4.93,4.3-6.08-2.18-.8-3.27-2.41-3.27-4.83,0-1.9.63-3.41,1.9-4.55,1.27-1.14,2.96-1.7,5.08-1.7,1.31,0,2.49.21,3.54.63,1.04.42,2.13,1.11,3.27,2.09l-1.7,2.07c-1.64-1.24-3.31-1.85-5.01-1.85-1.22,0-2.22.34-2.98,1.01-.76.68-1.14,1.57-1.14,2.67s.38,2.01,1.14,2.72c.76.7,1.74,1.06,2.93,1.06h1.61v2.54h-1.88c-1.28,0-2.35.4-3.2,1.21-.85.81-1.28,1.84-1.28,3.1s.45,2.29,1.34,3.08c.9.79,2.09,1.19,3.58,1.19,2.33,0,4.22-.79,5.69-2.37l1.92,2.07Z"/>
    <path class="cls-4" d="m601.82,119.45h3.09v10.87c0,2.99.22,5.04.67,6.14.45,1.11,1.28,2.01,2.51,2.72,1.22.7,2.61,1.06,4.16,1.06,2.51,0,4.45-.81,5.82-2.44,1.37-1.62,2.06-3.9,2.06-6.83,0-3.85-1.85-7-5.55-9.44l1.66-2.67c4.66,2.65,6.98,6.87,6.98,12.68,0,3.48-1,6.28-3,8.41-2,2.13-4.6,3.19-7.79,3.19s-5.76-.86-7.7-2.59c-1.94-1.72-2.91-5.02-2.91-9.87v-11.21Zm12.27-10.74l-.58,7.11h-2.6l-.63-7.11h3.81Z"/>
    <path class="cls-4" d="m652.54,126.91c0,5.06-1.1,9.03-3.29,11.9-2.19,2.87-5.22,4.31-9.09,4.31s-6.89-1.43-9.09-4.29c-2.19-2.86-3.29-6.84-3.29-11.94s1.1-9.09,3.29-11.97c2.19-2.87,5.22-4.31,9.09-4.31s6.89,1.44,9.09,4.33c2.19,2.89,3.29,6.88,3.29,11.97Zm-3.13-1.38c-.24-3.97-1.17-7-2.8-9.1-1.63-2.1-3.78-3.15-6.47-3.15s-4.83,1.04-6.45,3.13c-1.61,2.08-2.54,5.12-2.78,9.12h18.49Zm0,2.59h-18.49c.18,4.02,1.07,7.08,2.66,9.16,1.6,2.08,3.79,3.13,6.58,3.13s4.99-1.05,6.6-3.15c1.61-2.1,2.49-5.14,2.64-9.14Z"/>
    <path class="cls-4" d="m672.91,140.06c-1.94,2.04-4.55,3.06-7.83,3.06-2.36,0-4.28-.66-5.78-1.98-1.49-1.32-2.24-3.03-2.24-5.13,0-2.9,1.43-4.93,4.3-6.08-2.18-.8-3.27-2.41-3.27-4.83,0-1.9.63-3.41,1.9-4.55,1.27-1.14,2.96-1.7,5.08-1.7,1.31,0,2.49.21,3.54.63,1.04.42,2.13,1.11,3.27,2.09l-1.7,2.07c-1.64-1.24-3.31-1.85-5.01-1.85-1.22,0-2.22.34-2.98,1.01-.76.68-1.14,1.57-1.14,2.67s.38,2.01,1.14,2.72c.76.7,1.74,1.06,2.93,1.06h1.61v2.54h-1.88c-1.28,0-2.35.4-3.2,1.21-.85.81-1.28,1.84-1.28,3.1s.45,2.29,1.34,3.08c.9.79,2.09,1.19,3.58,1.19,2.33,0,4.22-.79,5.69-2.37l1.92,2.07Z"/>
    <path class="cls-4" d="m679.76,138.12v12.59h-3.04v-19.14c0-3.68,1.18-6.72,3.54-9.12,2.36-2.4,5.29-3.6,8.8-3.6s6.45,1.19,8.84,3.58c2.39,2.39,3.58,5.26,3.58,8.62s-1.19,6.22-3.58,8.56c-2.39,2.34-5.31,3.51-8.77,3.51-3.85,0-6.97-1.67-9.36-5Zm18.62-7.03c0-2.53-.91-4.72-2.73-6.58-1.82-1.85-4.01-2.78-6.56-2.78s-4.73.91-6.54,2.74c-1.81,1.83-2.71,4.02-2.71,6.58s.89,4.74,2.66,6.55c1.78,1.81,3.98,2.72,6.63,2.72s4.84-.9,6.6-2.69c1.76-1.8,2.64-3.97,2.64-6.53Z"/>
    <path class="cls-4" d="m706.04,131.05c0-3.36,1.2-6.24,3.6-8.62,2.4-2.39,5.33-3.58,8.77-3.58s6.37,1.19,8.77,3.58c2.4,2.39,3.6,5.25,3.6,8.58s-1.19,6.19-3.56,8.56c-2.37,2.37-5.31,3.56-8.8,3.56s-6.43-1.19-8.82-3.56c-2.39-2.37-3.58-5.21-3.58-8.52Zm21.67.04c0-2.53-.92-4.72-2.75-6.58-1.84-1.85-4.01-2.78-6.54-2.78s-4.69.93-6.51,2.78c-1.82,1.85-2.73,4.05-2.73,6.58s.91,4.7,2.73,6.51c1.82,1.81,3.98,2.72,6.49,2.72s4.69-.91,6.54-2.74c1.85-1.83,2.78-3.99,2.78-6.49Z"/>
    <path class="cls-4" d="m757.79,124.2l-2.42,1.47c-2.09-2.67-4.73-4.01-7.92-4.01-2.63,0-4.78.83-6.47,2.48-1.69,1.65-2.53,3.73-2.53,6.23s.72,4.34,2.15,5.52c1.43,1.18,3.74,2.04,6.94,2.59,3.67.66,6.03,1.39,7.07,2.18,1.04.79,1.57,2.1,1.57,3.92s-.72,3.28-2.17,4.38c-1.45,1.09-3.39,1.64-5.84,1.64-1.22,0-2.52-.14-3.89-.43l.81-2.63c1.07.23,2.23.35,3.47.35s2.3-.3,3.18-.91c.88-.6,1.32-1.44,1.32-2.5s-.54-1.8-1.61-2.2c-1.07-.4-2.66-.76-4.74-1.08-3.88-.6-6.74-1.75-8.57-3.43-1.84-1.68-2.75-4-2.75-6.96,0-3.51,1.15-6.37,3.45-8.6,2.3-2.23,5.22-3.34,8.77-3.34,4.63,0,8.03,1.78,10.21,5.35Z"/>
    <path class="cls-4" d="m501.01,152.48l5.55-14.9h3.63l-6.9,14.9h-2.28Z"/>
  </g>
  <path class="cls-4" d="m481.74,93.24c-3.53,0-6.42-.88-8.67-2.65-2.25-1.77-3.62-4.12-4.1-7.05l3.32-.8c.42,2.47,1.48,4.34,3.19,5.62s3.83,1.92,6.36,1.92c1.49,0,2.83-.28,4.02-.85,1.19-.57,2.14-1.37,2.83-2.4.69-1.03,1.04-2.22,1.04-3.55,0-1.43-.4-2.59-1.19-3.48-.8-.88-1.85-1.64-3.17-2.27-1.32-.63-2.8-1.25-4.46-1.85-1.87-.7-3.55-1.46-5.04-2.27-1.49-.82-2.66-1.81-3.5-2.98-.85-1.17-1.27-2.62-1.27-4.35s.43-3.26,1.3-4.58c.86-1.32,2.08-2.36,3.66-3.12,1.57-.77,3.4-1.15,5.48-1.15,2.21,0,4.17.48,5.87,1.45,1.7.97,3.06,2.38,4.1,4.25l-2.7,1.6c-.83-1.4-1.86-2.48-3.09-3.25-1.23-.77-2.66-1.15-4.28-1.15-1.38,0-2.6.25-3.63.75s-1.85,1.19-2.44,2.08c-.59.88-.88,1.89-.88,3.02,0,1.2.34,2.22,1.01,3.05.67.83,1.64,1.55,2.91,2.15,1.26.6,2.74,1.2,4.44,1.8,2.01.73,3.78,1.52,5.32,2.38,1.54.85,2.74,1.89,3.61,3.12.86,1.23,1.3,2.77,1.3,4.6,0,1.93-.49,3.65-1.45,5.15-.97,1.5-2.3,2.68-4,3.52-1.7.85-3.65,1.28-5.87,1.28Z"/>
  <path class="cls-4" d="m497.57,92.79v-2.35l17.18-20.35.16.6h-16.51v-2.55h19.52v2.55l-17.08,20.4-.1-.9h17.03v2.6h-20.19Z"/>
  <path class="cls-4" d="m532.09,93.14c-1.9,0-3.56-.32-4.96-.95s-2.47-1.51-3.22-2.62c-.74-1.12-1.12-2.42-1.12-3.92,0-1.33.27-2.46.8-3.38.54-.92,1.24-1.64,2.1-2.18.93-.6,2-1.02,3.19-1.25,1.19-.23,2.48-.35,3.87-.35h8.46v2.4h-8.05c-1,0-1.98.08-2.93.25-.95.17-1.76.5-2.41,1-.55.37-.98.84-1.27,1.42-.29.58-.44,1.27-.44,2.08,0,1.5.56,2.69,1.69,3.57,1.12.88,2.66,1.33,4.59,1.33,1.56,0,2.98-.36,4.26-1.08,1.28-.72,2.31-1.71,3.09-2.97.78-1.27,1.17-2.68,1.17-4.25l1.4,1.5c-.17,1.87-.73,3.52-1.66,4.95-.93,1.43-2.15,2.53-3.63,3.3-1.49.77-3.13,1.15-4.93,1.15Zm9.03-.35l-.21-5.6v-9.75c0-2.27-.61-3.98-1.82-5.15-1.21-1.17-2.99-1.75-5.35-1.75-1.52,0-2.93.29-4.2.88-1.28.58-2.49,1.58-3.63,2.98l-2.39-1.95c1.38-1.6,2.93-2.77,4.65-3.52s3.64-1.12,5.79-1.12c3.25,0,5.76.83,7.53,2.48,1.76,1.65,2.65,4.04,2.65,7.17v15.35h-3.01Z"/>
  <path class="cls-4" d="m564.18,93.14c-1.66,0-3.18-.33-4.54-.98-1.37-.65-2.52-1.56-3.45-2.73-.93-1.17-1.63-2.52-2.08-4.05l1.04-.35v7.75h-3.27v-34.85h3.27v17.9l-.88-.5c.38-1.43,1.04-2.72,1.97-3.85.93-1.13,2.08-2.03,3.43-2.7,1.35-.67,2.86-1,4.52-1,2.18,0,4.14.52,5.89,1.58,1.75,1.05,3.14,2.52,4.18,4.42s1.56,4.12,1.56,6.65c0,2.4-.49,4.56-1.48,6.48-.99,1.92-2.35,3.43-4.1,4.55-1.75,1.12-3.76,1.68-6.05,1.68Zm-.52-2.9c1.73,0,3.26-.43,4.59-1.28,1.33-.85,2.38-2.01,3.14-3.47.76-1.47,1.14-3.15,1.14-5.05s-.38-3.58-1.14-5.05c-.76-1.47-1.81-2.62-3.14-3.45-1.33-.83-2.86-1.25-4.59-1.25s-3.25.42-4.57,1.25c-1.32.83-2.34,1.98-3.09,3.45-.74,1.47-1.12,3.15-1.12,5.05s.37,3.58,1.12,5.05c.74,1.47,1.77,2.62,3.09,3.47,1.32.85,2.84,1.28,4.57,1.28Z"/>
  <path class="cls-4" d="m590.44,93.14c-1.9,0-3.56-.32-4.96-.95s-2.47-1.51-3.22-2.62c-.74-1.12-1.12-2.42-1.12-3.92,0-1.33.27-2.46.8-3.38.54-.92,1.24-1.64,2.1-2.18.93-.6,2-1.02,3.19-1.25,1.19-.23,2.48-.35,3.87-.35h8.46v2.4h-8.05c-1,0-1.98.08-2.93.25-.95.17-1.76.5-2.41,1-.55.37-.98.84-1.27,1.42-.29.58-.44,1.27-.44,2.08,0,1.5.56,2.69,1.69,3.57,1.12.88,2.66,1.33,4.59,1.33,1.56,0,2.98-.36,4.26-1.08,1.28-.72,2.31-1.71,3.09-2.97.78-1.27,1.17-2.68,1.17-4.25l1.4,1.5c-.17,1.87-.73,3.52-1.66,4.95-.93,1.43-2.15,2.53-3.63,3.3-1.49.77-3.13,1.15-4.93,1.15Zm9.03-.35l-.21-5.6v-9.75c0-2.27-.61-3.98-1.82-5.15-1.21-1.17-2.99-1.75-5.35-1.75-1.52,0-2.93.29-4.2.88-1.28.58-2.49,1.58-3.63,2.98l-2.39-1.95c1.38-1.6,2.93-2.77,4.65-3.52s3.64-1.12,5.79-1.12c3.25,0,5.76.83,7.53,2.48,1.76,1.65,2.65,4.04,2.65,7.17v15.35h-3.01Z"/>
  <path class="cls-4" d="m620.45,93.14c-2.28,0-4.3-.56-6.05-1.68-1.75-1.12-3.11-2.63-4.1-4.55-.99-1.92-1.48-4.08-1.48-6.48,0-2.53.52-4.75,1.56-6.65s2.44-3.38,4.2-4.42c1.77-1.05,3.72-1.58,5.87-1.58,1.7,0,3.22.33,4.57.98,1.35.65,2.49,1.54,3.43,2.67.93,1.13,1.57,2.42,1.92,3.85l-.88.55v-17.9h3.27v34.85h-3.27v-7.75l1.04.35c-.45,1.53-1.14,2.88-2.08,4.05-.93,1.17-2.08,2.08-3.43,2.73-1.35.65-2.87.98-4.57.98Zm.52-2.9c1.73,0,3.25-.43,4.57-1.28,1.31-.85,2.34-2.01,3.09-3.47.74-1.47,1.12-3.15,1.12-5.05s-.37-3.58-1.12-5.05c-.74-1.47-1.77-2.62-3.09-3.45-1.32-.83-2.84-1.25-4.57-1.25s-3.22.42-4.57,1.25c-1.35.83-2.41,1.98-3.17,3.45-.76,1.47-1.14,3.15-1.14,5.05s.38,3.58,1.14,5.05c.76,1.47,1.82,2.62,3.17,3.47,1.35.85,2.87,1.28,4.57,1.28Z"/>
  <text class="cls-1" transform="translate(579.66 42.61)"><tspan x="0" y="0" xml:space="preserve"> I li</tspan><tspan class="cls-3" x="61.5" y="0">r</tspan><tspan x="79.55" y="0">ë</tspan></text>
  <path class="cls-4" d="m634.74,99.69l5.55-14.9h3.63l-6.9,14.9h-2.28Z"/>
  <text class="cls-1" transform="translate(660.13 91.82)"><tspan class="cls-2" x="0" y="0">F</tspan><tspan class="cls-3" x="26.55" y="0">r</tspan><tspan x="44.6" y="0">ei,</tspan></text>
</svg>