<?xml version="1.0" encoding="utf-8"?>
<!-- Generator: Adobe Illustrator 27.9.4, SVG Export Plug-In . SVG Version: 9.03 Build 54784)  -->
<svg version="1.1" id="Layer_1" xmlns="http://www.w3.org/2000/svg" xmlns:xlink="http://www.w3.org/1999/xlink" x="0px" y="0px"
	 viewBox="0 0 112.6 19.4" style="enable-background:new 0 0 112.6 19.4;" xml:space="preserve">
<style type="text/css">
	.st0{opacity:0.99;enable-background:new    ;}
	.st1{fill:#1D1D1B;}
	.st2{fill:none;stroke:#000000;stroke-width:0.25;stroke-miterlimit:10;}
</style>
<path class="st0" d="M-428.4,194.1l-11-27.9h2.9l9.6,24.7h-0.6l9.5-24.7h2.9l-11,27.9C-426.3,194.1-428.4,194.1-428.4,194.1z"/>
<path class="st0" d="M-412.6,170.6v-4.3h3v4.3C-409.6,170.6-412.6,170.6-412.6,170.6z M-412.4,194.1v-19.7h2.5v19.7H-412.4z"/>
<path class="st0" d="M-387,194.4c-1.3,0-2.5-0.2-3.5-0.6c-1-0.4-2-0.9-2.7-1.6c-0.8-0.7-1.4-1.4-1.8-2.3l1.8-1.4
	c0.5,1.1,1.3,2,2.4,2.7c1.1,0.7,2.4,1.1,3.9,1.1c1.4,0,2.5-0.3,3.4-0.9c0.9-0.6,1.3-1.5,1.3-2.6c0-0.9-0.3-1.6-0.8-2.1
	s-1.2-0.9-2-1.2c-0.8-0.3-1.7-0.6-2.7-0.8c-0.8-0.2-1.5-0.4-2.2-0.7s-1.4-0.6-2-1c-0.6-0.4-1.1-0.9-1.4-1.5s-0.5-1.4-0.5-2.3
	c0-1.6,0.6-2.8,1.8-3.8c1.2-1,2.8-1.4,4.7-1.4c1.5,0,2.8,0.3,4,0.9c1.2,0.6,2.1,1.6,2.8,2.9l-1.6,1.2c-0.6-1-1.3-1.8-2.2-2.3
	c-0.9-0.5-1.9-0.7-3.1-0.7c-1.2,0-2.2,0.3-3,0.8c-0.8,0.5-1.2,1.2-1.2,2.2c0,0.7,0.2,1.2,0.6,1.6s0.9,0.8,1.6,1s1.5,0.5,2.4,0.7
	c0.9,0.2,1.7,0.4,2.5,0.7c0.8,0.3,1.6,0.6,2.3,1c0.7,0.4,1.3,1,1.7,1.7c0.4,0.7,0.6,1.6,0.6,2.6c0,1.2-0.3,2.2-0.9,3.1
	s-1.4,1.6-2.5,2.1C-384.3,194.2-385.5,194.4-387,194.4L-387,194.4z"/>
<path class="st0" d="M-366.7,194.4c-1.5,0-2.8-0.2-3.9-0.8s-2.1-1.2-2.8-2.1c-0.8-0.9-1.3-2-1.7-3.2c-0.4-1.2-0.6-2.5-0.6-3.9
	s0.2-2.7,0.6-4s0.9-2.3,1.7-3.3s1.6-1.7,2.7-2.2c1.1-0.5,2.3-0.8,3.7-0.8c1.5,0,2.8,0.3,3.9,0.8c1.1,0.5,2,1.2,2.6,2.1
	c0.7,0.9,1.2,1.9,1.5,2.9c0.3,1.1,0.5,2.1,0.5,3.2c0,0.2,0,0.5,0,0.8c0,0.4,0,0.6-0.1,0.9h-14.6c0,2.3,0.7,4,1.8,5.3
	s2.7,1.9,4.7,1.9c1.2,0,2.3-0.2,3.2-0.6c0.9-0.4,1.8-1,2.6-1.9l1.8,1.6c-0.8,0.8-1.5,1.4-2.3,1.9s-1.6,0.8-2.5,1
	S-365.7,194.4-366.7,194.4z M-361,183.7c0.1-0.2,0.1-0.4,0.1-0.7v-0.7c0-0.7-0.1-1.4-0.3-2.1c-0.2-0.7-0.6-1.4-1.1-2
	c-0.5-0.6-1.1-1.1-1.9-1.4c-0.8-0.4-1.7-0.6-2.8-0.6c-1.2,0-2.3,0.3-3.2,0.9c-0.9,0.6-1.6,1.4-2.1,2.4c-0.5,1-0.8,2.2-0.9,3.4h13
	L-361,183.7L-361,183.7z"/>
<path class="st0" d="M-347.2,194.4c-1.3,0-2.5-0.2-3.5-0.6c-1.1-0.4-2-0.9-2.7-1.6c-0.8-0.7-1.4-1.4-1.8-2.3l1.8-1.4
	c0.5,1.1,1.3,2,2.4,2.7s2.4,1.1,3.9,1.1c1.4,0,2.6-0.3,3.4-0.9c0.8-0.6,1.3-1.5,1.3-2.6c0-0.9-0.3-1.6-0.8-2.1
	c-0.5-0.5-1.2-0.9-2-1.2c-0.8-0.3-1.7-0.6-2.7-0.8c-0.8-0.2-1.5-0.4-2.2-0.7s-1.4-0.6-2-1s-1.1-0.9-1.4-1.5
	c-0.4-0.6-0.5-1.4-0.5-2.3c0-1.6,0.6-2.8,1.8-3.8c1.2-1,2.8-1.4,4.7-1.4c1.5,0,2.8,0.3,4,0.9c1.2,0.6,2.1,1.6,2.8,2.9l-1.6,1.2
	c-0.6-1-1.3-1.8-2.2-2.3c-0.9-0.5-1.9-0.7-3.1-0.7c-1.2,0-2.2,0.3-3,0.8s-1.2,1.2-1.2,2.2c0,0.7,0.2,1.2,0.6,1.6s0.9,0.8,1.6,1
	c0.7,0.3,1.5,0.5,2.4,0.7c0.8,0.2,1.7,0.4,2.5,0.7c0.8,0.3,1.6,0.6,2.3,1s1.3,1,1.7,1.7c0.4,0.7,0.6,1.6,0.6,2.6
	c0,1.2-0.3,2.2-0.9,3.1s-1.4,1.6-2.5,2.1S-345.8,194.4-347.2,194.4L-347.2,194.4z"/>
<path class="st0" d="M-336.8,200.4l4.3-11.9h2.8l-5.3,11.9C-335.1,200.4-336.8,200.4-336.8,200.4z"/>
<path class="st0" d="M-306.3,194.5c-2.7,0-4.9-0.7-6.7-2.1c-1.7-1.4-2.8-3.3-3.2-5.6l2.6-0.6c0.3,2,1.1,3.5,2.5,4.5s2.9,1.5,4.9,1.5
	c1.1,0,2.2-0.2,3.1-0.7c0.9-0.4,1.6-1.1,2.2-1.9s0.8-1.8,0.8-2.8c0-1.2-0.3-2.1-0.9-2.8c-0.6-0.7-1.4-1.3-2.4-1.8
	c-1-0.5-2.2-1-3.4-1.5c-1.4-0.6-2.7-1.2-3.9-1.8c-1.1-0.6-2.1-1.4-2.7-2.4c-0.6-0.9-1-2.1-1-3.5s0.3-2.6,1-3.7
	c0.7-1.1,1.6-1.9,2.8-2.5c1.2-0.6,2.6-0.9,4.2-0.9c1.7,0,3.2,0.4,4.5,1.2c1.3,0.8,2.4,1.9,3.2,3.4l-2.1,1.3c-0.6-1.1-1.4-2-2.4-2.6
	s-2.1-0.9-3.3-0.9c-1.1,0-2,0.2-2.8,0.6c-0.8,0.4-1.4,0.9-1.9,1.7c-0.5,0.7-0.7,1.5-0.7,2.4c0,1,0.3,1.8,0.8,2.4
	c0.5,0.7,1.3,1.2,2.2,1.7c1,0.5,2.1,1,3.4,1.4c1.5,0.6,2.9,1.2,4.1,1.9c1.2,0.7,2.1,1.5,2.8,2.5c0.7,1,1,2.2,1,3.7
	c0,1.6-0.4,2.9-1.1,4.1s-1.8,2.1-3.1,2.8C-303.1,194.2-304.6,194.5-306.3,194.5L-306.3,194.5z"/>
<path class="st0" d="M-284.5,194.4c-1.5,0-2.8-0.2-3.9-0.8c-1.1-0.5-2.1-1.2-2.8-2.1c-0.8-0.9-1.3-2-1.7-3.2
	c-0.4-1.2-0.6-2.5-0.6-3.9s0.2-2.7,0.6-4s0.9-2.3,1.7-3.3s1.6-1.7,2.7-2.2c1.1-0.5,2.3-0.8,3.7-0.8c1.5,0,2.8,0.3,3.9,0.8
	c1.1,0.5,2,1.2,2.6,2.1s1.2,1.9,1.5,2.9c0.3,1.1,0.5,2.1,0.5,3.2c0,0.2,0,0.5,0,0.8c0,0.4-0.1,0.6-0.1,0.9H-291c0,2.3,0.7,4,1.8,5.3
	s2.7,1.9,4.7,1.9c1.2,0,2.3-0.2,3.2-0.6c0.9-0.4,1.8-1,2.6-1.9l1.8,1.6c-0.8,0.8-1.5,1.4-2.3,1.9c-0.8,0.5-1.6,0.8-2.5,1
	C-282.5,194.3-283.4,194.4-284.5,194.4z M-278.8,183.7c0.1-0.2,0.1-0.4,0.1-0.7v-0.7c0-0.7-0.1-1.4-0.3-2.1c-0.2-0.7-0.6-1.4-1.1-2
	c-0.5-0.6-1.1-1.1-1.9-1.4c-0.8-0.4-1.7-0.6-2.8-0.6c-1.2,0-2.3,0.3-3.2,0.9c-0.9,0.6-1.6,1.4-2.1,2.4c-0.5,1-0.8,2.2-0.9,3.4h13
	C-278,183.1-278.8,183.7-278.8,183.7z"/>
<path class="st0" d="M-263,194.4c-1.5,0-2.8-0.2-3.9-0.8c-1.1-0.5-2.1-1.2-2.8-2.1c-0.8-0.9-1.3-2-1.7-3.2c-0.4-1.2-0.6-2.5-0.6-3.9
	s0.2-2.7,0.6-4s0.9-2.3,1.7-3.3s1.6-1.7,2.7-2.2c1.1-0.5,2.3-0.8,3.7-0.8c1.5,0,2.8,0.3,3.9,0.8c1.1,0.5,2,1.2,2.6,2.1
	s1.2,1.9,1.5,2.9c0.3,1.1,0.5,2.1,0.5,3.2c0,0.2,0,0.5,0,0.8c0,0.4-0.1,0.6-0.1,0.9h-14.6c0,2.3,0.7,4,1.8,5.3s2.7,1.9,4.7,1.9
	c1.2,0,2.3-0.2,3.2-0.6c0.9-0.4,1.8-1,2.6-1.9l1.8,1.6c-0.8,0.8-1.5,1.4-2.3,1.9c-0.8,0.5-1.6,0.8-2.5,1
	C-261.1,194.3-262,194.4-263,194.4z M-257.4,183.7c0.1-0.2,0.1-0.4,0.1-0.7v-0.7c0-0.7-0.1-1.4-0.3-2.1c-0.2-0.7-0.6-1.4-1.1-2
	c-0.5-0.6-1.1-1.1-1.9-1.4c-0.8-0.4-1.7-0.6-2.8-0.6c-1.2,0-2.3,0.3-3.2,0.9c-0.9,0.6-1.6,1.4-2.1,2.4c-0.5,1-0.8,2.2-0.9,3.4h13
	C-256.5,183.1-257.4,183.7-257.4,183.7z"/>
<path class="st0" d="M-237,202.3l3.6-8.8l-7.8-19.1h2.8l6.4,16.5l6.4-16.5h2.8l-11.4,27.8L-237,202.3L-237,202.3z"/>
<path class="st0" d="M-210.6,194.4c-1.8,0-3.4-0.4-4.9-1.3c-1.4-0.9-2.5-2.1-3.3-3.6s-1.2-3.3-1.2-5.3c0-2,0.4-3.7,1.2-5.2
	s1.9-2.7,3.3-3.6c1.4-0.9,3.1-1.3,4.9-1.3s3.5,0.4,4.9,1.3c1.4,0.9,2.5,2.1,3.3,3.6c0.8,1.5,1.2,3.3,1.2,5.2s-0.4,3.7-1.2,5.3
	s-1.9,2.7-3.3,3.6C-207.2,194-208.8,194.4-210.6,194.4L-210.6,194.4z M-210.6,192.2c1.4,0,2.6-0.3,3.6-1s1.8-1.6,2.4-2.8
	c0.6-1.2,0.8-2.6,0.8-4.1c0-1.6-0.3-3-0.8-4.2s-1.4-2.1-2.4-2.8c-1-0.7-2.2-1-3.6-1s-2.6,0.3-3.6,1s-1.9,1.6-2.4,2.8
	c-0.6,1.2-0.9,2.6-0.9,4.2c0,1.6,0.3,3,0.9,4.1c0.6,1.2,1.4,2.1,2.4,2.8S-212,192.2-210.6,192.2z"/>
<path class="st0" d="M-189.6,194.4c-1.4,0-2.6-0.3-3.6-0.9c-1-0.6-1.8-1.4-2.3-2.6s-0.8-2.6-0.8-4.3v-12.3h2.5v11.4
	c0,1.4,0.2,2.6,0.6,3.6c0.4,0.9,0.9,1.6,1.6,2.1s1.6,0.7,2.7,0.7c1.2,0,2.2-0.3,3-0.8c0.8-0.6,1.5-1.4,1.9-2.6
	c0.4-1.2,0.7-2.6,0.7-4.4v-10h2.5v19.7h-2.5v-4.6h0.6c-0.5,1.6-1.4,2.8-2.6,3.7C-186.6,194-188,194.4-189.6,194.4L-189.6,194.4z"/>
<path class="st0" d="M-176.7,200.4l4.3-11.9h2.8l-5.3,11.9H-176.7L-176.7,200.4z"/>
<path class="st0" d="M-156.8,194.1l10.4-27.9h2.2l10.3,27.9h-2.8l-8.6-24.2l-8.6,24.2H-156.8z M-151.7,187l0.8-2.4h11l0.9,2.4
	H-151.7z M-146.4,163.7l-4.9-5.6h2.7l4.2,5.6H-146.4z"/>
<path class="st0" d="M-110.1,194.4c-1.3,0-2.5-0.3-3.5-0.8s-1.9-1.2-2.7-2.2c-0.7-0.9-1.2-2-1.6-3.2l0.8-0.3v6.2h-2.5v-27.9h2.5
	v14.3l-0.7-0.4c0.3-1.2,0.8-2.2,1.5-3.1c0.7-0.9,1.6-1.6,2.6-2.2s2.2-0.8,3.5-0.8c1.7,0,3.2,0.4,4.5,1.3c1.4,0.8,2.4,2,3.2,3.5
	s1.2,3.3,1.2,5.3c0,1.9-0.4,3.7-1.1,5.2s-1.8,2.8-3.2,3.6S-108.3,194.4-110.1,194.4z M-110.5,192.1c1.3,0,2.5-0.3,3.5-1
	c1-0.7,1.8-1.6,2.4-2.8c0.6-1.2,0.9-2.5,0.9-4c0-1.5-0.3-2.9-0.9-4s-1.4-2.1-2.4-2.8c-1-0.7-2.2-1-3.5-1s-2.5,0.3-3.5,1
	c-1,0.7-1.8,1.6-2.4,2.8s-0.9,2.5-0.9,4c0,1.5,0.3,2.9,0.9,4c0.6,1.2,1.4,2.1,2.4,2.8C-113,191.8-111.8,192.1-110.5,192.1z"/>
<path class="st0" d="M-96.1,170.6v-4.3h3v4.3H-96.1z M-95.8,194.1v-19.7h2.5v19.7H-95.8z"/>
<path class="st0" d="M-79,194.4c-1.5,0-2.8-0.2-3.9-0.8s-2.1-1.2-2.8-2.1c-0.8-0.9-1.3-2-1.7-3.2c-0.4-1.2-0.6-2.5-0.6-3.9
	s0.2-2.7,0.6-4s0.9-2.3,1.7-3.3s1.6-1.7,2.7-2.2s2.3-0.8,3.7-0.8c1.5,0,2.8,0.3,3.9,0.8c1.1,0.5,2,1.2,2.6,2.1
	c0.7,0.9,1.2,1.9,1.5,2.9c0.3,1.1,0.5,2.1,0.5,3.2c0,0.2,0,0.5,0,0.8c0,0.4,0,0.6-0.1,0.9h-14.6c0,2.3,0.7,4,1.8,5.3
	s2.7,1.9,4.7,1.9c1.2,0,2.3-0.2,3.2-0.6s1.8-1,2.6-1.9l1.8,1.6c-0.8,0.8-1.5,1.4-2.3,1.9s-1.6,0.8-2.5,1S-78,194.4-79,194.4z
	 M-73.3,183.7c0-0.2,0.1-0.4,0.1-0.7v-0.7c0-0.7-0.1-1.4-0.3-2.1s-0.6-1.4-1.1-2c-0.5-0.6-1.1-1.1-1.9-1.4c-0.8-0.4-1.7-0.6-2.8-0.6
	c-1.2,0-2.3,0.3-3.2,0.9s-1.6,1.4-2.1,2.4c-0.5,1-0.8,2.2-0.9,3.4h13L-73.3,183.7L-73.3,183.7z"/>
<path class="st0" d="M-65.6,194.1v-19.7h2.6v4.6l-0.6,0.2c0.4-1.1,0.8-2,1.5-2.8s1.4-1.3,2.3-1.7c0.9-0.4,1.9-0.6,3-0.6
	c2.1,0,3.8,0.6,5,1.9c1.2,1.3,1.8,3.2,1.8,5.8v12.3h-2.5v-11.4c0-2.2-0.4-3.8-1.2-4.8c-0.8-1-2-1.6-3.7-1.6c-1.1,0-2.1,0.3-2.9,0.8
	s-1.5,1.4-1.9,2.6c-0.5,1.2-0.7,2.7-0.7,4.6v9.8H-65.6z"/>
<path class="st0" d="M-47.1,176.4v-2h11.6v2H-47.1z M-38.4,194.4c-0.9,0-1.6-0.2-2.3-0.5c-0.7-0.3-1.2-0.9-1.5-1.6
	c-0.4-0.7-0.5-1.7-0.5-2.8v-20.7l2.6-1.5v21.6c0,1.1,0.2,1.9,0.5,2.5c0.4,0.6,1,0.9,1.9,0.9c0.3,0,0.7,0,1-0.1
	c0.4-0.1,0.8-0.2,1.2-0.3v2c-0.5,0.2-1,0.3-1.4,0.4S-37.9,194.4-38.4,194.4z"/>
<path class="st0" d="M-23.1,194.4c-1.8,0-3.4-0.4-4.9-1.3c-1.4-0.9-2.5-2.1-3.3-3.6s-1.2-3.3-1.2-5.3c0-2,0.4-3.7,1.2-5.2
	c0.8-1.5,1.9-2.7,3.3-3.6s3.1-1.3,4.9-1.3s3.5,0.4,4.9,1.3c1.4,0.9,2.5,2.1,3.3,3.6s1.2,3.3,1.2,5.2s-0.4,3.7-1.2,5.3
	s-1.9,2.7-3.3,3.6C-19.7,194-21.3,194.4-23.1,194.4z M-23.1,192.2c1.4,0,2.6-0.3,3.6-1s1.8-1.6,2.4-2.8c0.6-1.2,0.8-2.6,0.8-4.1
	c0-1.6-0.3-3-0.8-4.2s-1.4-2.1-2.4-2.8c-1-0.7-2.2-1-3.6-1s-2.6,0.3-3.6,1s-1.9,1.6-2.4,2.8s-0.9,2.6-0.9,4.2c0,1.6,0.3,3,0.9,4.1
	c0.6,1.2,1.4,2.1,2.4,2.8S-24.5,192.2-23.1,192.2z M-29,172.1l5.9-6.2l5.9,6.2h-2.1l-3.8-4l-3.8,4H-29L-29,172.1z"/>
<path class="st0" d="M-11.9,176.4v-2h11.6v2H-11.9z M-3.1,194.4c-0.9,0-1.6-0.2-2.3-0.5c-0.7-0.3-1.2-0.9-1.5-1.6
	c-0.4-0.7-0.5-1.7-0.5-2.8v-20.7l2.6-1.5v21.6c0,1.1,0.2,1.9,0.5,2.5c0.4,0.6,1,0.9,1.9,0.9c0.3,0,0.7,0,1-0.1
	c0.4-0.1,0.8-0.2,1.2-0.3v2c-0.5,0.2-1,0.3-1.4,0.4S-2.7,194.4-3.1,194.4z"/>
<path class="st0" d="M2.2,200.4l4.3-11.9h2.8l-5.3,11.9H2.2L2.2,200.4z"/>
<path class="st0" d="M29.7,162.2c-0.1,0.5-0.4,0.8-1.2,0.9c-0.3,4.6-0.7,15.2-0.7,21.2s3,8.8,8,8.8s9.8-2.4,14.4-7.6
	c0.4,0.6,1.3,1.9,1.8,2.4c-4.7,5.3-10.4,8.1-16.2,8.1c-7.3,0-11-4.2-11-11.8c0-5,0.4-17.4,0.6-22.4
	C25.3,161.9,29.7,162.2,29.7,162.2z M40.5,166.4c1.9,1.4,4.2,3.8,5.4,5.5l-1.5,1.2c-1.2-1.7-3.6-4.2-5.4-5.5
	C39.1,167.7,40.5,166.4,40.5,166.4z M45.4,162.8c1.9,1.4,4.3,3.8,5.5,5.4l-1.5,1.3c-1.1-1.6-3.4-4-5.3-5.5
	C44,164,45.4,162.8,45.4,162.8z"/>
<path class="st0" d="M55.5,180.5c2-0.6,5.2-1.8,7.4-2.6c-1-3.2-1.8-6.2-2.4-8l3.4-0.6c0,0.4-0.2,0.6-0.7,0.9c0.7,2.5,1.2,4.5,1.9,7
	c3.6-1.3,7-2.3,9.2-2.7c-1.5-1.6-4-3.7-5.7-4.8l1.5-1.5c2.2,1.2,5,3.6,6.5,5.4l-1,0.8c0.4,0,0.7,0,1,0c3.4,0.1,6.9,1.9,6.9,6.4
	s-3.4,6.7-7.1,6.7c-2.2,0-4.5-0.6-6.7-2.4c0.2-0.4,0.6-1.3,0.8-1.9c1.8,1.4,4,2.1,5.7,2.1c2.8,0,4.8-1.3,4.8-4.4
	c0-2.6-2-4.2-4.7-4.2s-6.6,1.3-10.7,2.8c1.5,5.1,3.6,12.2,4.9,17l-2.6,0.6c-1-4.6-3.2-12-4.6-16.7c-1.9,0.7-4.8,1.8-6.4,2.4
	c0,0.3-0.2,0.6-0.6,0.8L55.5,180.5L55.5,180.5z"/>
<path class="st0" d="M113.5,173.5c-0.1,0.5-0.2,1-0.4,1.5c7,1.2,9.6,5.6,9.6,10.4c0,6.4-5.4,10.2-15.4,11.3
	c-0.2-0.6-0.7-1.8-1.1-2.4c8.3-0.8,13.6-3.7,13.6-8.8v-0.3c-0.2-4.6-3.3-6.9-7.6-7.6c-1.7,4.5-4.6,8.7-8,11.8c0.3,0.8,0.6,1.6,1,2.2
	l-2.4,1.5c-0.4-0.6-0.7-1.2-1-2c-3.2,2.4-5.8,3-7.6,3c-3.2,0-4.8-2.4-4.8-5.3c0-5.5,4.6-9.9,10.4-12.2c-0.1-2.1-0.1-4.4,0-6.7
	c-6.8,0-7.5,0-8.8-0.1l-0.1-2.6c2,0.1,5.5,0.1,9,0.1c0-1.8,0.1-4.1,0.2-6l4,0.3c0,0.4-0.4,0.7-1,0.8c-0.1,1.5-0.2,3.3-0.3,4.8
	c4.4-0.1,12-0.6,16-1.7l0.4,2.7c-4.2,1-12,1.4-16.5,1.6c-0.1,2.1-0.1,4.1-0.1,6c2.8-0.9,5.3-0.9,6-0.9c0.6,0,1.1,0,1.6,0
	c0.2-0.6,0.3-1.2,0.4-1.9L113.5,173.5L113.5,173.5z M101.3,188.4c-0.6-2.5-1-5.6-1.2-9.4c-4.4,1.9-7.8,5.2-7.8,9.1
	c0,2.4,1.3,3.2,2.8,3.1C97,191.2,99.1,190.1,101.3,188.4z M109.5,177.2c-0.6,0-3.8-0.1-6.8,1c0.1,3.2,0.4,6,0.9,8.2
	C106,183.9,108.2,180.7,109.5,177.2z"/>
<path class="st0" d="M-437.6,217c3,0,5.7,0,7.9-0.5c0-1,0.2-6,0.2-7.2l4,0.4c0,0.4-0.4,0.7-1.1,0.8c-0.2,1.7-0.2,3.7-0.3,5.6
	l1.6,0.6c-0.7,1.3-1.3,3.4-1.9,5.4c0,0.5,0,1.1,0,1.6c4.1-3.6,9.1-5.8,13.4-5.8c6,0,9,4.1,9,11.6c0,2.6-0.3,5-1,7.1
	c1.2,1,2.5,2.4,3.5,3.5l-1.8,2.4c-0.7-0.9-1.9-2.1-3-3.1c-1.6,2.7-3.9,4.6-8,4.6c-3.8,0-6.5-2.4-6.5-5.5c0-3.3,2.9-5.6,6.6-5.6
	c2.5,0,4.8,0.8,6.8,2.1c0.5-1.6,0.7-3.5,0.7-5.5c0-5.4-2.1-8.9-6.5-8.9c-3.7,0-8.8,2.2-13.1,6.2c0,2.6,0,15.4,0,18.3h-2.8
	c0-3.5,0.1-12,0.1-17h0c-1,2.3-3.4,6.4-6.8,10.1l-1.7-2.5c3.6-3.6,6.5-8.2,8.5-13.1l0.1-3.2c-1.5,0.2-4.3,0.4-7.8,0.4
	C-437.6,219.7-437.6,217-437.6,217z M-409.2,237.2c-1.8-1.4-4-2.3-6-2.3c-2.2,0-4.2,1.3-4.2,3.2c0,2,2,3.3,4.2,3.3
	C-411.6,241.4-409.9,238.9-409.2,237.2z"/>
<path class="st0" d="M-383.7,236.9c-1,3.7-3,8.7-4,10.6l-2.4,0.3c0.9-2.4,2.1-7.3,2.6-10.4C-387.6,237.3-383.7,236.9-383.7,236.9z"
	/>
<path class="st0" d="M-370.9,242.1l10.4-27.9h2.2l10.3,27.9h-2.8l-8.6-24.2l-8.6,24.2C-368,242.1-370.9,242.1-370.9,242.1z
	 M-365.8,235l0.8-2.4h11l0.9,2.4C-353.1,235-365.8,235-365.8,235z"/>
<path class="st0" d="M-333.6,250.3v-27.9h2.5v6.2l-0.8-0.6c0.4-1.2,0.9-2.3,1.6-3.2c0.7-0.9,1.6-1.6,2.6-2s2.2-0.7,3.5-0.7
	c1.8,0,3.3,0.4,4.7,1.3c1.3,0.9,2.4,2.1,3.2,3.6c0.8,1.5,1.1,3.2,1.1,5.2s-0.4,3.8-1.2,5.3c-0.8,1.5-1.9,2.7-3.2,3.6
	c-1.4,0.8-2.9,1.3-4.5,1.3c-1.3,0-2.5-0.2-3.5-0.7c-1.1-0.5-1.9-1.2-2.6-2.1c-0.7-0.9-1.2-1.9-1.5-3l0.7-0.6v14.3L-333.6,250.3
	L-333.6,250.3z M-324.5,240.1c1.3,0,2.5-0.3,3.5-1s1.8-1.6,2.4-2.8s0.9-2.5,0.9-4s-0.3-2.9-0.9-4s-1.4-2.1-2.4-2.8
	c-1-0.7-2.2-1-3.5-1c-1.3,0-2.5,0.3-3.5,1c-1,0.7-1.8,1.6-2.4,2.8c-0.6,1.2-0.9,2.5-0.9,4s0.3,2.9,0.9,4c0.6,1.2,1.4,2.1,2.4,2.8
	C-327,239.8-325.9,240.1-324.5,240.1z"/>
<path class="st0" d="M-309.9,242.1v-19.7h2.6v5.2l-0.6,0.1c0.2-1.2,0.7-2.2,1.4-3.1s1.6-1.5,2.5-1.9c1-0.4,1.9-0.7,2.8-0.7
	c0.5,0,1.1,0.1,1.6,0.2c0.5,0.1,1.1,0.3,1.6,0.6l-1.2,2.3c-0.4-0.2-0.7-0.3-1.2-0.4s-0.8-0.2-1.2-0.2c-0.7,0-1.4,0.1-2.1,0.4
	s-1.3,0.7-1.9,1.3c-0.6,0.6-1,1.3-1.3,2.3c-0.1,0.4-0.2,0.9-0.3,1.5c-0.1,0.6-0.1,1.4-0.1,2.4v9.6H-309.9L-309.9,242.1z"/>
<path class="st0" d="M-287.3,242.4c-1.5,0-2.8-0.2-3.9-0.8c-1.1-0.5-2.1-1.2-2.8-2.1s-1.3-2-1.7-3.2c-0.4-1.2-0.6-2.5-0.6-3.9
	s0.2-2.7,0.6-4s0.9-2.3,1.7-3.3s1.6-1.7,2.7-2.2c1.1-0.5,2.3-0.8,3.7-0.8c1.5,0,2.8,0.3,3.9,0.8c1.1,0.5,2,1.2,2.6,2.1
	s1.2,1.9,1.5,2.9c0.3,1.1,0.5,2.2,0.5,3.2c0,0.2,0,0.5,0,0.8c0,0.3-0.1,0.6-0.1,0.9h-14.6c0,2.3,0.7,4,1.8,5.3s2.7,1.9,4.7,1.9
	c1.2,0,2.3-0.2,3.2-0.6c0.9-0.4,1.8-1,2.6-1.9l1.8,1.6c-0.8,0.8-1.5,1.4-2.3,1.9c-0.8,0.5-1.6,0.8-2.5,1
	C-285.3,242.3-286.3,242.4-287.3,242.4L-287.3,242.4z M-281.6,231.7c0.1-0.2,0.1-0.4,0.1-0.7v-0.7c0-0.7-0.1-1.4-0.3-2.1
	c-0.2-0.7-0.6-1.4-1.1-2c-0.5-0.6-1.1-1.1-1.9-1.4c-0.8-0.4-1.7-0.6-2.8-0.6c-1.2,0-2.3,0.3-3.2,0.9c-0.9,0.6-1.6,1.4-2.1,2.4
	c-0.5,1-0.8,2.2-0.9,3.4h13C-280.8,231.1-281.6,231.7-281.6,231.7z"/>
<path class="st0" d="M-267.8,242.4c-1.3,0-2.5-0.2-3.5-0.6c-1-0.4-2-0.9-2.7-1.6c-0.8-0.7-1.4-1.4-1.8-2.3l1.8-1.4
	c0.5,1.1,1.3,2,2.4,2.7c1.1,0.7,2.4,1.1,3.9,1.1c1.4,0,2.6-0.3,3.4-0.9c0.9-0.6,1.3-1.5,1.3-2.6c0-0.9-0.3-1.6-0.8-2.1
	c-0.5-0.5-1.2-0.9-2-1.2c-0.8-0.3-1.7-0.6-2.7-0.8c-0.8-0.2-1.5-0.4-2.2-0.7s-1.4-0.6-2-1s-1.1-0.9-1.4-1.5
	c-0.4-0.6-0.5-1.4-0.5-2.3c0-1.6,0.6-2.8,1.8-3.8c1.2-1,2.8-1.4,4.7-1.4c1.5,0,2.8,0.3,4,0.9c1.2,0.6,2.1,1.6,2.8,2.9l-1.6,1.2
	c-0.6-1-1.3-1.8-2.2-2.3c-0.9-0.5-1.9-0.7-3.1-0.7c-1.2,0-2.2,0.3-3,0.8c-0.8,0.5-1.2,1.2-1.2,2.2c0,0.7,0.2,1.2,0.6,1.6
	s0.9,0.8,1.6,1c0.7,0.3,1.5,0.5,2.4,0.7c0.9,0.2,1.7,0.4,2.5,0.7c0.8,0.3,1.6,0.6,2.3,1c0.7,0.4,1.3,1,1.7,1.7s0.6,1.6,0.6,2.6
	c0,1.2-0.3,2.2-0.9,3.1s-1.4,1.6-2.5,2.1C-265.1,242.2-266.4,242.4-267.8,242.4L-267.8,242.4z"/>
<path class="st0" d="M-258.4,224.4v-2h11.6v2H-258.4z M-249.6,242.4c-0.9,0-1.6-0.2-2.3-0.5c-0.7-0.4-1.2-0.9-1.5-1.6
	c-0.4-0.7-0.5-1.7-0.5-2.8v-20.7l2.6-1.5v21.6c0,1.1,0.2,1.9,0.5,2.5c0.4,0.6,1,0.9,1.9,0.9c0.3,0,0.7,0,1-0.1
	c0.4-0.1,0.8-0.2,1.2-0.3v2c-0.5,0.2-1,0.3-1.4,0.4S-249.2,242.4-249.6,242.4L-249.6,242.4z"/>
<path class="st0" d="M-234.4,242.4c-1.8,0-3.4-0.4-4.9-1.3c-1.4-0.9-2.5-2.1-3.3-3.6s-1.2-3.3-1.2-5.3s0.4-3.7,1.2-5.2
	c0.8-1.5,1.9-2.7,3.3-3.6c1.4-0.9,3.1-1.3,4.9-1.3s3.5,0.4,4.9,1.3c1.4,0.9,2.5,2.1,3.3,3.6c0.8,1.5,1.2,3.3,1.2,5.2
	s-0.4,3.7-1.2,5.3s-1.9,2.7-3.3,3.6C-230.9,242-232.6,242.4-234.4,242.4L-234.4,242.4z M-234.4,240.2c1.4,0,2.6-0.3,3.6-1
	s1.8-1.6,2.4-2.8s0.8-2.6,0.8-4.1c0-1.6-0.3-3-0.8-4.2s-1.4-2.1-2.4-2.8c-1-0.7-2.2-1-3.6-1s-2.6,0.3-3.6,1s-1.9,1.6-2.4,2.8
	c-0.6,1.2-0.9,2.6-0.9,4.2c0,1.6,0.3,2.9,0.9,4.1s1.4,2.1,2.4,2.8S-235.8,240.2-234.4,240.2z"/>
<path class="st0" d="M-221.8,248.4l4.3-11.9h2.8l-5.3,11.9H-221.8z"/>
<path class="st0" d="M-199.5,242.1v-27.9h8.4c2.6,0,4.6,0.6,6.1,1.8s2.2,2.9,2.2,5.1c0,1.4-0.3,2.7-1,3.8c-0.7,1.1-1.6,1.9-2.8,2.4
	c1.7,0.4,3,1.2,3.9,2.4c0.9,1.2,1.3,2.8,1.3,4.7c0,2.5-0.8,4.4-2.3,5.7s-3.7,2-6.6,2H-199.5z M-196.9,226.5h6.6
	c1.5,0,2.7-0.4,3.6-1.4s1.4-2.1,1.4-3.6c0-1.5-0.5-2.7-1.5-3.6c-1-0.9-2.4-1.3-4.2-1.3h-5.8C-196.9,216.7-196.9,226.5-196.9,226.5z
	 M-196.9,239.7h6.5c4.3,0,6.4-1.8,6.4-5.4c0-1.7-0.5-3-1.4-4c-1-0.9-2.3-1.4-4-1.4h-7.5L-196.9,239.7L-196.9,239.7z"/>
<path class="st0" d="M-176.6,218.6v-4.3h3v4.3H-176.6z M-176.3,242.1v-19.7h2.5v19.7H-176.3z"/>
<path class="st0" d="M-161.3,242.4c-1.3,0-2.5-0.2-3.5-0.6c-1-0.4-2-0.9-2.7-1.6c-0.8-0.7-1.4-1.4-1.8-2.3l1.8-1.4
	c0.5,1.1,1.3,2,2.4,2.7c1.1,0.7,2.4,1.1,3.9,1.1c1.4,0,2.5-0.3,3.4-0.9s1.3-1.5,1.3-2.6c0-0.9-0.3-1.6-0.8-2.1
	c-0.5-0.5-1.2-0.9-2-1.2c-0.8-0.3-1.7-0.6-2.7-0.8c-0.8-0.2-1.5-0.4-2.2-0.7s-1.4-0.6-2-1c-0.6-0.4-1.1-0.9-1.4-1.5
	s-0.5-1.4-0.5-2.3c0-1.6,0.6-2.8,1.8-3.8c1.2-1,2.8-1.4,4.7-1.4c1.5,0,2.8,0.3,4,0.9c1.2,0.6,2.1,1.6,2.8,2.9l-1.6,1.2
	c-0.6-1-1.3-1.8-2.2-2.3s-1.9-0.7-3.1-0.7c-1.2,0-2.2,0.3-3,0.8s-1.2,1.2-1.2,2.2c0,0.7,0.2,1.2,0.6,1.6s0.9,0.8,1.6,1
	c0.7,0.3,1.5,0.5,2.4,0.7c0.9,0.2,1.7,0.4,2.5,0.7c0.8,0.3,1.6,0.6,2.3,1c0.7,0.4,1.3,1,1.7,1.7s0.6,1.6,0.6,2.6
	c0,1.2-0.3,2.2-0.9,3.1s-1.4,1.6-2.5,2.1C-158.6,242.2-159.9,242.4-161.3,242.4L-161.3,242.4z"/>
<path class="st0" d="M-129.1,242.4c-1.3,0-2.5-0.3-3.5-0.8c-1-0.5-1.9-1.2-2.7-2.2c-0.7-0.9-1.2-2-1.6-3.2l0.8-0.3v6.2h-2.5v-27.9
	h2.5v14.3l-0.7-0.4c0.3-1.2,0.8-2.2,1.5-3.1s1.6-1.6,2.6-2.2s2.2-0.8,3.5-0.8c1.7,0,3.2,0.4,4.5,1.3s2.4,2,3.2,3.5
	c0.8,1.5,1.2,3.3,1.2,5.3c0,1.9-0.4,3.7-1.1,5.2s-1.8,2.8-3.2,3.6S-127.3,242.4-129.1,242.4z M-129.5,240.1c1.3,0,2.5-0.3,3.5-1
	c1-0.7,1.8-1.6,2.4-2.8c0.6-1.2,0.9-2.5,0.9-4s-0.3-2.9-0.9-4s-1.4-2.1-2.4-2.8s-2.2-1-3.5-1s-2.5,0.3-3.5,1c-1,0.7-1.8,1.6-2.4,2.8
	s-0.9,2.5-0.9,4s0.3,2.9,0.9,4c0.6,1.2,1.4,2.1,2.4,2.8C-132,239.8-130.8,240.1-129.5,240.1z"/>
<path class="st0" d="M-108.8,242.4c-1.5,0-2.7-0.2-3.8-0.8c-1.1-0.5-1.9-1.2-2.5-2.1s-0.9-1.9-0.9-3.1c0-1.1,0.2-2,0.6-2.7
	s1-1.3,1.6-1.7c0.7-0.5,1.5-0.8,2.5-1c0.9-0.2,1.9-0.3,3-0.3h6.5v1.9h-6.2c-0.8,0-1.5,0.1-2.3,0.2c-0.7,0.1-1.4,0.4-1.9,0.8
	c-0.4,0.3-0.8,0.7-1,1.1s-0.3,1-0.3,1.7c0,1.2,0.4,2.1,1.3,2.9c0.9,0.7,2,1.1,3.5,1.1c1.2,0,2.3-0.3,3.3-0.9c1-0.6,1.8-1.4,2.4-2.4
	s0.9-2.1,0.9-3.4l1.1,1.2c-0.1,1.5-0.6,2.8-1.3,4c-0.7,1.2-1.6,2-2.8,2.6S-107.5,242.4-108.8,242.4L-108.8,242.4z M-101.9,242.1
	l-0.2-4.5v-7.8c0-1.8-0.5-3.2-1.4-4.1c-0.9-0.9-2.3-1.4-4.1-1.4c-1.2,0-2.2,0.2-3.2,0.7s-1.9,1.3-2.8,2.4l-1.8-1.6
	c1.1-1.3,2.3-2.2,3.6-2.8c1.3-0.6,2.8-0.9,4.5-0.9c2.5,0,4.4,0.7,5.8,2c1.4,1.3,2,3.2,2,5.7v12.3L-101.9,242.1L-101.9,242.1z"/>
<path class="st0" d="M-90,242.4c-1.1,0-2-0.3-2.7-1.1c-0.7-0.7-1-1.8-1-3.4v-23.7h2.5v23.3c0,0.9,0.2,1.6,0.5,2
	c0.4,0.4,0.8,0.6,1.4,0.6c0.3,0,0.6,0,0.9-0.1c0.3-0.1,0.6-0.1,1-0.3v2.2c-0.5,0.2-0.9,0.3-1.4,0.4S-89.6,242.4-90,242.4L-90,242.4z
	"/>
<path class="st0" d="M-75.2,242.4c-1.8,0-3.3-0.4-4.7-1.3s-2.4-2.1-3.2-3.6s-1.1-3.3-1.1-5.2c0-2,0.4-3.8,1.2-5.3
	c0.8-1.5,1.9-2.7,3.2-3.5s2.9-1.3,4.5-1.3c1.3,0,2.5,0.3,3.5,0.8c1,0.5,1.9,1.2,2.6,2.1c0.7,0.9,1.2,1.9,1.5,3.1l-0.7,0.4v-14.3h2.5
	v27.9h-2.5v-6.2l0.8,0.3c-0.4,1.2-0.9,2.3-1.6,3.2c-0.7,0.9-1.6,1.7-2.6,2.2C-72.7,242.2-73.9,242.4-75.2,242.4L-75.2,242.4z
	 M-74.8,240.1c1.3,0,2.5-0.3,3.5-1c1-0.7,1.8-1.6,2.4-2.8s0.9-2.5,0.9-4s-0.3-2.9-0.9-4c-0.6-1.2-1.4-2.1-2.4-2.8s-2.2-1-3.5-1
	s-2.5,0.3-3.5,1c-1,0.7-1.9,1.6-2.4,2.8s-0.9,2.5-0.9,4s0.3,2.9,0.9,4s1.4,2.1,2.4,2.8C-77.3,239.8-76.1,240.1-74.8,240.1z"/>
<path class="st0" d="M-61.5,248.4l4.3-11.9h2.8l-5.3,11.9H-61.5L-61.5,248.4z"/>
<path class="st0" d="M-39.2,242.1v-27.9h2.8l15,24.5h-0.5v-24.5h2.6v27.9h-2.9l-14.9-24.6h0.5v24.6H-39.2L-39.2,242.1z"/>
<path class="st0" d="M-4.3,242.4c-1.8,0-3.4-0.4-4.9-1.3c-1.4-0.9-2.5-2.1-3.3-3.6s-1.2-3.3-1.2-5.3s0.4-3.7,1.2-5.2
	c0.8-1.5,1.9-2.7,3.3-3.6c1.4-0.9,3.1-1.3,4.9-1.3s3.5,0.4,4.9,1.3c1.4,0.9,2.5,2.1,3.3,3.6c0.8,1.5,1.2,3.3,1.2,5.2
	s-0.4,3.7-1.2,5.3s-1.9,2.7-3.3,3.6C-0.9,242-2.5,242.4-4.3,242.4z M-4.3,240.2c1.4,0,2.6-0.3,3.6-1s1.8-1.6,2.4-2.8
	s0.8-2.6,0.8-4.1c0-1.6-0.3-3-0.8-4.2s-1.4-2.1-2.4-2.8c-1-0.7-2.2-1-3.6-1s-2.6,0.3-3.6,1s-1.9,1.6-2.4,2.8
	c-0.6,1.2-0.9,2.6-0.9,4.2c0,1.6,0.3,2.9,0.9,4.1c0.6,1.2,1.4,2.1,2.4,2.8S-5.7,240.2-4.3,240.2z"/>
<path class="st0" d="M16.3,242.4c-1.3,0-2.5-0.2-3.5-0.6c-1-0.4-2-0.9-2.7-1.6c-0.8-0.7-1.4-1.4-1.8-2.3l1.8-1.4
	c0.5,1.1,1.3,2,2.4,2.7c1.1,0.7,2.4,1.1,3.9,1.1c1.4,0,2.5-0.3,3.4-0.9s1.3-1.5,1.3-2.6c0-0.9-0.3-1.6-0.8-2.1
	c-0.5-0.5-1.2-0.9-2-1.2c-0.8-0.3-1.7-0.6-2.7-0.8c-0.8-0.2-1.5-0.4-2.2-0.7s-1.4-0.6-2-1c-0.6-0.4-1.1-0.9-1.4-1.5
	s-0.5-1.4-0.5-2.3c0-1.6,0.6-2.8,1.8-3.8c1.2-1,2.8-1.4,4.7-1.4c1.5,0,2.8,0.3,4,0.9c1.2,0.6,2.1,1.6,2.8,2.9l-1.6,1.2
	c-0.6-1-1.3-1.8-2.2-2.3s-1.9-0.7-3.1-0.7c-1.2,0-2.2,0.3-3,0.8s-1.2,1.2-1.2,2.2c0,0.7,0.2,1.2,0.6,1.6s0.9,0.8,1.6,1
	c0.7,0.3,1.5,0.5,2.4,0.7c0.9,0.2,1.7,0.4,2.5,0.7c0.8,0.3,1.6,0.6,2.3,1c0.7,0.4,1.3,1,1.7,1.7s0.6,1.6,0.6,2.6
	c0,1.2-0.3,2.2-0.9,3.1s-1.4,1.6-2.5,2.1C19,242.2,17.7,242.4,16.3,242.4L16.3,242.4z"/>
<path class="st0" d="M-431.1,290.1l-8.1-19.7h2.8l6.4,16.5l6.4-16.5h2.8l-8,19.7H-431.1z"/>
<path class="st0" d="M-409.1,290.4c-1.5,0-2.8-0.2-3.9-0.8c-1.1-0.5-2.1-1.2-2.8-2.1c-0.8-0.9-1.3-2-1.7-3.2
	c-0.4-1.2-0.6-2.5-0.6-3.9c0-1.4,0.2-2.7,0.6-4s0.9-2.3,1.7-3.3c0.7-1,1.6-1.7,2.7-2.2c1.1-0.5,2.3-0.8,3.7-0.8
	c1.5,0,2.8,0.3,3.9,0.8c1.1,0.5,2,1.2,2.6,2.1c0.7,0.9,1.2,1.9,1.5,2.9c0.3,1.1,0.5,2.1,0.5,3.2c0,0.2,0,0.5,0,0.8
	c0,0.4-0.1,0.6-0.1,0.9h-14.6c0.1,2.3,0.7,4,1.8,5.3s2.7,1.9,4.7,1.9c1.2,0,2.3-0.2,3.2-0.6c0.9-0.4,1.8-1,2.6-1.9l1.8,1.6
	c-0.8,0.8-1.5,1.4-2.3,1.9c-0.8,0.5-1.6,0.8-2.5,1C-407.1,290.3-408,290.4-409.1,290.4L-409.1,290.4z M-403.4,279.7
	c0-0.2,0.1-0.4,0.1-0.7v-0.7c0-0.7-0.1-1.4-0.3-2.1c-0.2-0.7-0.6-1.4-1.1-2s-1.1-1.1-1.9-1.4c-0.8-0.4-1.7-0.6-2.8-0.6
	c-1.2,0-2.3,0.3-3.2,0.9c-0.9,0.6-1.6,1.4-2.1,2.4c-0.5,1-0.8,2.2-0.9,3.4h13C-402.6,279.1-403.4,279.7-403.4,279.7z"/>
<path class="st0" d="M-395.6,290.1v-19.7h2.6v5.1h-0.5c0.2-0.9,0.6-1.7,1-2.4c0.4-0.7,0.9-1.2,1.4-1.7s1.2-0.8,1.8-1
	c0.6-0.2,1.3-0.3,2.1-0.3c1.2,0,2.2,0.2,3.1,0.7c0.9,0.4,1.6,1.1,2.2,2s1,2.1,1.2,3.5l-1.4,0.1c0.4-1.4,0.9-2.5,1.5-3.4
	c0.6-0.9,1.4-1.6,2.3-2.1s2-0.7,3.2-0.7c1.6,0,2.9,0.4,3.8,1.1c1,0.7,1.7,1.7,2.1,2.9s0.6,2.6,0.6,4.2v11.8h-2.5v-11.2
	c0-1.4-0.1-2.5-0.4-3.5c-0.3-1-0.8-1.8-1.4-2.3c-0.7-0.5-1.6-0.8-2.7-0.8c-1,0-1.9,0.3-2.6,0.8s-1.4,1.3-1.8,2.4
	c-0.4,1.1-0.6,2.4-0.6,4v10.6h-2.6v-11.6c0-2.1-0.4-3.7-1.1-4.7c-0.8-1-1.9-1.5-3.4-1.5c-1,0-1.9,0.3-2.6,0.8s-1.4,1.4-1.8,2.4
	c-0.4,1.1-0.6,2.5-0.6,4.2v10.4H-395.6L-395.6,290.1z"/>
<path class="st0" d="M-354.5,290.4c-1.8,0-3.4-0.4-4.9-1.3s-2.5-2.1-3.3-3.6s-1.2-3.3-1.2-5.3s0.4-3.7,1.2-5.2s1.9-2.7,3.3-3.6
	c1.4-0.9,3.1-1.3,4.9-1.3s3.5,0.4,4.9,1.3c1.4,0.9,2.5,2.1,3.3,3.6c0.8,1.5,1.2,3.3,1.2,5.2s-0.4,3.7-1.2,5.3s-1.9,2.7-3.3,3.6
	C-351.1,290-352.7,290.4-354.5,290.4L-354.5,290.4z M-354.5,288.2c1.4,0,2.6-0.3,3.6-1c1-0.7,1.8-1.6,2.4-2.8s0.8-2.6,0.8-4.1
	c0-1.6-0.3-3-0.8-4.2s-1.4-2.1-2.4-2.8s-2.2-1-3.6-1c-1.4,0-2.6,0.3-3.6,1c-1,0.7-1.9,1.6-2.4,2.8c-0.6,1.2-0.9,2.6-0.9,4.2
	s0.3,3,0.9,4.1c0.6,1.2,1.4,2.1,2.4,2.8C-357.1,287.8-355.9,288.2-354.5,288.2z"/>
<path class="st0" d="M-333.9,290.4c-1.3,0-2.5-0.2-3.5-0.6c-1-0.4-2-0.9-2.7-1.6c-0.8-0.7-1.3-1.4-1.8-2.3l1.8-1.4
	c0.5,1.1,1.3,2,2.4,2.7c1.1,0.7,2.4,1.1,3.9,1.1c1.4,0,2.6-0.3,3.4-0.9c0.9-0.6,1.3-1.5,1.3-2.6c0-0.9-0.3-1.6-0.8-2.1
	c-0.5-0.5-1.2-0.9-2-1.2c-0.8-0.3-1.7-0.6-2.7-0.8c-0.8-0.2-1.5-0.4-2.2-0.7s-1.4-0.6-2-1c-0.6-0.4-1.1-0.9-1.4-1.5
	c-0.3-0.6-0.5-1.4-0.5-2.3c0-1.6,0.6-2.8,1.8-3.8s2.8-1.4,4.7-1.4c1.5,0,2.8,0.3,4,0.9c1.2,0.6,2.2,1.6,2.8,2.9l-1.6,1.2
	c-0.6-1-1.3-1.8-2.2-2.3c-0.9-0.5-1.9-0.7-3.1-0.7c-1.2,0-2.2,0.3-3,0.8s-1.2,1.2-1.2,2.2c0,0.7,0.2,1.2,0.6,1.6s0.9,0.8,1.6,1
	c0.7,0.3,1.5,0.5,2.4,0.7c0.9,0.2,1.7,0.4,2.5,0.7s1.6,0.6,2.3,1s1.3,1,1.7,1.7s0.6,1.6,0.6,2.6c0,1.2-0.3,2.2-0.9,3.1
	c-0.6,0.9-1.4,1.6-2.5,2.1C-331.2,290.2-332.4,290.4-333.9,290.4L-333.9,290.4z"/>
<path class="st0" d="M-323.5,296.4l4.3-11.9h2.8l-5.3,11.9H-323.5z"/>
<path class="st0" d="M-301.2,290.1v-27.9h8.4c2.6,0,4.6,0.6,6.1,1.8c1.5,1.2,2.2,2.9,2.2,5.1c0,1.4-0.3,2.7-1,3.8
	c-0.7,1.1-1.6,1.8-2.8,2.4c1.7,0.4,3,1.2,3.9,2.4c0.9,1.2,1.3,2.8,1.3,4.7c0,2.5-0.8,4.4-2.3,5.7c-1.5,1.3-3.7,2-6.6,2H-301.2
	L-301.2,290.1z M-298.6,274.5h6.6c1.5,0,2.7-0.4,3.6-1.4s1.4-2.1,1.4-3.6c0-1.5-0.5-2.7-1.5-3.6s-2.4-1.3-4.2-1.3h-5.8V274.5
	L-298.6,274.5z M-298.6,287.7h6.5c4.3,0,6.4-1.8,6.4-5.4c0-1.7-0.5-3-1.4-4c-1-0.9-2.3-1.4-4-1.4h-7.5V287.7z"/>
<path class="st0" d="M-278.3,266.6v-4.3h3v4.3H-278.3z M-278,290.1v-19.7h2.5v19.7H-278z"/>
<path class="st0" d="M-263,290.4c-1.3,0-2.5-0.2-3.5-0.6c-1.1-0.4-2-0.9-2.7-1.6c-0.8-0.7-1.4-1.4-1.8-2.3l1.8-1.4
	c0.5,1.1,1.3,2,2.4,2.7c1.1,0.7,2.4,1.1,3.9,1.1c1.4,0,2.5-0.3,3.4-0.9s1.3-1.5,1.3-2.6c0-0.9-0.3-1.6-0.8-2.1
	c-0.5-0.5-1.2-0.9-2-1.2c-0.8-0.3-1.7-0.6-2.7-0.8c-0.8-0.2-1.5-0.4-2.2-0.7s-1.4-0.6-2-1c-0.6-0.4-1.1-0.9-1.4-1.5
	c-0.4-0.6-0.5-1.4-0.5-2.3c0-1.6,0.6-2.8,1.8-3.8c1.2-1,2.8-1.4,4.7-1.4c1.5,0,2.8,0.3,4,0.9c1.2,0.6,2.1,1.6,2.8,2.9l-1.6,1.2
	c-0.6-1-1.3-1.8-2.2-2.3c-0.9-0.5-1.9-0.7-3.1-0.7c-1.2,0-2.2,0.3-3,0.8c-0.8,0.5-1.2,1.2-1.2,2.2c0,0.7,0.2,1.2,0.6,1.6
	s0.9,0.8,1.6,1s1.5,0.5,2.4,0.7c0.9,0.2,1.7,0.4,2.5,0.7s1.6,0.6,2.3,1c0.7,0.4,1.3,1,1.7,1.7c0.4,0.7,0.6,1.6,0.6,2.6
	c0,1.2-0.3,2.2-0.9,3.1c-0.6,0.9-1.4,1.6-2.5,2.1C-260.4,290.2-261.6,290.4-263,290.4L-263,290.4z"/>
<path class="st0" d="M-230.8,290.4c-1.3,0-2.4-0.3-3.5-0.8c-1.1-0.5-1.9-1.2-2.7-2.2s-1.2-2-1.6-3.2l0.8-0.3v6.2h-2.5v-27.9h2.5
	v14.3l-0.7-0.4c0.3-1.1,0.8-2.2,1.5-3.1s1.6-1.6,2.6-2.2c1-0.5,2.2-0.8,3.5-0.8c1.7,0,3.2,0.4,4.5,1.3c1.4,0.8,2.4,2,3.2,3.5
	c0.8,1.5,1.2,3.3,1.2,5.3c0,1.9-0.4,3.6-1.1,5.2s-1.8,2.8-3.2,3.6C-227.5,290-229,290.4-230.8,290.4L-230.8,290.4z M-231.2,288.1
	c1.3,0,2.5-0.3,3.5-1s1.8-1.6,2.4-2.8c0.6-1.2,0.9-2.5,0.9-4s-0.3-2.9-0.9-4c-0.6-1.2-1.4-2.1-2.4-2.8c-1-0.7-2.2-1-3.5-1
	s-2.5,0.3-3.5,1c-1,0.7-1.8,1.6-2.4,2.8c-0.6,1.2-0.9,2.5-0.9,4c0,1.5,0.3,2.9,0.9,4c0.6,1.2,1.4,2.1,2.4,2.8
	C-233.7,287.8-232.5,288.1-231.2,288.1z"/>
<path class="st0" d="M-210.6,290.4c-1.5,0-2.7-0.2-3.8-0.8c-1.1-0.5-1.9-1.2-2.5-2.1c-0.6-0.9-0.9-1.9-0.9-3.1c0-1.1,0.2-2,0.6-2.7
	c0.4-0.7,0.9-1.3,1.6-1.7c0.7-0.5,1.5-0.8,2.5-1c0.9-0.2,1.9-0.3,3-0.3h6.5v1.9h-6.2c-0.8,0-1.5,0.1-2.3,0.2
	c-0.7,0.1-1.4,0.4-1.9,0.8c-0.4,0.3-0.8,0.7-1,1.1s-0.3,1-0.3,1.7c0,1.2,0.4,2.1,1.3,2.9c0.9,0.7,2.1,1.1,3.5,1.1
	c1.2,0,2.3-0.3,3.3-0.9s1.8-1.4,2.4-2.4c0.6-1,0.9-2.1,0.9-3.4l1.1,1.2c-0.1,1.5-0.6,2.8-1.3,4c-0.7,1.2-1.6,2-2.8,2.6
	C-207.9,290.1-209.2,290.4-210.6,290.4z M-203.6,290.1l-0.2-4.5v-7.8c0-1.8-0.5-3.2-1.4-4.1s-2.3-1.4-4.1-1.4
	c-1.2,0-2.2,0.2-3.2,0.7s-1.9,1.3-2.8,2.4l-1.8-1.6c1.1-1.3,2.3-2.2,3.6-2.8s2.8-0.9,4.5-0.9c2.5,0,4.4,0.7,5.8,2
	c1.4,1.3,2,3.2,2,5.7v12.3H-203.6z"/>
<path class="st0" d="M-191.7,290.4c-1.1,0-2-0.4-2.7-1.1s-1-1.8-1-3.4v-23.7h2.5v23.3c0,0.9,0.2,1.6,0.5,2c0.4,0.4,0.8,0.6,1.4,0.6
	c0.3,0,0.6,0,0.9-0.1s0.6-0.1,1-0.3v2.2c-0.4,0.2-0.9,0.3-1.4,0.4S-191.3,290.4-191.7,290.4L-191.7,290.4z"/>
<path class="st0" d="M-176.9,290.4c-1.8,0-3.3-0.4-4.7-1.3c-1.4-0.9-2.4-2.1-3.2-3.6s-1.1-3.3-1.1-5.2c0-2,0.4-3.8,1.2-5.3
	c0.8-1.5,1.9-2.7,3.2-3.5s2.9-1.3,4.5-1.3c1.3,0,2.5,0.3,3.5,0.8c1,0.5,1.9,1.2,2.6,2.1s1.2,1.9,1.5,3.1l-0.7,0.4v-14.3h2.5v27.9
	h-2.5v-6.2l0.8,0.3c-0.4,1.2-0.9,2.3-1.6,3.2c-0.7,0.9-1.6,1.7-2.6,2.2S-175.6,290.4-176.9,290.4L-176.9,290.4z M-176.5,288.1
	c1.3,0,2.5-0.3,3.5-1c1-0.7,1.8-1.6,2.4-2.8c0.6-1.2,0.9-2.5,0.9-4s-0.3-2.9-0.9-4c-0.6-1.2-1.4-2.1-2.4-2.8c-1-0.7-2.2-1-3.5-1
	s-2.5,0.3-3.5,1c-1,0.7-1.9,1.6-2.4,2.8c-0.6,1.2-0.9,2.5-0.9,4c0,1.5,0.3,2.9,0.9,4c0.6,1.2,1.4,2.1,2.4,2.8
	S-177.8,288.1-176.5,288.1z"/>
<path class="st0" d="M-163.2,296.4l4.3-11.9h2.8l-5.3,11.9H-163.2L-163.2,296.4z"/>
<path class="st0" d="M-132.7,290.5c-2.7,0-5-0.7-6.7-2.1c-1.7-1.4-2.8-3.3-3.2-5.6l2.6-0.6c0.3,2,1.1,3.5,2.5,4.5
	c1.3,1,3,1.5,4.9,1.5c1.1,0,2.2-0.2,3.1-0.7c0.9-0.4,1.6-1.1,2.2-1.9c0.5-0.8,0.8-1.8,0.8-2.8c0-1.1-0.3-2.1-0.9-2.8
	c-0.6-0.7-1.4-1.3-2.4-1.8s-2.2-1-3.4-1.5c-1.4-0.6-2.7-1.2-3.9-1.8c-1.1-0.6-2-1.4-2.7-2.4c-0.6-0.9-1-2.1-1-3.5s0.3-2.6,1-3.7
	c0.7-1.1,1.6-1.9,2.8-2.5c1.2-0.6,2.6-0.9,4.2-0.9c1.7,0,3.2,0.4,4.5,1.2c1.3,0.8,2.4,1.9,3.2,3.4l-2.1,1.3c-0.6-1.1-1.4-2-2.4-2.6
	c-1-0.6-2-0.9-3.3-0.9c-1.1,0-2,0.2-2.8,0.6s-1.4,1-1.9,1.7s-0.7,1.5-0.7,2.4c0,1,0.3,1.8,0.8,2.4c0.5,0.7,1.3,1.2,2.2,1.7
	c1,0.5,2.1,1,3.4,1.4c1.5,0.6,2.9,1.2,4.1,1.9s2.1,1.5,2.8,2.5s1,2.2,1,3.7c0,1.6-0.4,2.9-1.1,4.1c-0.8,1.2-1.8,2.1-3.1,2.8
	S-131,290.5-132.7,290.5L-132.7,290.5z"/>
<path class="st0" d="M-112.8,290.4c-1.5,0-2.7-0.2-3.8-0.8c-1.1-0.5-1.9-1.2-2.5-2.1c-0.6-0.9-0.9-1.9-0.9-3.1c0-1.1,0.2-2,0.6-2.7
	c0.4-0.7,1-1.3,1.6-1.7c0.7-0.5,1.5-0.8,2.5-1c0.9-0.2,1.9-0.3,3-0.3h6.5v1.9h-6.2c-0.8,0-1.5,0.1-2.3,0.2c-0.7,0.1-1.4,0.4-1.9,0.8
	c-0.4,0.3-0.8,0.7-1,1.1s-0.3,1-0.3,1.7c0,1.2,0.4,2.1,1.3,2.9c0.9,0.7,2,1.1,3.5,1.1c1.2,0,2.3-0.3,3.3-0.9s1.8-1.4,2.4-2.4
	c0.6-1,0.9-2.1,0.9-3.4l1.1,1.2c-0.1,1.5-0.6,2.8-1.3,4c-0.7,1.2-1.6,2-2.8,2.6C-110.1,290.1-111.4,290.4-112.8,290.4L-112.8,290.4z
	 M-105.8,290.1l-0.2-4.5v-7.8c0-1.8-0.5-3.2-1.4-4.1s-2.3-1.4-4.1-1.4c-1.2,0-2.2,0.2-3.2,0.7s-1.9,1.3-2.8,2.4l-1.8-1.6
	c1.1-1.3,2.3-2.2,3.6-2.8c1.3-0.6,2.8-0.9,4.5-0.9c2.5,0,4.4,0.7,5.8,2c1.4,1.3,2,3.2,2,5.7v12.3H-105.8z"/>
<path class="st0" d="M-97.5,290.1v-19.7h2.6v5.1h-0.5c0.2-0.9,0.6-1.7,1-2.4c0.4-0.7,0.9-1.2,1.4-1.7s1.2-0.8,1.8-1
	c0.6-0.2,1.3-0.3,2.1-0.3c1.2,0,2.2,0.2,3.1,0.7s1.6,1.1,2.2,2s1,2.1,1.2,3.5l-1.4,0.1c0.4-1.4,0.9-2.5,1.5-3.4
	c0.6-0.9,1.4-1.6,2.3-2.1s2-0.7,3.2-0.7c1.6,0,2.9,0.4,3.8,1.1s1.6,1.7,2.1,2.9s0.6,2.6,0.6,4.2v11.8h-2.5v-11.2
	c0-1.4-0.1-2.5-0.4-3.5c-0.3-1-0.8-1.8-1.4-2.3s-1.6-0.8-2.7-0.8c-1,0-1.9,0.3-2.6,0.8s-1.4,1.3-1.8,2.4c-0.4,1.1-0.6,2.4-0.6,4
	v10.6h-2.6v-11.6c0-2.1-0.4-3.7-1.1-4.7s-1.9-1.5-3.4-1.5c-1,0-1.9,0.3-2.6,0.8c-0.8,0.5-1.4,1.4-1.8,2.4s-0.6,2.5-0.6,4.2v10.4
	H-97.5z"/>
<path class="st0" d="M-64.7,298.3v-27.9h2.5v6.2l-0.8-0.6c0.4-1.2,0.9-2.3,1.6-3.2c0.7-0.9,1.6-1.5,2.6-2s2.2-0.7,3.5-0.7
	c1.8,0,3.3,0.4,4.7,1.3c1.4,0.9,2.4,2.1,3.2,3.6c0.8,1.5,1.1,3.2,1.1,5.2c0,1.9-0.4,3.8-1.2,5.3c-0.8,1.5-1.9,2.7-3.2,3.6
	s-2.9,1.3-4.5,1.3c-1.3,0-2.5-0.2-3.5-0.7c-1-0.5-1.9-1.2-2.6-2.1c-0.7-0.9-1.2-1.9-1.5-3l0.7-0.6v14.3H-64.7L-64.7,298.3z
	 M-55.7,288.1c1.3,0,2.5-0.3,3.5-1c1-0.7,1.8-1.6,2.4-2.8c0.6-1.2,0.9-2.5,0.9-4s-0.3-2.9-0.9-4c-0.6-1.2-1.4-2.1-2.4-2.8
	s-2.2-1-3.5-1s-2.5,0.3-3.5,1c-1,0.7-1.8,1.6-2.4,2.8c-0.6,1.2-0.9,2.5-0.9,4c0,1.5,0.3,2.9,0.9,4c0.6,1.2,1.4,2.1,2.4,2.8
	C-58.2,287.8-57,288.1-55.7,288.1z"/>
<path class="st0" d="M-34.8,290.4c-1.5,0-2.7-0.2-3.8-0.8c-1.1-0.5-1.9-1.2-2.5-2.1c-0.6-0.9-0.9-1.9-0.9-3.1c0-1.1,0.2-2,0.6-2.7
	c0.4-0.7,1-1.3,1.6-1.7c0.7-0.5,1.5-0.8,2.5-1c0.9-0.2,1.9-0.3,3-0.3h6.5v1.9h-6.2c-0.8,0-1.5,0.1-2.3,0.2c-0.7,0.1-1.4,0.4-1.9,0.8
	c-0.4,0.3-0.8,0.7-1,1.1s-0.3,1-0.3,1.7c0,1.2,0.4,2.1,1.3,2.9c0.9,0.7,2,1.1,3.5,1.1c1.2,0,2.3-0.3,3.3-0.9s1.8-1.4,2.4-2.4
	c0.6-1,0.9-2.1,0.9-3.4l1.1,1.2c-0.1,1.5-0.6,2.8-1.3,4c-0.7,1.2-1.6,2-2.8,2.6C-32.1,290.1-33.4,290.4-34.8,290.4L-34.8,290.4z
	 M-27.8,290.1l-0.2-4.5v-7.8c0-1.8-0.5-3.2-1.4-4.1s-2.3-1.4-4.1-1.4c-1.2,0-2.2,0.2-3.2,0.7s-1.9,1.3-2.8,2.4l-1.8-1.6
	c1.1-1.3,2.3-2.2,3.6-2.8c1.3-0.6,2.8-0.9,4.5-0.9c2.5,0,4.4,0.7,5.8,2c1.4,1.3,2,3.2,2,5.7v12.3H-27.8z"/>
<path class="st0" d="M-19.8,266.6v-4.3h3v4.3H-19.8z M-19.5,290.1v-19.7h2.5v19.7H-19.5z"/>
<path class="st0" d="M-2.7,298.6c-0.4,0-0.9,0-1.4-0.1c-0.5-0.1-1-0.2-1.5-0.3v-2.2c0.4,0.2,0.8,0.3,1.1,0.3
	c0.3,0.1,0.6,0.1,0.8,0.1c0.7,0,1.2-0.2,1.6-0.6c0.4-0.4,0.5-1.1,0.5-2.1v-23.1H1v23.7c0,1.6-0.3,2.7-1,3.4
	C-0.7,298.2-1.6,298.6-2.7,298.6z M-1.7,266.6v-4.3h3v4.3H-1.7z"/>
<path class="st0" d="M13.7,290.4c-1.4,0-2.6-0.3-3.6-0.9s-1.8-1.4-2.3-2.6s-0.8-2.6-0.8-4.3v-12.3h2.5v11.4c0,1.4,0.2,2.6,0.6,3.6
	c0.4,0.9,0.9,1.6,1.6,2.1s1.6,0.7,2.7,0.7c1.2,0,2.2-0.3,3-0.8s1.5-1.4,1.9-2.6s0.7-2.6,0.7-4.4v-10h2.5v19.7h-2.5v-4.6h0.6
	c-0.5,1.6-1.4,2.9-2.6,3.7S15.3,290.4,13.7,290.4z"/>
<path class="st0" d="M28.6,290.1v-19.7h2.6v5.1h-0.5c0.2-0.9,0.6-1.7,1-2.4c0.4-0.7,0.9-1.2,1.4-1.7s1.2-0.8,1.8-1
	c0.6-0.2,1.3-0.3,2.1-0.3c1.2,0,2.2,0.2,3.1,0.7s1.6,1.1,2.2,2s1,2.1,1.2,3.5l-1.4,0.1c0.4-1.4,0.9-2.5,1.5-3.4
	c0.6-0.9,1.4-1.6,2.3-2.1s2-0.7,3.2-0.7c1.6,0,2.9,0.4,3.8,1.1s1.6,1.7,2.1,2.9s0.6,2.6,0.6,4.2v11.8h-2.5v-11.2
	c0-1.4-0.1-2.5-0.4-3.5c-0.3-1-0.8-1.8-1.4-2.3s-1.6-0.8-2.7-0.8c-1,0-1.9,0.3-2.6,0.8s-1.4,1.3-1.8,2.4c-0.4,1.1-0.6,2.4-0.6,4
	v10.6h-2.6v-11.6c0-2.1-0.4-3.7-1.1-4.7s-1.9-1.5-3.4-1.5c-1,0-1.9,0.3-2.6,0.8c-0.8,0.5-1.4,1.4-1.8,2.4s-0.6,2.5-0.6,4.2v10.4
	H28.6z"/>
<path class="st0" d="M61.4,298.3v-27.9h2.5v6.2l-0.8-0.6c0.4-1.2,0.9-2.3,1.6-3.2c0.7-0.9,1.6-1.5,2.6-2c1-0.5,2.2-0.7,3.5-0.7
	c1.8,0,3.3,0.4,4.7,1.3c1.3,0.9,2.4,2.1,3.2,3.6c0.8,1.5,1.1,3.2,1.1,5.2c0,1.9-0.4,3.8-1.2,5.3s-1.9,2.7-3.2,3.6s-2.9,1.3-4.5,1.3
	c-1.3,0-2.5-0.2-3.5-0.7c-1-0.5-1.9-1.2-2.6-2.1c-0.7-0.9-1.2-1.9-1.5-3l0.7-0.6v14.3H61.4z M70.5,288.1c1.3,0,2.5-0.3,3.5-1
	c1-0.7,1.8-1.6,2.4-2.8c0.6-1.2,0.9-2.5,0.9-4s-0.3-2.9-0.9-4c-0.6-1.2-1.4-2.1-2.4-2.8c-1-0.7-2.2-1-3.5-1s-2.5,0.3-3.5,1
	c-1,0.7-1.8,1.6-2.4,2.8c-0.6,1.2-0.9,2.5-0.9,4c0,1.5,0.3,2.9,0.9,4c0.6,1.2,1.4,2.1,2.4,2.8C68,287.8,69.2,288.1,70.5,288.1z"/>
<path class="st0" d="M91.4,290.4c-1.5,0-2.7-0.2-3.8-0.8c-1.1-0.5-1.9-1.2-2.5-2.1c-0.6-0.9-0.9-1.9-0.9-3.1c0-1.1,0.2-2,0.6-2.7
	c0.4-0.7,1-1.3,1.6-1.7c0.7-0.5,1.5-0.8,2.5-1c0.9-0.2,1.9-0.3,3-0.3h6.5v1.9h-6.2c-0.8,0-1.5,0.1-2.3,0.2c-0.7,0.1-1.3,0.4-1.9,0.8
	c-0.4,0.3-0.8,0.7-1,1.1s-0.3,1-0.3,1.7c0,1.2,0.4,2.1,1.3,2.9c0.9,0.7,2,1.1,3.5,1.1c1.2,0,2.3-0.3,3.3-0.9s1.8-1.4,2.4-2.4
	c0.6-1,0.9-2.1,0.9-3.4l1.1,1.2c-0.1,1.5-0.6,2.8-1.3,4c-0.7,1.2-1.7,2-2.8,2.6C94,290.1,92.8,290.4,91.4,290.4L91.4,290.4z
	 M98.3,290.1l-0.2-4.5v-7.8c0-1.8-0.5-3.2-1.4-4.1c-0.9-0.9-2.3-1.4-4.1-1.4c-1.2,0-2.2,0.2-3.2,0.7s-1.9,1.3-2.8,2.4l-1.8-1.6
	c1.1-1.3,2.3-2.2,3.6-2.8s2.8-0.9,4.5-0.9c2.5,0,4.4,0.7,5.8,2c1.4,1.3,2,3.2,2,5.7v12.3H98.3z"/>
<path class="st0" d="M110.9,284.9c-1,3.7-3,8.7-4,10.6l-2.4,0.3c0.9-2.4,2.1-7.3,2.6-10.4L110.9,284.9z"/>
<path class="st0" d="M-434.2,317.1c0-1.4,0-2.6-0.2-3.8c1,0.1,1.9,0.2,3.6,0.2h8.8v-4.7h-11.8c-1.6,0-3,0.1-4.2,0.2v-2.8
	c1.2,0.2,2.5,0.2,4.2,0.2h27c1.7,0,2.9-0.1,4.2-0.2v2.8c-1.2-0.2-2.6-0.2-4.2-0.2h-12.8v4.7h9.6c1.7,0,2.7,0,3.6-0.2
	c-0.1,1.2-0.2,2.2-0.2,3.7v11h0.3c1.7,0,2.8-0.1,3.8-0.2v2.7c-1.1-0.2-2.3-0.2-3.8-0.2h-0.3v7.3c0,2.7-1,3.2-5.6,3.2
	c-1.3,0-2.7,0-4-0.2c-0.1-1.1-0.2-1.7-0.6-2.6c2.1,0.3,3.7,0.4,5.6,0.4c1.8,0,2.1-0.2,2.1-1.3v-6.8h-22.6v6.6c0,1.9,0.1,3.1,0.2,4.2
	h-3.1c0.2-1.4,0.2-2.5,0.2-4.2v-6.6h-0.6c-1.5,0-2.6,0.1-3.8,0.2v-2.7c1,0.2,2.2,0.2,3.8,0.2h0.6V317.1L-434.2,317.1z M-421.9,320.7
	v-4.9h-9.7v4.9H-421.9z M-421.9,328.1v-5.2h-9.7v5.2H-421.9z M-408.9,320.7v-4.9h-10.5v4.9H-408.9z M-408.9,328.1v-5.2h-10.5v5.2
	H-408.9z"/>
<path class="st0" d="M-382.6,311.5l2,0.2c0.7,0.1,1.1,0.3,1.1,0.7c0,0.4-0.2,0.6-0.6,0.7l-0.5,0.3v2.9c0,10.8-0.3,18.6-9.1,22.5
	c-2.6,1.2-5.5,2-8.6,2.4c-0.3,0-0.5-0.1-0.5-0.4c0-0.2,0.1-0.4,0.3-0.4c3-0.6,5.8-1.6,8.1-2.8c7.5-4,7.7-10.2,7.7-21.3V311.5z
	 M-391.5,305.2l1.8,1.2h17.9l1-1.3l1.8,1.2c0.1,0.1,0.2,0.2,0.2,0.4c0,0.5-0.4,0.7-0.6,0.8c-0.3,0.1-0.4,0.3-0.4,0.4v20.9
	c0,0.4-0.8,0.8-1.4,0.8c-0.4,0-0.6-0.2-0.6-0.7v-21.2h-17.7V329c0,0.6-1.2,0.8-1.4,0.8c-0.4,0-0.6-0.2-0.6-0.8V305.2L-391.5,305.2z
	 M-378.7,324.2l2.6,0.7c0.3,0.1,0.5,0.3,0.5,0.6s-0.2,0.5-0.6,0.6c-0.4,0-0.6,0.2-0.6,0.5v11.6c0,0.5,0.1,0.5,0.8,0.8h9.2
	c1.6,0,2-1.4,2.2-2.5l0.4-2.8c0-0.2,0.2-0.3,0.4-0.3c0.2,0,0.3,0.1,0.3,0.4v3c0,1,0.2,1.7,0.7,1.9c0.4,0.2,0.6,0.5,0.6,0.8
	c0,0.7-0.5,0.9-1.4,1.4h-14c-1-0.5-1.2-0.6-1.2-1.8V324.2L-378.7,324.2z"/>
<path class="st0" d="M-357.7,341.9c2.1-2.1,2.6-2.7,2.6-3.5c0-0.5-0.3-1-1-1.3c-0.6-0.3-0.8-0.8-0.8-1.5c0-0.4,0.2-1.6,1.6-1.6
	c0.9,0,2,0.8,2,2.6c0,2-1,3.7-3.4,5.8L-357.7,341.9z"/>
<path class="st0" d="M-336.9,338.1v-27.9h2.8l15,24.5h-0.5v-24.5h2.6v27.9h-2.9l-14.9-24.6h0.5v24.6H-336.9z"/>
<path class="st0" d="M-304.3,338.4c-1.5,0-2.7-0.2-3.8-0.8c-1.1-0.5-1.9-1.2-2.5-2.1c-0.6-0.9-0.9-1.9-0.9-3.1c0-1.1,0.2-2,0.6-2.7
	c0.4-0.7,1-1.3,1.6-1.7c0.7-0.5,1.5-0.8,2.5-1c0.9-0.2,1.9-0.3,3-0.3h6.5v1.9h-6.2c-0.8,0-1.5,0.1-2.3,0.2c-0.7,0.1-1.4,0.4-1.9,0.8
	c-0.4,0.3-0.8,0.7-1,1.1c-0.2,0.5-0.3,1-0.3,1.7c0,1.2,0.4,2.1,1.3,2.9c0.9,0.7,2.1,1.1,3.5,1.1c1.2,0,2.3-0.3,3.3-0.9
	c1-0.6,1.8-1.4,2.4-2.4c0.6-1,0.9-2.1,0.9-3.4l1.1,1.2c-0.1,1.5-0.6,2.8-1.3,4s-1.6,2-2.8,2.6C-301.6,338.1-302.9,338.4-304.3,338.4
	z M-297.3,338.1l-0.2-4.5v-7.8c0-1.8-0.5-3.2-1.4-4.1s-2.3-1.4-4.1-1.4c-1.2,0-2.2,0.2-3.2,0.7c-1,0.5-1.9,1.3-2.8,2.4l-1.8-1.6
	c1.1-1.3,2.3-2.2,3.6-2.8s2.8-0.9,4.5-0.9c2.5,0,4.4,0.7,5.8,2c1.4,1.3,2,3.2,2,5.7v12.3L-297.3,338.1L-297.3,338.1z"/>
<path class="st0" d="M-282.7,338.4c-1.3,0-2.5-0.2-3.5-0.6c-1.1-0.4-2-0.9-2.7-1.6c-0.8-0.7-1.4-1.4-1.8-2.3l1.8-1.4
	c0.5,1.1,1.3,2,2.4,2.7c1.1,0.7,2.4,1.1,3.9,1.1c1.4,0,2.5-0.3,3.4-0.9s1.3-1.5,1.3-2.6c0-0.9-0.3-1.6-0.8-2.1
	c-0.5-0.5-1.2-0.9-2-1.2c-0.8-0.3-1.7-0.6-2.7-0.8c-0.8-0.2-1.5-0.4-2.2-0.7s-1.4-0.6-2-1c-0.6-0.4-1.1-0.9-1.4-1.5
	c-0.3-0.6-0.5-1.4-0.5-2.3c0-1.6,0.6-2.8,1.8-3.8c1.2-1,2.8-1.4,4.7-1.4c1.5,0,2.8,0.3,4,0.9c1.2,0.6,2.1,1.6,2.8,2.9l-1.6,1.2
	c-0.6-1-1.3-1.8-2.2-2.3c-0.9-0.5-1.9-0.7-3.1-0.7c-1.2,0-2.2,0.3-3,0.8c-0.8,0.5-1.2,1.2-1.2,2.2c0,0.7,0.2,1.2,0.6,1.6
	s0.9,0.8,1.6,1c0.7,0.3,1.5,0.5,2.4,0.7c0.9,0.2,1.7,0.4,2.5,0.7c0.8,0.3,1.6,0.6,2.3,1c0.7,0.4,1.3,1,1.7,1.7
	c0.4,0.7,0.6,1.6,0.6,2.6c0,1.2-0.3,2.2-0.9,3.1c-0.6,0.9-1.4,1.6-2.5,2.1C-280,338.2-281.3,338.4-282.7,338.4L-282.7,338.4z"/>
<path class="st0" d="M-270.4,338.1v-27.9h2.6V323l-0.6,0.2c0.4-1.1,0.9-2,1.5-2.8s1.4-1.3,2.3-1.7s1.9-0.6,3-0.6
	c2.2,0,3.8,0.6,5,1.9c1.2,1.3,1.8,3.2,1.8,5.7v12.3h-2.5v-11.4c0-2.2-0.4-3.8-1.2-4.8c-0.8-1-2-1.6-3.7-1.6c-1.7,0-3.1,0.6-4.1,1.9
	s-1.5,3.3-1.5,6.1v9.8H-270.4z"/>
<path class="st0" d="M-245.2,338.4c-1.1,0-2-0.4-2.7-1.1s-1-1.8-1-3.4v-23.7h2.5v23.3c0,0.9,0.2,1.6,0.5,2c0.4,0.4,0.8,0.6,1.4,0.6
	c0.3,0,0.6,0,0.9-0.1s0.6-0.1,1-0.3v2.2c-0.4,0.2-0.9,0.3-1.4,0.4S-244.9,338.4-245.2,338.4L-245.2,338.4z"/>
<path class="st0" d="M-230.4,338.4c-1.5,0-2.8-0.2-3.9-0.8c-1.1-0.5-2.1-1.2-2.8-2.1c-0.8-0.9-1.3-2-1.7-3.2
	c-0.4-1.2-0.6-2.5-0.6-3.9c0-1.4,0.2-2.7,0.6-4s0.9-2.3,1.7-3.3c0.7-0.9,1.6-1.7,2.7-2.2s2.3-0.8,3.7-0.8c1.5,0,2.8,0.3,3.9,0.8
	c1.1,0.5,2,1.2,2.6,2.1c0.7,0.9,1.2,1.9,1.5,2.9s0.5,2.1,0.5,3.2c0,0.2,0,0.5,0,0.8c0,0.4-0.1,0.6-0.1,0.9H-237
	c0.1,2.3,0.7,4,1.8,5.3s2.7,1.9,4.7,1.9c1.2,0,2.3-0.2,3.2-0.6c0.9-0.4,1.8-1,2.6-1.9l1.8,1.6c-0.8,0.8-1.5,1.4-2.3,1.9
	s-1.6,0.8-2.5,1C-228.5,338.3-229.4,338.4-230.4,338.4L-230.4,338.4z M-224.8,327.7c0.1-0.2,0.1-0.4,0.1-0.7v-0.7
	c0-0.7-0.1-1.4-0.3-2.1s-0.6-1.4-1.1-2c-0.5-0.6-1.1-1.1-1.9-1.4s-1.7-0.6-2.8-0.6c-1.2,0-2.3,0.3-3.2,0.9c-0.9,0.6-1.6,1.4-2.1,2.4
	s-0.8,2.2-0.9,3.4h13L-224.8,327.7z"/>
<path class="st0" d="M-209,338.4c-1.8,0-3.3-0.4-4.7-1.3c-1.4-0.9-2.4-2.1-3.2-3.6c-0.8-1.5-1.1-3.3-1.1-5.2c0-2,0.4-3.8,1.2-5.3
	c0.8-1.5,1.9-2.7,3.2-3.5s2.9-1.3,4.5-1.3c1.3,0,2.5,0.3,3.5,0.8c1,0.5,1.9,1.2,2.6,2.1s1.2,1.9,1.5,3.1l-0.7,0.4v-14.3h2.5v27.9
	h-2.5v-6.2l0.8,0.3c-0.4,1.2-0.9,2.3-1.6,3.2s-1.6,1.7-2.6,2.2S-207.7,338.4-209,338.4L-209,338.4z M-208.6,336.1
	c1.3,0,2.5-0.3,3.5-1c1-0.7,1.8-1.6,2.4-2.8c0.6-1.2,0.9-2.5,0.9-4s-0.3-2.9-0.9-4c-0.6-1.2-1.4-2.1-2.4-2.8c-1-0.7-2.2-1-3.5-1
	s-2.5,0.3-3.5,1c-1,0.7-1.9,1.6-2.4,2.8c-0.6,1.2-0.9,2.5-0.9,4s0.3,2.9,0.9,4c0.6,1.2,1.4,2.1,2.4,2.8
	C-211.1,335.8-210,336.1-208.6,336.1z"/>
<path class="st0" d="M-187.4,338.4c-1.5,0-2.7-0.2-3.8-0.8c-1.1-0.5-1.9-1.2-2.5-2.1c-0.6-0.9-0.9-1.9-0.9-3.1c0-1.1,0.2-2,0.6-2.7
	c0.4-0.7,0.9-1.3,1.6-1.7c0.7-0.5,1.5-0.8,2.5-1c0.9-0.2,1.9-0.3,3-0.3h6.5v1.9h-6.2c-0.8,0-1.5,0.1-2.3,0.2
	c-0.7,0.1-1.4,0.4-1.9,0.8c-0.4,0.3-0.8,0.7-1,1.1s-0.3,1-0.3,1.7c0,1.2,0.4,2.1,1.3,2.9c0.9,0.7,2.1,1.1,3.5,1.1
	c1.2,0,2.3-0.3,3.3-0.9s1.8-1.4,2.4-2.4c0.6-1,0.9-2.1,0.9-3.4l1.1,1.2c-0.1,1.5-0.6,2.8-1.3,4s-1.6,2-2.8,2.6
	C-184.8,338.1-186,338.4-187.4,338.4z M-180.4,338.1l-0.2-4.5v-7.8c0-1.8-0.5-3.2-1.4-4.1s-2.3-1.4-4.1-1.4c-1.2,0-2.2,0.2-3.2,0.7
	s-1.9,1.3-2.8,2.4l-1.8-1.6c1.1-1.3,2.3-2.2,3.6-2.8s2.8-0.9,4.5-0.9c2.5,0,4.4,0.7,5.8,2c1.4,1.3,2,3.2,2,5.7v12.3L-180.4,338.1
	L-180.4,338.1z"/>
<path class="st0" d="M-172.2,338.1v-19.7h2.6v4.6l-0.6,0.2c0.4-1.1,0.8-2,1.5-2.8s1.4-1.3,2.3-1.7c0.9-0.4,1.9-0.6,3-0.6
	c2.1,0,3.8,0.6,5,1.9s1.8,3.2,1.8,5.8v12.3h-2.5v-11.4c0-2.2-0.4-3.8-1.2-4.8c-0.8-1-2-1.6-3.7-1.6c-1.1,0-2.1,0.3-2.9,0.8
	c-0.8,0.6-1.5,1.4-1.9,2.6s-0.7,2.7-0.7,4.6v9.8L-172.2,338.1L-172.2,338.1z"/>
<path class="st0" d="M-142.4,338.4c-1.8,0-3.4-0.4-4.9-1.3s-2.5-2.1-3.3-3.6s-1.2-3.3-1.2-5.3s0.4-3.7,1.2-5.2
	c0.8-1.5,1.9-2.7,3.3-3.6s3.1-1.3,4.9-1.3s3.5,0.4,4.9,1.3s2.5,2.1,3.3,3.6c0.8,1.5,1.2,3.3,1.2,5.2s-0.4,3.7-1.2,5.3
	s-1.9,2.7-3.3,3.6C-138.9,338-140.6,338.4-142.4,338.4z M-142.4,336.2c1.4,0,2.6-0.3,3.6-1c1-0.7,1.8-1.6,2.4-2.8s0.8-2.6,0.8-4.1
	c0-1.6-0.3-3-0.8-4.2s-1.4-2.1-2.4-2.8s-2.2-1-3.6-1s-2.6,0.3-3.6,1c-1,0.7-1.9,1.6-2.4,2.8c-0.6,1.2-0.9,2.6-0.9,4.2
	s0.3,2.9,0.9,4.1c0.6,1.2,1.4,2.1,2.4,2.8C-145,335.8-143.8,336.2-142.4,336.2L-142.4,336.2z"/>
<path class="st0" d="M-121.4,338.4c-1.4,0-2.6-0.3-3.6-0.9s-1.8-1.4-2.3-2.6s-0.8-2.6-0.8-4.3v-12.3h2.5v11.4c0,1.4,0.2,2.6,0.6,3.6
	c0.4,0.9,0.9,1.6,1.6,2.1s1.6,0.7,2.7,0.7c1.2,0,2.2-0.3,3-0.8s1.5-1.4,1.9-2.6s0.7-2.6,0.7-4.4v-10h2.5v19.7h-2.5v-4.6h0.6
	c-0.5,1.6-1.4,2.9-2.6,3.7S-119.8,338.4-121.4,338.4z"/>
<path class="st0" d="M-108.4,344.4l4.3-11.9h2.8l-5.3,11.9H-108.4L-108.4,344.4z"/>
<path class="st0" d="M-88.4,335c0.5-0.1,1-0.2,3-0.2h0.5c0-3.5-0.3-10.7-0.6-13h-0.1c-0.6,0-2.2,0-2.7-0.2l0.6-3.2
	c1.1,0.2,3.5,0.1,5.6,0.1h5.9c5.3,0,6.3,1.3,6.3,7.4v12.2h-2.8V327c0-3.6-0.4-5.1-3.7-5.1h-6.3c0.2,2.3,0.6,10.6,0.5,13.1l-0.5,3.2
	h-2.8c-1.4,0-2.7,0-3.6,0.1L-88.4,335L-88.4,335z"/>
<path class="st0" d="M-60.8,326.9c0-3.1-0.4-4.2-3.2-4.9c-1.3-0.3-1.9-0.5-2.5-0.7l0.6-3.2c0.5,0.2,1.2,0.4,2.5,0.6
	c4,0.9,5.3,2.2,5.3,7.7v11.8h-2.8L-60.8,326.9L-60.8,326.9z"/>
<path class="st0" d="M-53.2,333.3c0-3.5,0.8-6.8,3.4-9.5c-1.6-1.8-3.4-3.7-4.9-5l0.1-0.2l3.9-0.3c1.8,1.9,4.5,4.9,8.3,9.6
	c1.4-1,2.3-2.4,2.3-4.7c0-1.4-0.4-3-1.1-4.5l3.5-0.3c0.5,1.4,0.7,2.7,0.7,4.2c0,3-1.5,5.6-4.1,7.1c1.9,2.4,5,6.7,6.1,8.4h-3.8
	c-1.2-1.9-4.3-6.4-9.5-12.4c-1.6,1.9-1.9,4.5-1.8,6.8c0,2.1,0.5,4.1,1,5.6h-3.5C-53,336.7-53.3,335-53.2,333.3L-53.2,333.3z"/>
<path class="st0" d="M-23.5,327c0-3.6-0.4-5.1-3.8-5.1h-3.6c-2.1,0-3.5-0.1-4-0.2l0.6-3.2c0.7,0.1,2.6,0.1,5,0.1h2.2
	c5.2,0,6.3,1.3,6.3,7.4v12.2h-2.8L-23.5,327L-23.5,327z"/>
<path class="st0" d="M-17,335c0.5-0.1,1-0.2,3-0.2h0.5c0-3.5-0.3-10.7-0.6-13h-0.1c-0.6,0-2.2,0-2.7-0.2l0.6-3.2
	c1.1,0.2,3.5,0.1,5.6,0.1h5.9c5.3,0,6.3,1.3,6.3,7.4v12.2h-2.8V327c0-3.6-0.4-5.1-3.7-5.1h-6.3c0.2,2.3,0.6,10.6,0.5,13.1l-0.5,3.2
	h-2.8c-1.4,0-2.7,0-3.6,0.1L-17,335L-17,335z"/>
<path class="st0" d="M20.1,327.4c0-4-0.4-5.6-3.7-5.6h-6.1c-2.1,0-3.6-0.1-4.1-0.2l0.6-3.2c0.7,0.1,2.5,0.1,5,0.1h4.9
	c5.1,0,6.3,1.5,6.3,7.4v12.2h-2.8V327.4L20.1,327.4z M6.8,327.8h2.8v10.3H6.8V327.8z"/>
<path class="st0" d="M28.9,334.8c4.8-1.4,8.5-5.2,8.5-10.3c0-2.3-0.9-2.7-2.8-2.7h-8.6v-5.2c0-2.2-0.1-4.8-0.5-5.7l2.9-0.5
	c0.2,0.5,0.4,2.9,0.4,5.6v2.6h7c3.7,0,4.5,1.8,4.5,5c0,8.1-6.4,13.6-12.1,14.9L28.9,334.8L28.9,334.8z"/>
<path class="st0" d="M43.3,343.1c0.9-2.4,2-6.6,2.4-9.6l3.9-0.4c-1,3.4-2.7,7.8-3.8,9.7L43.3,343.1L43.3,343.1z"/>
<path class="st0" d="M60.8,338.1l10.4-27.9h2.2l10.3,27.9h-2.8l-8.6-24.2l-8.6,24.2H60.8L60.8,338.1z M66,331l0.8-2.4h11l0.9,2.4H66
	L66,331z"/>
<path class="st0" d="M83.1,320.4v-2h11.6v2H83.1z M91.8,338.4c-0.9,0-1.7-0.2-2.3-0.5s-1.2-0.9-1.5-1.6c-0.4-0.7-0.5-1.7-0.5-2.8
	v-20.7l2.6-1.5v21.6c0,1.1,0.2,1.9,0.5,2.5s1,0.9,1.9,0.9c0.3,0,0.7,0,1-0.1s0.8-0.1,1.2-0.3v2c-0.5,0.2-1,0.3-1.4,0.4
	C92.8,338.4,92.3,338.4,91.8,338.4z"/>
<path class="st0" d="M106.7,338.4c-1.5,0-2.8-0.2-3.9-0.8c-1.1-0.5-2.1-1.2-2.8-2.1c-0.8-0.9-1.3-2-1.7-3.2
	c-0.4-1.2-0.6-2.5-0.6-3.9c0-1.4,0.2-2.7,0.6-4s0.9-2.3,1.7-3.3c0.7-0.9,1.6-1.7,2.7-2.2c1.1-0.5,2.3-0.8,3.7-0.8
	c1.5,0,2.8,0.3,3.9,0.8c1.1,0.5,2,1.2,2.6,2.1c0.7,0.9,1.2,1.9,1.5,2.9s0.5,2.1,0.5,3.2c0,0.2,0,0.5,0,0.8c0,0.4,0,0.6-0.1,0.9
	h-14.6c0,2.3,0.7,4,1.8,5.3c1.2,1.2,2.7,1.9,4.7,1.9c1.2,0,2.3-0.2,3.2-0.6c0.9-0.4,1.8-1,2.6-1.9l1.8,1.6c-0.8,0.8-1.5,1.4-2.3,1.9
	s-1.6,0.8-2.5,1C108.7,338.3,107.8,338.4,106.7,338.4L106.7,338.4z M112.4,327.7c0-0.2,0.1-0.4,0.1-0.7v-0.7c0-0.7-0.1-1.4-0.3-2.1
	s-0.6-1.4-1.1-2c-0.5-0.6-1.1-1.1-1.9-1.4s-1.7-0.6-2.8-0.6c-1.2,0-2.3,0.3-3.2,0.9c-0.9,0.6-1.6,1.4-2.1,2.4s-0.8,2.2-0.9,3.4h13
	L112.4,327.7L112.4,327.7z M105.4,315.9l4.3-5.6h2.7l-5.1,5.6H105.4z"/>
<path class="st0" d="M-433.6,387.6c-1.1,0-2-0.4-2.7-1.1c-0.7-0.7-1-1.8-1-3.4v-23.7h2.5v23.3c0,0.9,0.2,1.6,0.5,2s0.8,0.6,1.4,0.6
	c0.3,0,0.6,0,0.9-0.1s0.6-0.1,1-0.3v2.2c-0.5,0.2-0.9,0.3-1.4,0.4C-432.9,387.6-433.3,387.6-433.6,387.6L-433.6,387.6z"/>
<path class="st0" d="M-418.4,387.6c-1.8,0-3.4-0.4-4.9-1.3c-1.4-0.9-2.5-2.1-3.3-3.6c-0.8-1.5-1.2-3.3-1.2-5.3s0.4-3.7,1.2-5.2
	c0.8-1.5,1.9-2.7,3.3-3.6s3.1-1.3,4.9-1.3s3.5,0.4,4.9,1.3c1.4,0.9,2.5,2.1,3.3,3.6c0.8,1.5,1.2,3.3,1.2,5.2s-0.4,3.7-1.2,5.3
	s-1.9,2.7-3.3,3.6S-416.6,387.6-418.4,387.6z M-418.4,385.4c1.4,0,2.6-0.3,3.6-1c1-0.7,1.8-1.6,2.4-2.8s0.8-2.6,0.8-4.1
	c0-1.6-0.3-3-0.8-4.2c-0.6-1.2-1.4-2.1-2.4-2.8s-2.2-1-3.6-1c-1.4,0-2.6,0.3-3.6,1c-1,0.7-1.9,1.6-2.4,2.8c-0.6,1.2-0.9,2.6-0.9,4.2
	s0.3,3,0.9,4.1s1.4,2.1,2.4,2.8C-421,385-419.8,385.4-418.4,385.4L-418.4,385.4z"/>
<path class="st0" d="M-396.3,395.8c-2.8,0-5-0.5-6.6-1.6c-1.6-1-2.4-2.5-2.4-4.3v-0.5c0-0.2,0-0.4,0.1-0.5l4.6-3.6l1,0.6l-3.1,3.6
	c0,0.1,0,0.2,0,0.3v0.3c0,1.3,0.6,2.2,1.8,2.9c1.2,0.6,2.8,1,4.7,1c1.6,0,3-0.3,4-0.8c1-0.5,1.6-1.3,1.6-2.4c0-0.6-0.2-1.1-0.5-1.5
	c-0.4-0.4-0.9-0.7-1.5-0.9c-0.6-0.2-1.4-0.4-2.2-0.6s-1.8-0.3-2.8-0.5c-1.2-0.2-2.3-0.4-3.4-0.8c-1.1-0.3-2-0.8-2.6-1.4
	s-1-1.5-1-2.5c0-0.9,0.3-1.7,0.9-2.4c0.6-0.7,1.4-1.3,2.4-1.8l1.6,1.1c-0.9,0.3-1.5,0.6-1.9,1.1c-0.4,0.5-0.6,1-0.6,1.7
	c0,0.6,0.2,1.1,0.6,1.5s1,0.7,1.7,0.9c0.7,0.2,1.6,0.4,2.6,0.5c1.2,0.2,2.4,0.4,3.5,0.6c1.1,0.2,2.1,0.5,3,0.9
	c0.9,0.4,1.5,0.9,2,1.5c0.5,0.6,0.7,1.5,0.7,2.5c0,1.8-0.7,3.1-2.2,4C-391.8,395.3-393.8,395.8-396.3,395.8L-396.3,395.8z
	 M-396.8,380.8c-1.4,0-2.7-0.3-3.9-0.8s-2-1.4-2.6-2.4c-0.6-1-0.9-2.2-0.9-3.5s0.3-2.5,1-3.5c0.6-1,1.5-1.8,2.7-2.4
	c1.1-0.6,2.4-0.9,3.7-0.9c1.4,0,2.6,0.3,3.7,0.9c1.1,0.6,2,1.4,2.6,2.4c0.6,1,1,2.2,1,3.6c0,1.3-0.3,2.4-0.9,3.4
	c-0.6,1-1.5,1.8-2.6,2.3C-394.2,380.5-395.4,380.8-396.8,380.8L-396.8,380.8z M-396.9,378.7c1.5,0,2.6-0.4,3.5-1.3
	c0.8-0.9,1.3-2,1.3-3.3c0-1.4-0.4-2.6-1.3-3.4s-2-1.3-3.4-1.3s-2.6,0.4-3.5,1.3s-1.4,2-1.4,3.4c0,1.4,0.4,2.5,1.3,3.3
	C-399.6,378.3-398.4,378.7-396.9,378.7L-396.9,378.7z M-390.8,371l-1.8-1.2l4-3.4l1.3,1.6C-387.4,368-390.8,371-390.8,371z"/>
<path class="st0" d="M-375.6,387.6c-1.8,0-3.4-0.4-4.9-1.3c-1.4-0.9-2.5-2.1-3.3-3.6c-0.8-1.5-1.2-3.3-1.2-5.3s0.4-3.7,1.2-5.2
	c0.8-1.5,1.9-2.7,3.3-3.6s3.1-1.3,4.9-1.3s3.5,0.4,4.9,1.3c1.4,0.9,2.5,2.1,3.3,3.6c0.8,1.5,1.2,3.3,1.2,5.2s-0.4,3.7-1.2,5.3
	s-1.9,2.7-3.3,3.6S-373.8,387.6-375.6,387.6z M-375.6,385.4c1.4,0,2.6-0.3,3.6-1c1-0.7,1.8-1.6,2.4-2.8s0.8-2.6,0.8-4.1
	c0-1.6-0.3-3-0.8-4.2c-0.6-1.2-1.4-2.1-2.4-2.8s-2.2-1-3.6-1c-1.4,0-2.6,0.3-3.6,1c-1,0.7-1.9,1.6-2.4,2.8c-0.6,1.2-0.9,2.6-0.9,4.2
	s0.3,3,0.9,4.1s1.4,2.1,2.4,2.8C-378.2,385-377,385.4-375.6,385.4L-375.6,385.4z"/>
<path class="st0" d="M-363,393.6l4.3-11.9h2.8l-5.3,11.9H-363z"/>
<path class="st0" d="M-337.4,392.1c-0.2,0.5-0.5,0.9-0.8,1.3c-2,0.3-3.6,0.8-5.1,1.5l0-0.1l0.5-0.8c0.2-0.2,0.6-0.5,0.9-0.6v-0.1
	c-0.9-0.3-1.5-0.9-1.5-1.7c0-0.5,0.4-1.2,0.9-1.7c0.6-0.6,1.6-1.1,2.4-1.1c0.8,0,1.2,0.4,1.2,1s-0.3,0.9-0.6,1.3h0
	c-0.2-0.4-0.4-0.7-0.6-0.8c-0.1,0-0.4-0.1-0.6-0.1c-0.7,0-1.4,0.4-1.4,0.7c0,0.9,1.6,1.2,2.8,1.2
	C-338.7,392.1-338,392.1-337.4,392.1L-337.4,392.1L-337.4,392.1z M-341.3,387.7c0.2-1.2,0.2-2.6,0.2-3.9v-1.9
	c0-3.6-0.4-8.8-0.7-12.1c0.5-0.7,1.3-1.5,1.9-2.1l0.2,0.1c0.4,4.3,0.5,9.2,0.5,13.8c0,1.2,0,2.4-0.1,3.2c-0.1,1.1-0.6,1.9-1.7,3.1
	L-341.3,387.7L-341.3,387.7z"/>
<path class="st0" d="M-322.7,367.3c0,1.4,0.6,2.9,1.6,4.5c-0.4,0.4-0.8,0.7-1.3,1.1c0.1,2.5,0.2,5.6,0.2,8.1c0,1.3,0,3-1,5.7
	c-0.6,1-1.4,1.6-2.2,2.2c-1.2,0.8-2.8,1.2-4.1,1.2c-1.7,0-3.1-0.6-4.1-1.7c-0.9-1-1.4-2.5-1.4-4.4c0-1.6,0.5-3.3,1.3-4.9l0.7,0.3
	c-0.5,1.1-0.8,2.3-0.8,3.4c0,1.1,0.3,2.1,1,3c0.8,1,2,1.6,3.4,1.6c1.3,0,2.4-0.4,3.4-0.9c1-0.5,1.7-1.1,2.1-1.8
	c0-0.4,0.1-0.8,0.1-1.2c0-3-0.2-6.6-0.5-10.9c-0.1-0.8-0.2-1.7-0.2-2.6c0-0.6,0.1-1.1,0.4-1.5c0.3-0.4,0.7-0.8,1.2-1.2L-322.7,367.3
	L-322.7,367.3z"/>
<path class="st0" d="M-302.9,379.9c-0.4-1.7-0.9-2.4-1.5-2.4c-0.9,0-2.1,0.6-3.1,1.4c-1.1,0.9-1.9,1.8-1.9,2.5
	c0,1.7,5.1,1.5,6.4,2.6c0.5,0.5,0.9,1.1,0.9,2.2c0,1-0.7,2.8-1.6,3.6c-1.9,1.8-4.9,3.2-7.5,3.2c-4.5,0-6.8-3.1-6.8-7.2
	c0-1.8,0.4-3.4,1-4.8l0.8,0.2c-0.4,1.3-0.6,2.4-0.6,3.4c0,3.7,2.5,5.7,5.7,5.7c1.2,0,3.3-0.5,5.3-1.6c1.2-0.7,2.4-1.7,2.4-2
	c0-0.6-1.4-1-3.1-1.3c-1.7-0.2-3.1-0.6-3.6-1.2c-0.4-0.5-0.7-1-0.7-1.8c0-2,0.8-3.6,2.2-5c1.4-1.4,3.5-2.8,4.8-2.8
	c0.6,0,1.1,0.3,1.4,1c0.3,0.7,0.5,1.3,0.5,1.8c0,0.5-0.5,1.5-0.8,2.2L-302.9,379.9L-302.9,379.9z"/>
<path class="st0" d="M-287.6,387.7c0.2-1.2,0.2-2.6,0.2-3.9v-1.9c0-3.6-0.4-8.8-0.7-12.1c0.6-0.7,1.3-1.5,1.9-2.1l0.2,0.1
	c0.4,4.3,0.5,9.2,0.5,13.8c0,1.2,0,2.4-0.1,3.2c-0.1,1.1-0.6,1.9-1.7,3.1L-287.6,387.7L-287.6,387.7z"/>
<path class="st0" d="M-269.5,367.3c0,1.4,0.6,2.9,1.6,4.5c-0.4,0.4-0.8,0.7-1.3,1.1c0.1,2.5,0.2,5.6,0.2,8.1c0,1.3,0,3-1,5.7
	c-0.6,1-1.4,1.6-2.2,2.2c-1.2,0.8-2.8,1.2-4.1,1.2c-1.7,0-3.1-0.6-4.1-1.7c-0.9-1-1.4-2.5-1.4-4.4c0-1.6,0.5-3.3,1.3-4.9l0.7,0.3
	c-0.5,1.1-0.8,2.3-0.8,3.4c0,1.1,0.3,2.1,1,3c0.8,1,2,1.6,3.4,1.6c1.3,0,2.4-0.4,3.4-0.9c1-0.5,1.7-1.1,2.1-1.8
	c0-0.4,0.1-0.8,0.1-1.2c0-3-0.2-6.6-0.5-10.9c-0.1-0.8-0.2-1.7-0.2-2.6c0-0.6,0.1-1.1,0.4-1.5c0.3-0.4,0.7-0.8,1.2-1.2L-269.5,367.3
	L-269.5,367.3z"/>
<path class="st0" d="M-252.7,367.3c0,1.4,0.6,2.9,1.6,4.5c-0.4,0.4-0.8,0.7-1.3,1.1c0.1,2.5,0.2,5.6,0.2,8.1c0,1.3,0,3-1,5.7
	c-0.6,1-1.4,1.6-2.2,2.2c-1.2,0.8-2.8,1.2-4.1,1.2c-1.7,0-3.1-0.6-4.1-1.7c-0.9-1-1.4-2.5-1.4-4.4c0-1.6,0.5-3.3,1.3-4.9l0.7,0.3
	c-0.5,1.1-0.8,2.3-0.8,3.4c0,1.1,0.3,2.1,1,3c0.8,1,2,1.6,3.4,1.6c1.3,0,2.4-0.4,3.4-0.9c1-0.5,1.7-1.1,2.1-1.8
	c0-0.4,0.1-0.8,0.1-1.2c0-3-0.2-6.6-0.5-10.9c-0.1-0.8-0.2-1.7-0.2-2.6c0-0.6,0.1-1.1,0.4-1.5c0.3-0.4,0.7-0.8,1.2-1.2L-252.7,367.3
	L-252.7,367.3z"/>
<path class="st0" d="M-234.3,384.1c-1.4,0-2.7-0.2-3.6-0.8c-1.1-0.8-1.4-1.8-1.4-3.2c0-0.7,0.3-1.6,0.7-2.3c0.7-1.2,1.9-2.4,3.2-2.4
	c1.6,0,2.9,1.2,3.9,3.8c0.4,1.1,0.9,3.1,0.9,4.8c0,1-0.1,1.9-0.3,2.8c-0.1,0.6-0.8,1.5-1.4,2.1c-1.9,1.7-4.8,3.3-8.2,3.3
	c-3.9,0-7.4-2.6-7.4-7.4c0-2,0.4-4,1.2-5.5l0.8,0.2c-0.4,1.1-0.7,2.2-0.7,3.2c0,4.1,2.5,6.6,6.1,6.6c1.8,0,4.1-0.4,6.3-1.9
	c1.2-0.8,2.4-1.8,2.4-2.4c0-0.4-0.1-0.8-0.3-1.1C-232.7,384-233.5,384.1-234.3,384.1L-234.3,384.1z M-238.1,372.6
	c-0.8-0.8-1.5-1.4-2.3-2c0.5-0.7,1.1-1.4,1.5-1.9c0.8,0.6,1.5,1.3,2.2,2.1C-237.2,371.5-237.5,372-238.1,372.6z M-235.7,377.9
	c-1.1,0-2.4,0.9-2.4,1.8c0,0.8,1.1,1.8,3.9,1.8c0.7,0,1.3,0,1.8-0.1C-233.1,379.2-234.2,377.9-235.7,377.9L-235.7,377.9z
	 M-234.3,372.3c-0.8-0.8-1.5-1.4-2.3-2c0.5-0.7,1.1-1.4,1.5-1.9c0.8,0.6,1.5,1.3,2.2,2.1C-233.4,371.3-233.8,371.8-234.3,372.3z"/>
<path class="st0" d="M-226.8,387.7c0.2-1.2,0.2-2.6,0.2-3.9v-1.9c0-3.6-0.4-8.8-0.7-12.1c0.6-0.7,1.3-1.5,1.9-2.1l0.2,0.1
	c0.4,4.3,0.5,9.2,0.5,13.8c0,1.2,0,2.4-0.1,3.2c-0.1,1.1-0.6,1.9-1.7,3.1L-226.8,387.7L-226.8,387.7z"/>
<path class="st0" d="M-212.3,383.4l-1,1.9c-2.2,0.2-4.7,0.8-7,2.2l-0.2-0.2l0.9-1.4c0.3-0.3,0.7-0.6,1.1-0.8V385
	c-1.2-0.4-2.1-1.2-2.1-2.3c0-1.2,0.7-2.1,1.3-2.7c1-0.9,2.3-1.5,3.4-1.5s1.9,0.6,1.9,1.5c0,0.6-0.2,1.2-0.9,1.8h-0.1
	c-0.1-0.4-0.4-0.8-0.6-1.1c-0.2-0.3-0.6-0.5-1-0.5c-0.6,0-1.3,0.3-1.7,0.6c-0.3,0.2-0.6,0.4-0.6,0.7c0,0.4,0.2,0.9,0.7,1.2
	c0.6,0.4,1.6,0.8,2.5,0.8c1.1,0,2.4-0.2,3.3-0.3L-212.3,383.4L-212.3,383.4z"/>
<path class="st0" d="M-208.2,383.5c1.1,0,2.8,1.2,2.8,3.2c0,2.3-2.1,3.6-4,4.1l-0.3-0.9c1.5-0.6,2.3-1.4,2.3-2.4s-0.8-1.7-1.9-2
	c-0.1,0-0.4-0.2-0.4-0.8C-209.7,384-209,383.5-208.2,383.5L-208.2,383.5z"/>
<path class="st0" d="M-185.8,387.3v-26.2h-10v-2.4h22.7v2.4h-10v26.2H-185.8L-185.8,387.3z"/>
<path class="st0" d="M-166.4,387.6c-1.4,0-2.6-0.3-3.7-0.9s-1.8-1.5-2.4-2.6c-0.6-1.2-0.8-2.6-0.8-4.4v-12.6h2.6v11.7
	c0,1.5,0.2,2.7,0.6,3.7s0.9,1.7,1.7,2.2c0.7,0.5,1.7,0.7,2.8,0.7c1.2,0,2.2-0.3,3.1-0.9c0.9-0.6,1.5-1.5,2-2.6
	c0.5-1.2,0.7-2.7,0.7-4.5v-10.2h2.6v20.2h-2.6v-4.7h0.6c-0.5,1.7-1.4,2.9-2.6,3.8C-163.2,387.2-164.7,387.6-166.4,387.6
	L-166.4,387.6z"/>
<path class="st0" d="M-154.1,369.2v-2.1h11.9v2.1H-154.1z M-145.2,387.6c-0.9,0-1.7-0.2-2.4-0.5c-0.7-0.4-1.2-0.9-1.6-1.7
	s-0.5-1.7-0.5-2.9v-21.2l2.6-1.5V382c0,1.1,0.2,1.9,0.5,2.6c0.4,0.6,1,0.9,2,0.9c0.3,0,0.7,0,1.1-0.1c0.4-0.1,0.8-0.2,1.2-0.3v2
	c-0.5,0.2-1,0.3-1.5,0.4C-144.2,387.6-144.7,387.6-145.2,387.6L-145.2,387.6z"/>
<path class="st0" d="M-131.4,387.6c-1.5,0-2.8-0.3-3.9-0.8c-1.1-0.5-2-1.2-2.5-2.1c-0.6-0.9-0.9-2-0.9-3.2c0-1.1,0.2-2,0.6-2.8
	c0.4-0.8,1-1.4,1.7-1.8c0.7-0.5,1.6-0.8,2.5-1c0.9-0.2,2-0.3,3-0.3h6.7v2h-6.4c-0.8,0-1.6,0.1-2.3,0.2c-0.8,0.1-1.4,0.4-1.9,0.8
	c-0.4,0.3-0.8,0.7-1,1.2c-0.2,0.5-0.4,1-0.4,1.7c0,1.2,0.4,2.2,1.3,2.9c0.9,0.7,2.1,1.1,3.6,1.1c1.2,0,2.4-0.3,3.4-0.9
	c1-0.6,1.8-1.4,2.4-2.4c0.6-1,0.9-2.2,0.9-3.5l1.1,1.2c-0.1,1.5-0.6,2.9-1.3,4.1s-1.7,2.1-2.9,2.7
	C-128.7,387.3-130,387.6-131.4,387.6L-131.4,387.6z M-124.3,387.3l-0.2-4.6v-8c0-1.9-0.5-3.3-1.4-4.2c-1-0.9-2.4-1.4-4.2-1.4
	c-1.2,0-2.3,0.2-3.3,0.7c-1,0.5-2,1.3-2.9,2.4l-1.9-1.6c1.1-1.3,2.3-2.3,3.7-2.9c1.4-0.6,2.9-0.9,4.6-0.9c2.6,0,4.5,0.7,5.9,2
	s2.1,3.3,2.1,5.9v12.6H-124.3L-124.3,387.3z"/>
<path class="st0" d="M-107.2,387.6c-1.9,0-3.5-0.4-5-1.3c-1.5-0.9-2.6-2.1-3.4-3.7s-1.2-3.4-1.2-5.4c0-2,0.4-3.8,1.2-5.4
	s1.9-2.8,3.4-3.7c1.5-0.9,3.1-1.3,5-1.3s3.5,0.4,5,1.3c1.4,0.9,2.6,2.1,3.4,3.7s1.2,3.4,1.2,5.4s-0.4,3.8-1.2,5.4
	c-0.8,1.6-2,2.8-3.4,3.7C-103.7,387.2-105.4,387.6-107.2,387.6L-107.2,387.6z M-107.2,385.3c1.4,0,2.7-0.3,3.7-1
	c1-0.7,1.9-1.6,2.4-2.9s0.9-2.6,0.9-4.2c0-1.6-0.3-3.1-0.9-4.3s-1.4-2.2-2.4-2.8c-1-0.7-2.3-1-3.7-1s-2.7,0.3-3.7,1
	c-1.1,0.7-1.9,1.6-2.5,2.8c-0.6,1.2-0.9,2.6-0.9,4.3c0,1.6,0.3,3,0.9,4.2c0.6,1.2,1.4,2.2,2.5,2.9
	C-109.9,385-108.7,385.3-107.2,385.3L-107.2,385.3z"/>
<path class="st0" d="M-92.2,387.3v-20.2h2.6v4.7l-0.6,0.2c0.4-1.1,0.9-2.1,1.5-2.8c0.7-0.8,1.4-1.4,2.4-1.8c0.9-0.4,1.9-0.6,3-0.6
	c2.2,0,3.9,0.6,5.1,2c1.2,1.3,1.9,3.3,1.9,5.9v12.6h-2.6v-11.7c0-2.2-0.4-3.9-1.2-5c-0.8-1.1-2.1-1.6-3.8-1.6c-1.1,0-2.1,0.3-3,0.8
	c-0.9,0.6-1.5,1.4-2,2.7s-0.7,2.8-0.7,4.7v10L-92.2,387.3L-92.2,387.3z"/>
<path class="st0" d="M-63.8,387.6c-1.5,0-2.8-0.3-3.9-0.8c-1.1-0.5-2-1.2-2.5-2.1c-0.6-0.9-0.9-2-0.9-3.2c0-1.1,0.2-2,0.6-2.8
	c0.4-0.8,1-1.4,1.7-1.8c0.7-0.5,1.6-0.8,2.5-1c0.9-0.2,2-0.3,3-0.3h6.7v2H-63c-0.8,0-1.6,0.1-2.3,0.2c-0.8,0.1-1.4,0.4-1.9,0.8
	c-0.4,0.3-0.8,0.7-1,1.2c-0.2,0.5-0.4,1-0.4,1.7c0,1.2,0.4,2.2,1.3,2.9c0.9,0.7,2.1,1.1,3.6,1.1c1.2,0,2.4-0.3,3.4-0.9
	c1-0.6,1.8-1.4,2.4-2.4c0.6-1,0.9-2.2,0.9-3.5l1.1,1.2c-0.1,1.5-0.6,2.9-1.3,4.1s-1.7,2.1-2.9,2.7
	C-61.1,387.3-62.4,387.6-63.8,387.6L-63.8,387.6z M-56.7,387.3l-0.2-4.6v-8c0-1.9-0.5-3.3-1.4-4.2c-1-0.9-2.4-1.4-4.2-1.4
	c-1.2,0-2.3,0.2-3.3,0.7c-1,0.5-2,1.3-2.9,2.4l-1.9-1.6c1.1-1.3,2.3-2.3,3.7-2.9c1.4-0.6,2.9-0.9,4.6-0.9c2.6,0,4.5,0.7,5.9,2
	s2.1,3.3,2.1,5.9v12.6H-56.7L-56.7,387.3z"/>
<path class="st0" d="M-48.2,387.3v-20.2h2.6v4.7l-0.6,0.2c0.4-1.1,0.9-2.1,1.5-2.8c0.7-0.8,1.4-1.4,2.4-1.8c0.9-0.4,1.9-0.6,3-0.6
	c2.2,0,3.9,0.6,5.1,2c1.2,1.3,1.9,3.3,1.9,5.9v12.6h-2.6v-11.7c0-2.2-0.4-3.9-1.2-5c-0.8-1.1-2.1-1.6-3.8-1.6c-1.1,0-2.1,0.3-3,0.8
	c-0.9,0.6-1.5,1.4-2,2.7s-0.7,2.8-0.7,4.7v10L-48.2,387.3L-48.2,387.3z"/>
<path class="st0" d="M-19.8,387.6c-1.5,0-2.8-0.3-3.9-0.8c-1.1-0.5-2-1.2-2.5-2.1c-0.6-0.9-0.9-2-0.9-3.2c0-1.1,0.2-2,0.6-2.8
	c0.4-0.8,1-1.4,1.7-1.8c0.7-0.5,1.6-0.8,2.5-1c0.9-0.2,2-0.3,3-0.3h6.7v2h-6.4c-0.8,0-1.6,0.1-2.3,0.2c-0.8,0.1-1.4,0.4-1.9,0.8
	c-0.4,0.3-0.8,0.7-1,1.2c-0.2,0.5-0.4,1-0.4,1.7c0,1.2,0.4,2.2,1.3,2.9c0.9,0.7,2.1,1.1,3.6,1.1c1.2,0,2.4-0.3,3.4-0.9
	c1-0.6,1.8-1.4,2.4-2.4c0.6-1,0.9-2.2,0.9-3.5l1.1,1.2c-0.1,1.5-0.6,2.9-1.3,4.1s-1.7,2.1-2.9,2.7
	C-17.1,387.3-18.4,387.6-19.8,387.6L-19.8,387.6z M-12.7,387.3l-0.2-4.6v-8c0-1.9-0.5-3.3-1.4-4.2c-1-0.9-2.4-1.4-4.2-1.4
	c-1.2,0-2.3,0.2-3.3,0.7c-1,0.5-2,1.3-2.9,2.4l-1.9-1.6c1.1-1.3,2.3-2.3,3.7-2.9c1.4-0.6,2.9-0.9,4.6-0.9c2.6,0,4.5,0.7,5.9,2
	s2.1,3.3,2.1,5.9v12.6H-12.7L-12.7,387.3z"/>
<g>
	<path class="st1" d="M161.9,193.7v-34.9h23.5v3h-20.1v12.7h17.4v3h-17.4v16.2H161.9z"/>
	<path class="st1" d="M189.1,193.7V169h3.3v6.5l-0.8,0.1c0.3-1.5,0.9-2.8,1.8-3.8s2-1.8,3.3-2.4c1.2-0.6,2.4-0.8,3.6-0.8
		c0.7,0,1.4,0.1,2.1,0.2c0.7,0.1,1.4,0.4,2.1,0.7l-1.6,2.8c-0.5-0.2-1-0.4-1.5-0.5c-0.6-0.1-1.1-0.2-1.6-0.2c-0.9,0-1.8,0.2-2.7,0.5
		c-0.9,0.3-1.7,0.9-2.5,1.6c-0.7,0.7-1.3,1.7-1.6,2.9c-0.1,0.5-0.3,1.1-0.3,1.9c-0.1,0.7-0.1,1.8-0.1,3.1v12H189.1z"/>
	<path class="st1" d="M209.4,164.2v-5.4h3.9v5.4H209.4z M209.7,193.7V169h3.3v24.6H209.7z"/>
	<path class="st1" d="M218.4,201.5l5.6-14.9h3.6l-6.9,14.9H218.4z"/>
	<path class="st1" d="M247.3,193.7v-34.9h23.5v3h-20.1v12.7h17.4v3h-17.4v16.2H247.3z"/>
	<path class="st1" d="M274.5,193.7V169h3.3v6.5l-0.8,0.1c0.3-1.5,0.9-2.8,1.8-3.8c0.9-1,2-1.8,3.3-2.4c1.2-0.6,2.4-0.8,3.6-0.8
		c0.7,0,1.4,0.1,2.1,0.2c0.7,0.1,1.4,0.4,2.1,0.7l-1.6,2.8c-0.5-0.2-1-0.4-1.5-0.5c-0.6-0.1-1.1-0.2-1.6-0.2c-0.9,0-1.8,0.2-2.7,0.5
		c-0.9,0.3-1.7,0.9-2.5,1.6c-0.7,0.7-1.3,1.7-1.6,2.9c-0.1,0.5-0.3,1.1-0.3,1.9c-0.1,0.7-0.1,1.8-0.1,3.1v12H274.5z"/>
	<path class="st1" d="M303.8,194c-1.9,0-3.6-0.3-5.1-1c-1.5-0.6-2.7-1.5-3.7-2.6c-1-1.1-1.7-2.5-2.2-4c-0.5-1.5-0.8-3.2-0.8-4.9
		c0-1.8,0.2-3.4,0.7-5c0.5-1.5,1.2-2.9,2.2-4.1c1-1.2,2.1-2.1,3.5-2.8c1.4-0.7,3-1,4.9-1c1.9,0,3.6,0.3,5,1c1.4,0.6,2.5,1.5,3.4,2.6
		c0.9,1.1,1.5,2.3,2,3.7c0.4,1.3,0.6,2.7,0.6,4.1c0,0.3,0,0.6,0,1c0,0.4-0.1,0.8-0.1,1.1h-18.9c0.1,2.8,0.9,5,2.4,6.6
		c1.5,1.6,3.5,2.4,6.1,2.4c1.6,0,3-0.2,4.2-0.7c1.2-0.5,2.3-1.3,3.3-2.4l2.3,2c-1,1-2,1.7-3,2.3c-1,0.6-2.1,1-3.2,1.3
		C306.3,193.9,305.1,194,303.8,194z M311.1,180.6c0.1-0.3,0.1-0.5,0.1-0.8s0-0.6,0-0.8c0-0.9-0.1-1.8-0.4-2.6
		c-0.3-0.9-0.8-1.7-1.4-2.5c-0.6-0.7-1.4-1.3-2.4-1.8c-1-0.5-2.2-0.7-3.6-0.7c-1.6,0-3,0.4-4.2,1.1c-1.2,0.8-2.1,1.8-2.8,3.1
		c-0.7,1.3-1,2.7-1.1,4.3h16.9L311.1,180.6z"/>
	<path class="st1" d="M331.6,194c-1.9,0-3.6-0.3-5.1-1c-1.5-0.6-2.7-1.5-3.7-2.6c-1-1.1-1.7-2.5-2.2-4c-0.5-1.5-0.8-3.2-0.8-4.9
		c0-1.8,0.2-3.4,0.7-5c0.5-1.5,1.2-2.9,2.2-4.1c1-1.2,2.1-2.1,3.5-2.8c1.4-0.7,3-1,4.9-1c1.9,0,3.6,0.3,5,1c1.4,0.6,2.5,1.5,3.4,2.6
		c0.9,1.1,1.5,2.3,2,3.7c0.4,1.3,0.6,2.7,0.6,4.1c0,0.3,0,0.6,0,1c0,0.4-0.1,0.8-0.1,1.1h-18.9c0.1,2.8,0.9,5,2.4,6.6
		c1.5,1.6,3.5,2.4,6.1,2.4c1.6,0,3-0.2,4.2-0.7c1.2-0.5,2.3-1.3,3.3-2.4l2.3,2c-1,1-2,1.7-3,2.3c-1,0.6-2.1,1-3.2,1.3
		C334.2,193.9,332.9,194,331.6,194z M339,180.6c0.1-0.3,0.1-0.5,0.1-0.8s0-0.6,0-0.8c0-0.9-0.1-1.8-0.4-2.6
		c-0.3-0.9-0.8-1.7-1.4-2.5c-0.6-0.7-1.4-1.3-2.4-1.8c-1-0.5-2.2-0.7-3.6-0.7c-1.6,0-3,0.4-4.2,1.1c-1.2,0.8-2.1,1.8-2.8,3.1
		c-0.7,1.3-1,2.7-1.1,4.3H340L339,180.6z"/>
	<path class="st1" d="M346.4,201.5l5.6-14.9h3.6l-6.9,14.9H346.4z"/>
	<path class="st1" d="M375.4,193.7v-34.9h3.4v31.9h16.7v3H375.4z"/>
	<path class="st1" d="M399.8,164.2v-5.4h3.9v5.4H399.8z M400.2,193.7V169h3.3v24.6H400.2z"/>
	<path class="st1" d="M423.7,194c-1.7,0-3.2-0.3-4.5-1c-1.4-0.6-2.5-1.6-3.5-2.7c-0.9-1.2-1.6-2.5-2.1-4l1-0.4v7.8h-3.3v-34.9h3.3
		v17.9l-0.9-0.5c0.4-1.4,1-2.7,2-3.8c0.9-1.1,2.1-2,3.4-2.7c1.3-0.7,2.9-1,4.5-1c2.2,0,4.1,0.5,5.9,1.6c1.7,1,3.1,2.5,4.2,4.4
		s1.6,4.1,1.6,6.6c0,2.4-0.5,4.6-1.5,6.5c-1,1.9-2.4,3.4-4.1,4.5C428,193.5,426,194,423.7,194z M423.2,191.1c1.7,0,3.3-0.4,4.6-1.3
		c1.3-0.8,2.4-2,3.1-3.5c0.8-1.5,1.1-3.2,1.1-5.1s-0.4-3.6-1.1-5c-0.8-1.5-1.8-2.6-3.1-3.5c-1.3-0.8-2.9-1.2-4.6-1.2
		c-1.7,0-3.3,0.4-4.6,1.2c-1.3,0.8-2.3,2-3.1,3.5c-0.7,1.5-1.1,3.1-1.1,5s0.4,3.6,1.1,5.1c0.7,1.5,1.8,2.6,3.1,3.5
		C420,190.7,421.5,191.1,423.2,191.1z"/>
	<path class="st1" d="M442.2,193.7V169h3.3v6.5l-0.8,0.1c0.3-1.5,0.9-2.8,1.8-3.8c0.9-1,2-1.8,3.3-2.4c1.2-0.6,2.4-0.8,3.6-0.8
		c0.7,0,1.4,0.1,2.1,0.2c0.7,0.1,1.4,0.4,2.1,0.7l-1.6,2.8c-0.5-0.2-1-0.4-1.5-0.5c-0.6-0.1-1.1-0.2-1.6-0.2c-0.9,0-1.8,0.2-2.7,0.5
		c-0.9,0.3-1.7,0.9-2.5,1.6c-0.7,0.7-1.3,1.7-1.6,2.9c-0.1,0.5-0.3,1.1-0.3,1.9c-0.1,0.7-0.1,1.8-0.1,3.1v12H442.2z"/>
	<path class="st1" d="M471.5,194c-1.9,0-3.6-0.3-5.1-1c-1.5-0.6-2.7-1.5-3.7-2.6c-1-1.1-1.7-2.5-2.2-4c-0.5-1.5-0.8-3.2-0.8-4.9
		c0-1.8,0.2-3.4,0.7-5c0.5-1.5,1.2-2.9,2.2-4.1c1-1.2,2.1-2.1,3.5-2.8c1.4-0.7,3-1,4.9-1c1.9,0,3.6,0.3,5,1c1.4,0.6,2.5,1.5,3.4,2.6
		c0.9,1.1,1.5,2.3,2,3.7c0.4,1.3,0.6,2.7,0.6,4.1c0,0.3,0,0.6,0,1c0,0.4-0.1,0.8-0.1,1.1H463c0.1,2.8,0.9,5,2.4,6.6
		c1.5,1.6,3.5,2.4,6.1,2.4c1.6,0,3-0.2,4.2-0.7c1.2-0.5,2.3-1.3,3.3-2.4l2.3,2c-1,1-2,1.7-3,2.3c-1,0.6-2.1,1-3.2,1.3
		C474.1,193.9,472.8,194,471.5,194z M478.9,180.6c0.1-0.3,0.1-0.5,0.1-0.8s0-0.6,0-0.8c0-0.9-0.1-1.8-0.4-2.6
		c-0.3-0.9-0.8-1.7-1.4-2.5c-0.6-0.7-1.4-1.3-2.4-1.8c-1-0.5-2.2-0.7-3.6-0.7c-1.6,0-3,0.4-4.2,1.1c-1.2,0.8-2.1,1.8-2.8,3.1
		c-0.7,1.3-1,2.7-1.1,4.3h16.9L478.9,180.6z"/>
	<path class="st1" d="M518.3,167.8v13.4H515v-13.4H518.3z"/>
	<path class="st1" d="M528.5,167.8c0.3,6.1,0.5,9.7,0.6,10.9c0.1,1.2,0.3,2.3,0.6,3.3c2.5-0.2,4.2-0.6,5.3-1.2
		c1.1-0.6,1.8-1.3,2.2-2.1c0.4-0.9,0.6-2.2,0.8-3.9l0.6-6.9h3.3l-0.6,7.7c-0.2,2.5-0.7,4.2-1.5,5.4c-0.7,1.1-1.8,2-3.2,2.6
		c-1.4,0.6-3.4,1-6.1,1.3c0.6,2.2,1.7,3.9,3.3,5.1c1.6,1.2,3.5,1.8,5.8,1.8c3.4,0,5.9-1.1,7.5-3.2c1.6-2.1,2.7-5.3,3.1-9.5l1.1-11.1
		h3.3l-1.1,11c-0.6,5.7-2,9.8-4.2,12.1c-2.3,2.3-5.5,3.5-9.8,3.5c-4.5,0-7.9-1.6-10.1-4.7c-2.2-3.1-3.5-8-3.8-14.8l-0.3-7.1H528.5z"
		/>
	<path class="st1" d="M560.6,168.6c2.8-0.9,5.6-1.3,8.6-1.3c3.7,0,6.7,1.1,9.1,3.4c2.4,2.2,3.6,5.5,3.6,9.7c0,4.4-1.3,7.7-3.9,10.1
		c-2.6,2.4-5.9,3.6-10.1,3.6c-3.1,0-5.6-0.5-7.6-1.5l0.9-2.7c1.7,0.9,3.8,1.3,6.3,1.3c3.4,0,6-0.9,8-2.8c2-1.9,3-4.5,3-7.9
		c0-3.3-0.9-5.8-2.7-7.6c-1.8-1.8-4.3-2.7-7.4-2.7c-1.7,0-3.2,0.2-4.6,0.6v5c0,2.6,1.1,3.9,3.2,3.9c0.8,0,1.5-0.1,2.2-0.3l0.5,2.8
		c-0.8,0.3-1.8,0.4-3.1,0.4c-1.8,0-3.3-0.5-4.4-1.6c-1.1-1.1-1.7-2.8-1.7-5.1V168.6z"/>
	<path class="st1" d="M591.8,167.8v25.9h-3.3v-25.9H591.8z"/>
	<path class="st1" d="M622,193.7h-3.3v-14.8c0-1.9-0.3-3.5-0.8-4.7c-0.5-1.2-1.5-2.1-3-2.8c-1.5-0.7-3.6-1-6.3-1
		c-1.8,0-3.6,0.1-5.3,0.3v23h-3.3v-25.4c3.6-0.6,6.6-0.9,9.1-0.9c3.1,0,5.6,0.5,7.6,1.5c2,1,3.3,2.3,4,3.9c0.7,1.6,1.1,3.7,1.1,6.4
		V193.7z"/>
	<path class="st1" d="M659.5,196.4l-14.3-34.9h3.7l12.4,30.9h-0.8l12.3-30.9h3.7l-14.3,34.9H659.5z"/>
	<path class="st1" d="M678.7,196.4v-24.6h3.3v6.5l-0.8,0.1c0.3-1.5,0.9-2.8,1.8-3.8c0.9-1,2-1.8,3.3-2.4c1.2-0.6,2.4-0.8,3.6-0.8
		c0.7,0,1.4,0.1,2.1,0.2c0.7,0.1,1.4,0.4,2.1,0.7l-1.6,2.8c-0.5-0.2-1-0.4-1.5-0.5c-0.6-0.1-1.1-0.2-1.6-0.2c-0.9,0-1.8,0.2-2.7,0.5
		c-0.9,0.3-1.7,0.9-2.5,1.6c-0.7,0.7-1.3,1.7-1.6,2.9c-0.1,0.5-0.3,1.1-0.3,1.9c-0.1,0.7-0.1,1.8-0.1,3.1v12H678.7z"/>
	<path class="st1" d="M699,167v-5.4h3.9v5.4H699z M699.3,196.4v-24.6h3.3v24.6H699.3z"/>
	<path class="st1" d="M709,207c-0.6,0-1.1-0.1-1.8-0.2c-0.6-0.1-1.3-0.3-1.9-0.4v-2.8c0.6,0.2,1,0.3,1.5,0.4
		c0.4,0.1,0.8,0.1,1.1,0.1c0.9,0,1.6-0.3,2-0.8c0.4-0.5,0.7-1.4,0.7-2.6v-28.9h3.3v29.6c0,1.9-0.4,3.3-1.3,4.2
		C711.7,206.5,710.5,207,709,207z M710.3,167v-5.4h3.9v5.4H710.3z"/>
	<path class="st1" d="M719.3,204.2l5.6-14.9h3.6l-6.9,14.9H719.3z"/>
	<path class="st1" d="M160.5,241.3v-34.9h3.4v31.9h16.7v3H160.5z"/>
	<path class="st1" d="M185,211.9v-5.4h3.9v5.4H185z M185.3,241.3v-24.6h3.3v24.6H185.3z"/>
	<path class="st1" d="M204.6,241.3l-10.5-24.6h3.6l8.3,20.6l8.3-20.6h3.6l-10.4,24.6H204.6z"/>
	<path class="st1" d="M223.4,241.3v-24.6h3.3v6.5l-0.8,0.1c0.3-1.5,0.9-2.8,1.8-3.8c0.9-1,2-1.8,3.3-2.4c1.2-0.6,2.4-0.8,3.6-0.8
		c0.7,0,1.4,0.1,2.1,0.2c0.7,0.1,1.4,0.4,2.1,0.7l-1.6,2.8c-0.5-0.2-1-0.4-1.5-0.5c-0.6-0.1-1.1-0.2-1.6-0.2c-0.9,0-1.8,0.2-2.7,0.5
		c-0.9,0.3-1.7,0.9-2.5,1.6c-0.7,0.7-1.3,1.7-1.6,2.9c-0.1,0.5-0.3,1.1-0.3,1.9c-0.1,0.7-0.1,1.8-0.1,3.1v12H223.4z"/>
	<path class="st1" d="M252.6,241.7c-1.9,0-3.6-0.3-5.1-1c-1.5-0.6-2.7-1.5-3.7-2.6c-1-1.1-1.7-2.5-2.2-4c-0.5-1.5-0.8-3.2-0.8-4.9
		c0-1.8,0.2-3.4,0.7-5c0.5-1.5,1.2-2.9,2.2-4.1c1-1.2,2.1-2.1,3.5-2.8c1.4-0.7,3-1,4.9-1c1.9,0,3.6,0.3,5,1c1.4,0.6,2.5,1.5,3.4,2.6
		c0.9,1.1,1.5,2.3,2,3.7c0.4,1.3,0.6,2.7,0.6,4.1c0,0.3,0,0.6,0,1c0,0.4-0.1,0.8-0.1,1.1h-18.9c0.1,2.8,0.9,5,2.4,6.6
		c1.5,1.6,3.5,2.4,6.1,2.4c1.6,0,3-0.2,4.2-0.7c1.2-0.5,2.3-1.3,3.3-2.4l2.3,2c-1,1-2,1.7-3,2.3c-1,0.6-2.1,1-3.2,1.3
		C255.2,241.5,254,241.7,252.6,241.7z M260,228.2c0.1-0.3,0.1-0.5,0.1-0.8s0-0.6,0-0.8c0-0.9-0.1-1.8-0.4-2.6
		c-0.3-0.9-0.8-1.7-1.4-2.5c-0.6-0.7-1.4-1.3-2.4-1.8c-1-0.5-2.2-0.7-3.6-0.7c-1.6,0-3,0.4-4.2,1.1c-1.2,0.8-2.1,1.8-2.8,3.1
		c-0.7,1.3-1,2.7-1.1,4.3h16.9L260,228.2z"/>
	<path class="st1" d="M267.5,249.1l5.6-14.9h3.6l-6.9,14.9H267.5z"/>
	<path class="st1" d="M308.6,219c-3.7-1.3-6-1.7-9-1.7c-1.8,0-3.2,0.6-4.1,1.6l0.6,2.6l-0.9,2.5l-0.4,0.1l-1.9-4.9
		c0.3-3.5,3.1-5.6,7-5.6c2.2,0,5.6,0.7,10.6,2.7c1.6,0.6,3.1,1,5.5,1l2.8,0l0,0.1l-1.9,3.1c-2.2,0.2-7.1,1.5-8.6,2.1
		c-7.1,2.6-12,6.2-12,10.4c0,6.5,7.1,10.2,16.1,10.2c2.9,0,5.7-0.3,8.3-0.7l0.1,0.3c-1.6,1.3-3.5,2.7-5.3,3.7
		c-1.7,0.3-3.8,0.6-6.1,0.6c-8.5,0-15.6-4-15.6-12.6C294.1,226.8,300.6,221,308.6,219L308.6,219z"/>
	<path class="st1" d="M335.1,213.1l2.3,4.2c0.8,1.6,1.6,3.2,1.6,5.9v3.4c0,2.8-1.6,5.7-4.1,8.7c-2,2-3.7,2.8-5.3,2.8
		c-2.4,0-5.1-0.8-8.3-2.4l0.4-1.1c1,0.3,2.2,0.6,3.6,0.6c4.6,0,9.2-3.8,11.3-8.4c0.3-0.5,0.4-1,0.4-1.4c0-0.5-0.3-1.1-0.5-1.6
		c-1.2-2.5-2.5-4.8-3.9-6.8c0.7-1.3,1.5-2.6,2.3-3.9L335.1,213.1z"/>
	<path class="st1" d="M336.7,251l5.6-14.9h3.6L339,251H336.7z"/>
	<path class="st1" d="M396.9,204.2c-0.1,0.3-0.5,0.4-1,0.5c-0.5,1.4-1.3,3.3-2,4.9h16.4v34.2h-3.2v-2.3h-24.6v2.6h-3v-34.4h11.2
		c0.8-1.9,1.6-4.4,2-6.1L396.9,204.2z M407.2,212.5h-24.6v7h24.6V212.5z M407.2,222.1h-24.6v6.9h24.6V222.1z M382.6,238.7h24.6v-6.9
		h-24.6V238.7z"/>
	<path class="st1" d="M439.3,212.1h16.4v31.6h-3.1v-2.6h-29.6v2.8h-3v-31.8h16.2v-8.6l4,0.2c0,0.3-0.3,0.5-0.9,0.6V212.1z
		 M436.2,215.1h-13.1v10h13.1V215.1z M423.1,227.9v10.3h13.1v-10.3H423.1z M452.7,215.1h-13.3v10h13.3V215.1z M439.3,238.2h13.3
		v-10.3h-13.3V238.2z"/>
	<path class="st1" d="M489.8,244.2v-34.9h3.4v15.6h19.1v-15.6h3.4v34.9h-3.4v-16.2h-19.1v16.2H489.8z"/>
	<path class="st1" d="M532.5,244.5c-1.8,0-3.4-0.4-4.7-1.1c-1.3-0.7-2.3-1.8-3-3.2c-0.7-1.4-1.1-3.2-1.1-5.4v-15.4h3.3v14.2
		c0,1.8,0.2,3.3,0.7,4.5c0.5,1.2,1.2,2.1,2.1,2.6c0.9,0.6,2.1,0.9,3.5,0.9c1.5,0,2.8-0.4,3.9-1.1c1.1-0.7,1.9-1.8,2.5-3.2
		c0.6-1.4,0.9-3.3,0.9-5.5v-12.5h3.3v24.6h-3.3v-5.8h0.8c-0.7,2-1.8,3.6-3.3,4.6C536.5,244,534.6,244.5,532.5,244.5z"/>
	<path class="st1" d="M551.9,244.2v-24.6h3.3v6.5l-0.8,0.1c0.3-1.5,0.9-2.8,1.8-3.8s2-1.8,3.3-2.4c1.2-0.6,2.4-0.8,3.6-0.8
		c0.7,0,1.4,0.1,2.1,0.2c0.7,0.1,1.4,0.4,2.1,0.7l-1.6,2.8c-0.5-0.2-1-0.4-1.5-0.5c-0.6-0.1-1.1-0.2-1.6-0.2c-0.9,0-1.8,0.2-2.7,0.5
		c-0.9,0.3-1.7,0.9-2.5,1.6c-0.7,0.7-1.3,1.7-1.6,2.9c-0.1,0.5-0.3,1.1-0.3,1.9c-0.1,0.7-0.1,1.8-0.1,3.1v12H551.9z"/>
	<path class="st1" d="M580.7,244.5c-1.8,0-3.4-0.4-4.7-1.1c-1.3-0.7-2.3-1.8-3-3.2c-0.7-1.4-1.1-3.2-1.1-5.4v-15.4h3.3v14.2
		c0,1.8,0.2,3.3,0.7,4.5c0.5,1.2,1.2,2.1,2.1,2.6c0.9,0.6,2.1,0.9,3.5,0.9c1.5,0,2.8-0.4,3.9-1.1c1.1-0.7,1.9-1.8,2.5-3.2
		c0.6-1.4,0.9-3.3,0.9-5.5v-12.5h3.3v24.6h-3.3v-5.8h0.8c-0.7,2-1.8,3.6-3.3,4.6C584.7,244,582.8,244.5,580.7,244.5z"/>
	<path class="st1" d="M597.5,252l5.6-14.9h3.6l-6.9,14.9H597.5z"/>
	<path class="st1" d="M175.7,298.1c-3.3,0-6.2-0.7-8.6-2.2c-2.5-1.5-4.4-3.6-5.8-6.2c-1.4-2.7-2.1-5.8-2.1-9.4s0.7-6.8,2.1-9.5
		c1.4-2.7,3.3-4.8,5.8-6.3c2.5-1.5,5.3-2.2,8.6-2.2c3.4,0,6.3,0.7,8.7,2.2c2.5,1.5,4.4,3.6,5.8,6.3c1.4,2.7,2.1,5.9,2.1,9.5
		s-0.7,6.7-2.1,9.4c-1.4,2.7-3.3,4.8-5.8,6.2C181.8,297.4,179,298.1,175.7,298.1z M175.6,295c2.7,0,5-0.6,7-1.8
		c2-1.2,3.5-2.9,4.5-5.1c1.1-2.2,1.6-4.8,1.6-7.8c0-3-0.5-5.6-1.6-7.9c-1.1-2.2-2.6-3.9-4.5-5.1c-2-1.2-4.3-1.8-7-1.8
		c-2.6,0-4.9,0.6-6.9,1.8c-2,1.2-3.5,2.9-4.5,5.1c-1.1,2.2-1.6,4.8-1.6,7.9c0,3,0.5,5.6,1.6,7.9c1.1,2.2,2.6,3.9,4.5,5.1
		C170.7,294.4,173,295,175.6,295z M169.1,258v-5.4h3.9v5.4H169.1z M178.4,258v-5.4h3.9v5.4H178.4z"/>
	<path class="st1" d="M197,297.6v-2.4l17.2-20.4l0.2,0.6h-16.5V273h19.5v2.5l-17.1,20.4l-0.1-0.9h17v2.6H197z"/>
	<path class="st1" d="M233.5,308.2c-3.6,0-6.5-0.6-8.6-2c-2.1-1.3-3.1-3.1-3.1-5.4c0-0.2,0-0.4,0-0.6s0-0.5,0.1-0.7l5.9-4.6l1.2,0.8
		l-4,4.4c0,0.1-0.1,0.3-0.1,0.4c0,0.1,0,0.2,0,0.3c0,1.6,0.8,2.8,2.4,3.6c1.6,0.8,3.6,1.2,6.1,1.2c2.1,0,3.8-0.3,5.2-1
		c1.4-0.6,2.1-1.7,2.1-3c0-0.8-0.2-1.4-0.7-1.9c-0.5-0.5-1.1-0.9-1.9-1.1c-0.8-0.3-1.8-0.5-2.9-0.7c-1.1-0.2-2.3-0.4-3.6-0.6
		c-1.5-0.2-3-0.6-4.4-1c-1.4-0.4-2.5-1-3.4-1.8c-0.9-0.8-1.3-1.8-1.3-3.2c0-1.1,0.4-2.1,1.1-3c0.8-0.9,1.8-1.6,3.2-2.3l2.1,1.4
		c-1.2,0.3-2,0.8-2.5,1.4c-0.5,0.6-0.8,1.3-0.8,2.1c0,0.8,0.3,1.4,0.8,1.9c0.5,0.5,1.3,0.8,2.2,1.1c1,0.2,2.1,0.5,3.3,0.6
		c1.6,0.2,3.1,0.5,4.5,0.8c1.4,0.3,2.7,0.6,3.8,1.1c1.1,0.5,2,1.1,2.6,1.9c0.6,0.8,1,1.8,1,3.1c0,2.2-0.9,3.9-2.8,5.1
		C239.2,307.6,236.7,308.2,233.5,308.2z M232.7,289.5c-1.9,0-3.5-0.4-5-1.1c-1.5-0.7-2.6-1.7-3.4-2.9c-0.8-1.3-1.2-2.7-1.2-4.4
		c0-1.7,0.4-3.1,1.3-4.4c0.8-1.3,2-2.3,3.5-3c1.5-0.7,3.1-1.1,4.8-1.1s3.4,0.4,4.8,1.1c1.4,0.7,2.6,1.7,3.4,3
		c0.8,1.3,1.3,2.8,1.3,4.5c0,1.6-0.4,3.1-1.2,4.3c-0.8,1.2-1.9,2.2-3.3,2.9C236.2,289.1,234.6,289.5,232.7,289.5z M232.7,286.9
		c1.9,0,3.4-0.5,4.5-1.6c1.1-1.1,1.7-2.5,1.7-4.1c0-1.8-0.6-3.2-1.7-4.3c-1.1-1.1-2.6-1.6-4.5-1.6c-1.9,0-3.4,0.6-4.6,1.7
		c-1.2,1.1-1.8,2.5-1.8,4.2c0,1.7,0.6,3.1,1.7,4.2C229.2,286.3,230.7,286.9,232.7,286.9z M240.5,277.2l-2.4-1.6l5.1-4.2l1.7,2
		L240.5,277.2z"/>
	<path class="st1" d="M257.8,298c-1.8,0-3.4-0.4-4.7-1.1c-1.3-0.7-2.3-1.8-3-3.2c-0.7-1.4-1.1-3.2-1.1-5.4V273h3.3v14.2
		c0,1.8,0.2,3.3,0.7,4.5c0.5,1.2,1.2,2.1,2.1,2.6c0.9,0.6,2.1,0.9,3.5,0.9c1.5,0,2.8-0.4,3.9-1.1c1.1-0.7,1.9-1.8,2.5-3.2
		c0.6-1.4,0.9-3.3,0.9-5.5V273h3.3v24.6h-3.3v-5.8h0.8c-0.7,2-1.8,3.6-3.3,4.6C261.8,297.5,259.9,298,257.8,298z M252.5,268.2v-5.4
		h3.9v5.4H252.5z M261.8,268.2v-5.4h3.9v5.4H261.8z"/>
	<path class="st1" d="M277.2,297.6V273h3.3v6.5l-0.8,0.1c0.3-1.5,0.9-2.8,1.8-3.8c0.9-1,2-1.8,3.3-2.4c1.2-0.6,2.4-0.8,3.6-0.8
		c0.7,0,1.4,0.1,2.1,0.2c0.7,0.1,1.4,0.4,2.1,0.7l-1.6,2.8c-0.5-0.2-1-0.4-1.5-0.5c-0.6-0.1-1.1-0.2-1.6-0.2c-0.9,0-1.8,0.2-2.7,0.5
		c-0.9,0.3-1.7,0.9-2.5,1.6c-0.7,0.7-1.3,1.7-1.6,2.9c-0.1,0.5-0.3,1.1-0.3,1.9c-0.1,0.7-0.1,1.8-0.1,3.1v12H277.2z"/>
	<path class="st1" d="M292.6,305.4l5.6-14.9h3.6l-6.9,14.9H292.6z"/>
	<path class="st1" d="M334.4,298.5l-14.3-34.9h3.7l12.4,30.9h-0.8l12.3-30.9h3.7l-14.3,34.9H334.4z"/>
	<path class="st1" d="M361.2,298.8c-1.9,0-3.6-0.3-5-1s-2.5-1.5-3.2-2.6c-0.7-1.1-1.1-2.4-1.1-3.9c0-1.3,0.3-2.5,0.8-3.4
		c0.5-0.9,1.2-1.6,2.1-2.2c0.9-0.6,2-1,3.2-1.2c1.2-0.2,2.5-0.3,3.9-0.3h8.5v2.4h-8c-1,0-2,0.1-2.9,0.2c-1,0.2-1.8,0.5-2.4,1
		c-0.6,0.4-1,0.8-1.3,1.4c-0.3,0.6-0.4,1.3-0.4,2.1c0,1.5,0.6,2.7,1.7,3.6c1.1,0.9,2.7,1.3,4.6,1.3c1.6,0,3-0.4,4.3-1.1
		c1.3-0.7,2.3-1.7,3.1-3c0.8-1.3,1.2-2.7,1.2-4.2l1.4,1.5c-0.2,1.9-0.7,3.5-1.7,4.9c-0.9,1.4-2.1,2.5-3.6,3.3
		C364.6,298.5,363,298.8,361.2,298.8z M370.2,298.5l-0.2-5.6v-9.8c0-2.3-0.6-4-1.8-5.1c-1.2-1.2-3-1.8-5.3-1.8
		c-1.5,0-2.9,0.3-4.2,0.9c-1.3,0.6-2.5,1.6-3.6,3l-2.4-2c1.4-1.6,2.9-2.8,4.6-3.5s3.6-1.1,5.8-1.1c3.3,0,5.8,0.8,7.5,2.5
		c1.8,1.6,2.6,4,2.6,7.2v15.4H370.2z"/>
	<path class="st1" d="M381,308.7v-34.9h3.3v7.8l-1-0.7c0.5-1.6,1.2-2.9,2.1-4c0.9-1.1,2.1-1.9,3.4-2.5c1.4-0.6,2.9-0.9,4.5-0.9
		c2.3,0,4.3,0.6,6,1.7c1.7,1.1,3.1,2.6,4.1,4.5c1,1.9,1.5,4.1,1.5,6.5c0,2.5-0.5,4.7-1.6,6.6c-1,1.9-2.4,3.4-4.2,4.4
		c-1.7,1.1-3.7,1.6-5.9,1.6c-1.7,0-3.2-0.3-4.5-0.9c-1.4-0.6-2.5-1.5-3.4-2.6c-0.9-1.1-1.6-2.4-1.9-3.8l0.9-0.8v17.9H381z
		 M392.7,295.9c1.7,0,3.3-0.4,4.6-1.2c1.3-0.8,2.4-2,3.1-3.5c0.8-1.5,1.1-3.1,1.1-5c0-1.9-0.4-3.6-1.1-5.1c-0.8-1.5-1.8-2.6-3.1-3.5
		c-1.3-0.8-2.9-1.3-4.6-1.3c-1.7,0-3.3,0.4-4.6,1.3c-1.3,0.9-2.3,2-3.1,3.5c-0.7,1.5-1.1,3.1-1.1,5.1c0,1.9,0.4,3.6,1.1,5
		c0.7,1.5,1.8,2.6,3.1,3.5C389.5,295.5,391,295.9,392.7,295.9z"/>
	<path class="st1" d="M419.8,298.8c-1.9,0-3.6-0.3-5-1s-2.5-1.5-3.2-2.6c-0.7-1.1-1.1-2.4-1.1-3.9c0-1.3,0.3-2.5,0.8-3.4
		c0.5-0.9,1.2-1.6,2.1-2.2c0.9-0.6,2-1,3.2-1.2c1.2-0.2,2.5-0.3,3.9-0.3h8.5v2.4h-8c-1,0-2,0.1-2.9,0.2c-1,0.2-1.8,0.5-2.4,1
		c-0.6,0.4-1,0.8-1.3,1.4c-0.3,0.6-0.4,1.3-0.4,2.1c0,1.5,0.6,2.7,1.7,3.6c1.1,0.9,2.7,1.3,4.6,1.3c1.6,0,3-0.4,4.3-1.1
		c1.3-0.7,2.3-1.7,3.1-3c0.8-1.3,1.2-2.7,1.2-4.2l1.4,1.5c-0.2,1.9-0.7,3.5-1.7,4.9c-0.9,1.4-2.1,2.5-3.6,3.3
		C423.3,298.5,421.6,298.8,419.8,298.8z M428.9,298.5l-0.2-5.6v-9.8c0-2.3-0.6-4-1.8-5.1c-1.2-1.2-3-1.8-5.3-1.8
		c-1.5,0-2.9,0.3-4.2,0.9c-1.3,0.6-2.5,1.6-3.6,3l-2.4-2c1.4-1.6,2.9-2.8,4.6-3.5s3.6-1.1,5.8-1.1c3.3,0,5.8,0.8,7.5,2.5
		c1.8,1.6,2.6,4,2.6,7.2v15.4H428.9z"/>
	<path class="st1" d="M447.7,298.8c-1.9,0-3.6-0.3-5-1c-1.4-0.6-2.5-1.5-3.2-2.6c-0.7-1.1-1.1-2.4-1.1-3.9c0-1.3,0.3-2.5,0.8-3.4
		c0.5-0.9,1.2-1.6,2.1-2.2c0.9-0.6,2-1,3.2-1.2c1.2-0.2,2.5-0.3,3.9-0.3h8.5v2.4h-8c-1,0-2,0.1-2.9,0.2c-1,0.2-1.8,0.5-2.4,1
		c-0.6,0.4-1,0.8-1.3,1.4c-0.3,0.6-0.4,1.3-0.4,2.1c0,1.5,0.6,2.7,1.7,3.6c1.1,0.9,2.7,1.3,4.6,1.3c1.6,0,3-0.4,4.3-1.1
		c1.3-0.7,2.3-1.7,3.1-3c0.8-1.3,1.2-2.7,1.2-4.2l1.4,1.5c-0.2,1.9-0.7,3.5-1.7,4.9c-0.9,1.4-2.1,2.5-3.6,3.3
		C451.2,298.5,449.5,298.8,447.7,298.8z M456.7,298.5l-0.2-5.6v-9.8c0-2.3-0.6-4-1.8-5.1c-1.2-1.2-3-1.8-5.3-1.8
		c-1.5,0-2.9,0.3-4.2,0.9c-1.3,0.6-2.5,1.6-3.6,3l-2.4-2c1.4-1.6,2.9-2.8,4.6-3.5c1.7-0.8,3.6-1.1,5.8-1.1c3.3,0,5.8,0.8,7.5,2.5
		c1.8,1.6,2.6,4,2.6,7.2v15.4H456.7z"/>
	<path class="st1" d="M460.9,306.3l5.6-14.9h3.6l-6.9,14.9H460.9z"/>
	<path class="st1" d="M514.7,295.4c-1.3,0.5-2.3,1.4-3.1,2.5c-1.6-1.2-3.4-3.1-5.3-5.7s-3.4-4.9-4.4-6.8c-2.1,5-5.1,9.3-8.9,12.9
		c-0.9-1.1-1.9-1.9-2.9-2.5c3.3-2.6,5.9-5.9,7.8-10s2.8-7.9,2.8-11.4h-8.8v-3.2h21.3v3.2h-8.9c-0.1,0.9-0.2,2.2-0.4,3.9l-0.3,2.3
		c0,0.7,1.1,2.8,3.4,6.4C509.2,290.5,511.8,293.3,514.7,295.4z M527.7,286.7h-6.9v17.5h-3.3V266h3.3v17.6h6.9V286.7z"/>
	<path class="st1" d="M571,289.7h-10.2V304h-3.3v-14.3h-10.4V304h-3.3v-14.3h-10.2v-3.2H571V289.7z M566.7,276.1
		c0,2.2-1.4,4.1-4.1,5.7c-2.7,1.6-6.2,2.4-10.3,2.4c-4.2,0-7.7-0.8-10.4-2.3c-2.7-1.6-4-3.5-4-5.8c0-2.2,1.4-4.1,4.2-5.7
		c2.8-1.6,6.2-2.4,10.2-2.4c4,0,7.4,0.8,10.2,2.4S566.7,273.9,566.7,276.1z M562.8,276.1c0-1.4-1-2.5-3-3.5c-2-1-4.5-1.4-7.4-1.4
		c-3,0-5.5,0.5-7.5,1.4s-3,2.1-3,3.5c0,1.4,1,2.6,3,3.5s4.5,1.4,7.5,1.4c3,0,5.4-0.5,7.4-1.5C561.8,278.7,562.8,277.5,562.8,276.1z"
		/>
	<path class="st1" d="M615.2,300.2h-38.4v-3.3h17.4v-6.6h-12.1v-12h23.2V273h-23.2v-3.4h26.7v11.9h-23.2v5.3h24.3v3.4h-12.4v6.6
		h17.7V300.2z"/>
	<path class="st1" d="M657.9,288.7h-16.7v5.9h-3.3v-5.9h-16.7v-3.2h36.7V288.7z M653.9,275.4c0,2-1.4,3.7-4.1,5.2
		c-2.7,1.5-6.2,2.2-10.3,2.2c-4.2,0-7.7-0.7-10.4-2.1c-2.7-1.4-4-3.2-4-5.3c0-2,1.4-3.7,4.2-5.2c2.8-1.5,6.2-2.2,10.2-2.2
		c4,0,7.4,0.7,10.2,2.2S653.9,273.4,653.9,275.4z M653.6,303.3h-27.6v-12.8h3.4v9.5h24.2V303.3z M650.1,275.4c0-1.2-1-2.1-3-2.9
		s-4.5-1.2-7.5-1.2c-3,0-5.5,0.4-7.5,1.2s-3,1.8-3,2.9c0,1.2,1,2.2,3,3s4.5,1.2,7.5,1.2s5.5-0.4,7.5-1.2S650.1,276.6,650.1,275.4z"
		/>
	<path class="st1" d="M843.1,206.3l5.6-14.9h3.6l-6.9,14.9H843.1z"/>
	<path class="st1" d="M458.6,253l5.6-14.9h3.6l-6.9,14.9H458.6z"/>
	<path class="st1" d="M622.3,201.7l5.6-14.9h3.6l-6.9,14.9H622.3z"/>
	<path class="st1" d="M484.1,198.6l5.6-14.9h3.6l-6.9,14.9H484.1z"/>
	<path class="st1" d="M710.6,296.6h-22.4V267h22.1v2.4h-19.1v10.8h17.6v2.4h-17.6v11.6h19.4V296.6z"/>
	<path class="st1" d="M736.9,297.5h-3.3l-7.9-17.6l-8.2,17.6h-3.2l9.8-21.2l-4.4-9.8h3.2L736.9,297.5z"/>
	<path class="st1" d="M755.5,295.2c-1.9,2-4.6,3.1-7.8,3.1c-2.4,0-4.3-0.7-5.8-2c-1.5-1.3-2.2-3-2.2-5.1c0-2.9,1.4-4.9,4.3-6.1
		c-2.2-0.8-3.3-2.4-3.3-4.8c0-1.9,0.6-3.4,1.9-4.5c1.3-1.1,3-1.7,5.1-1.7c1.3,0,2.5,0.2,3.5,0.6c1,0.4,2.1,1.1,3.3,2.1l-1.7,2.1
		c-1.6-1.2-3.3-1.9-5-1.9c-1.2,0-2.2,0.3-3,1c-0.8,0.7-1.1,1.6-1.1,2.7c0,1.1,0.4,2,1.1,2.7c0.8,0.7,1.7,1.1,2.9,1.1h1.6v2.5h-1.9
		c-1.3,0-2.4,0.4-3.2,1.2c-0.9,0.8-1.3,1.8-1.3,3.1c0,1.3,0.4,2.3,1.3,3.1c0.9,0.8,2.1,1.2,3.6,1.2c2.3,0,4.2-0.8,5.7-2.4
		L755.5,295.2z"/>
	<path class="st1" d="M759.3,274.6h3.1v10.9c0,3,0.2,5,0.7,6.1c0.4,1.1,1.3,2,2.5,2.7c1.2,0.7,2.6,1.1,4.2,1.1
		c2.5,0,4.4-0.8,5.8-2.4c1.4-1.6,2.1-3.9,2.1-6.8c0-3.9-1.9-7-5.6-9.4l1.7-2.7c4.7,2.6,7,6.9,7,12.7c0,3.5-1,6.3-3,8.4
		c-2,2.1-4.6,3.2-7.8,3.2c-3.2,0-5.8-0.9-7.7-2.6c-1.9-1.7-2.9-5-2.9-9.9V274.6z M771.6,263.9L771,271h-2.6l-0.6-7.1H771.6z"/>
	<path class="st1" d="M810,282.1c0,5.1-1.1,9-3.3,11.9c-2.2,2.9-5.2,4.3-9.1,4.3c-3.9,0-6.9-1.4-9.1-4.3c-2.2-2.9-3.3-6.8-3.3-11.9
		c0-5.1,1.1-9.1,3.3-12c2.2-2.9,5.2-4.3,9.1-4.3c3.9,0,6.9,1.4,9.1,4.3C808.9,273,810,277,810,282.1z M806.9,280.7
		c-0.2-4-1.2-7-2.8-9.1c-1.6-2.1-3.8-3.1-6.5-3.1c-2.7,0-4.8,1-6.4,3.1c-1.6,2.1-2.5,5.1-2.8,9.1H806.9z M806.9,283.3h-18.5
		c0.2,4,1.1,7.1,2.7,9.2c1.6,2.1,3.8,3.1,6.6,3.1c2.8,0,5-1,6.6-3.1C805.9,290.3,806.7,287.3,806.9,283.3z"/>
	<path class="st1" d="M830.4,295.2c-1.9,2-4.6,3.1-7.8,3.1c-2.4,0-4.3-0.7-5.8-2c-1.5-1.3-2.2-3-2.2-5.1c0-2.9,1.4-4.9,4.3-6.1
		c-2.2-0.8-3.3-2.4-3.3-4.8c0-1.9,0.6-3.4,1.9-4.5c1.3-1.1,3-1.7,5.1-1.7c1.3,0,2.5,0.2,3.5,0.6c1,0.4,2.1,1.1,3.3,2.1l-1.7,2.1
		c-1.6-1.2-3.3-1.9-5-1.9c-1.2,0-2.2,0.3-3,1c-0.8,0.7-1.1,1.6-1.1,2.7c0,1.1,0.4,2,1.1,2.7c0.8,0.7,1.7,1.1,2.9,1.1h1.6v2.5h-1.9
		c-1.3,0-2.4,0.4-3.2,1.2c-0.9,0.8-1.3,1.8-1.3,3.1c0,1.3,0.4,2.3,1.3,3.1c0.9,0.8,2.1,1.2,3.6,1.2c2.3,0,4.2-0.8,5.7-2.4
		L830.4,295.2z"/>
	<path class="st1" d="M837.2,293.3v12.6h-3v-19.1c0-3.7,1.2-6.7,3.5-9.1c2.4-2.4,5.3-3.6,8.8-3.6c3.5,0,6.5,1.2,8.8,3.6
		c2.4,2.4,3.6,5.3,3.6,8.6c0,3.4-1.2,6.2-3.6,8.6c-2.4,2.3-5.3,3.5-8.8,3.5C842.8,298.3,839.6,296.6,837.2,293.3z M855.9,286.3
		c0-2.5-0.9-4.7-2.7-6.6c-1.8-1.9-4-2.8-6.6-2.8c-2.6,0-4.7,0.9-6.5,2.7c-1.8,1.8-2.7,4-2.7,6.6c0,2.6,0.9,4.7,2.7,6.6
		c1.8,1.8,4,2.7,6.6,2.7c2.6,0,4.8-0.9,6.6-2.7C855,291,855.9,288.8,855.9,286.3z"/>
	<path class="st1" d="M863.5,286.2c0-3.4,1.2-6.2,3.6-8.6c2.4-2.4,5.3-3.6,8.8-3.6c3.4,0,6.4,1.2,8.8,3.6c2.4,2.4,3.6,5.2,3.6,8.6
		c0,3.3-1.2,6.2-3.6,8.6c-2.4,2.4-5.3,3.6-8.8,3.6c-3.5,0-6.4-1.2-8.8-3.6C864.7,292.4,863.5,289.5,863.5,286.2z M885.2,286.3
		c0-2.5-0.9-4.7-2.8-6.6c-1.8-1.9-4-2.8-6.5-2.8c-2.5,0-4.7,0.9-6.5,2.8c-1.8,1.9-2.7,4-2.7,6.6c0,2.5,0.9,4.7,2.7,6.5
		c1.8,1.8,4,2.7,6.5,2.7s4.7-0.9,6.5-2.7C884.3,290.9,885.2,288.8,885.2,286.3z"/>
	<path class="st1" d="M915.3,279.4l-2.4,1.5c-2.1-2.7-4.7-4-7.9-4c-2.6,0-4.8,0.8-6.5,2.5c-1.7,1.7-2.5,3.7-2.5,6.2
		c0,2.5,0.7,4.3,2.1,5.5c1.4,1.2,3.7,2,6.9,2.6c3.7,0.7,6,1.4,7.1,2.2c1,0.8,1.6,2.1,1.6,3.9c0,1.8-0.7,3.3-2.2,4.4
		c-1.4,1.1-3.4,1.6-5.8,1.6c-1.2,0-2.5-0.1-3.9-0.4l0.8-2.6c1.1,0.2,2.2,0.3,3.5,0.3c1.2,0,2.3-0.3,3.2-0.9c0.9-0.6,1.3-1.4,1.3-2.5
		s-0.5-1.8-1.6-2.2c-1.1-0.4-2.7-0.8-4.7-1.1c-3.9-0.6-6.7-1.7-8.6-3.4c-1.8-1.7-2.8-4-2.8-7c0-3.5,1.1-6.4,3.4-8.6
		c2.3-2.2,5.2-3.3,8.8-3.3C909.7,274,913.1,275.8,915.3,279.4z"/>
	<path class="st1" d="M658.5,307.6l5.6-14.9h3.6l-6.9,14.9H658.5z"/>
</g>
<path class="st1" d="M639.2,248.4c-3.5,0-6.4-0.9-8.7-2.7c-2.2-1.8-3.6-4.1-4.1-7l3.3-0.8c0.4,2.5,1.5,4.3,3.2,5.6
	c1.7,1.3,3.8,1.9,6.4,1.9c1.5,0,2.8-0.3,4-0.9c1.2-0.6,2.1-1.4,2.8-2.4c0.7-1,1-2.2,1-3.5c0-1.4-0.4-2.6-1.2-3.5
	c-0.8-0.9-1.9-1.6-3.2-2.3c-1.3-0.6-2.8-1.2-4.5-1.9c-1.9-0.7-3.5-1.5-5-2.3c-1.5-0.8-2.7-1.8-3.5-3c-0.8-1.2-1.3-2.6-1.3-4.4
	c0-1.7,0.4-3.3,1.3-4.6c0.9-1.3,2.1-2.4,3.7-3.1c1.6-0.8,3.4-1.1,5.5-1.1c2.2,0,4.2,0.5,5.9,1.5c1.7,1,3.1,2.4,4.1,4.2l-2.7,1.6
	c-0.8-1.4-1.9-2.5-3.1-3.2c-1.2-0.8-2.7-1.2-4.3-1.2c-1.4,0-2.6,0.2-3.6,0.8c-1,0.5-1.9,1.2-2.4,2.1c-0.6,0.9-0.9,1.9-0.9,3
	c0,1.2,0.3,2.2,1,3.1c0.7,0.8,1.6,1.5,2.9,2.1c1.3,0.6,2.7,1.2,4.4,1.8c2,0.7,3.8,1.5,5.3,2.4c1.5,0.9,2.7,1.9,3.6,3.1
	c0.9,1.2,1.3,2.8,1.3,4.6c0,1.9-0.5,3.6-1.5,5.1c-1,1.5-2.3,2.7-4,3.5C643.4,248,641.4,248.4,639.2,248.4z"/>
<path class="st1" d="M655.1,248v-2.4l17.2-20.4l0.2,0.6h-16.5v-2.5h19.5v2.5l-17.1,20.4l-0.1-0.9h17v2.6H655.1z"/>
<path class="st1" d="M689.6,248.3c-1.9,0-3.6-0.3-5-1c-1.4-0.6-2.5-1.5-3.2-2.6c-0.7-1.1-1.1-2.4-1.1-3.9c0-1.3,0.3-2.5,0.8-3.4
	c0.5-0.9,1.2-1.6,2.1-2.2c0.9-0.6,2-1,3.2-1.2c1.2-0.2,2.5-0.3,3.9-0.3h8.5v2.4h-8c-1,0-2,0.1-2.9,0.2c-1,0.2-1.8,0.5-2.4,1
	c-0.6,0.4-1,0.8-1.3,1.4c-0.3,0.6-0.4,1.3-0.4,2.1c0,1.5,0.6,2.7,1.7,3.6c1.1,0.9,2.7,1.3,4.6,1.3c1.6,0,3-0.4,4.3-1.1
	c1.3-0.7,2.3-1.7,3.1-3c0.8-1.3,1.2-2.7,1.2-4.2l1.4,1.5c-0.2,1.9-0.7,3.5-1.7,4.9c-0.9,1.4-2.1,2.5-3.6,3.3
	C693,247.9,691.4,248.3,689.6,248.3z M698.6,248l-0.2-5.6v-9.8c0-2.3-0.6-4-1.8-5.1c-1.2-1.2-3-1.8-5.3-1.8c-1.5,0-2.9,0.3-4.2,0.9
	c-1.3,0.6-2.5,1.6-3.6,3l-2.4-2c1.4-1.6,2.9-2.8,4.6-3.5s3.6-1.1,5.8-1.1c3.3,0,5.8,0.8,7.5,2.5c1.8,1.6,2.6,4,2.6,7.2V248H698.6z"
	/>
<path class="st1" d="M721.7,248.3c-1.7,0-3.2-0.3-4.5-1c-1.4-0.6-2.5-1.6-3.5-2.7c-0.9-1.2-1.6-2.5-2.1-4l1-0.4v7.8h-3.3v-34.9h3.3
	V231l-0.9-0.5c0.4-1.4,1-2.7,2-3.8c0.9-1.1,2.1-2,3.4-2.7c1.3-0.7,2.9-1,4.5-1c2.2,0,4.1,0.5,5.9,1.6c1.7,1,3.1,2.5,4.2,4.4
	s1.6,4.1,1.6,6.6c0,2.4-0.5,4.6-1.5,6.5c-1,1.9-2.4,3.4-4.1,4.5C726,247.7,723.9,248.3,721.7,248.3z M721.1,245.4
	c1.7,0,3.3-0.4,4.6-1.3c1.3-0.8,2.4-2,3.1-3.5c0.8-1.5,1.1-3.2,1.1-5.1s-0.4-3.6-1.1-5c-0.8-1.5-1.8-2.6-3.1-3.5
	c-1.3-0.8-2.9-1.2-4.6-1.2c-1.7,0-3.3,0.4-4.6,1.2c-1.3,0.8-2.3,2-3.1,3.5c-0.7,1.5-1.1,3.1-1.1,5s0.4,3.6,1.1,5.1
	c0.7,1.5,1.8,2.6,3.1,3.5C717.9,245,719.4,245.4,721.1,245.4z"/>
<path class="st1" d="M747.9,248.3c-1.9,0-3.6-0.3-5-1s-2.5-1.5-3.2-2.6c-0.7-1.1-1.1-2.4-1.1-3.9c0-1.3,0.3-2.5,0.8-3.4
	c0.5-0.9,1.2-1.6,2.1-2.2c0.9-0.6,2-1,3.2-1.2c1.2-0.2,2.5-0.3,3.9-0.3h8.5v2.4h-8c-1,0-2,0.1-2.9,0.2c-1,0.2-1.8,0.5-2.4,1
	c-0.6,0.4-1,0.8-1.3,1.4c-0.3,0.6-0.4,1.3-0.4,2.1c0,1.5,0.6,2.7,1.7,3.6c1.1,0.9,2.7,1.3,4.6,1.3c1.6,0,3-0.4,4.3-1.1
	c1.3-0.7,2.3-1.7,3.1-3c0.8-1.3,1.2-2.7,1.2-4.2l1.4,1.5c-0.2,1.9-0.7,3.5-1.7,4.9c-0.9,1.4-2.1,2.5-3.6,3.3
	C751.4,247.9,749.7,248.3,747.9,248.3z M757,248l-0.2-5.6v-9.8c0-2.3-0.6-4-1.8-5.1c-1.2-1.2-3-1.8-5.3-1.8c-1.5,0-2.9,0.3-4.2,0.9
	c-1.3,0.6-2.5,1.6-3.6,3l-2.4-2c1.4-1.6,2.9-2.8,4.6-3.5s3.6-1.1,5.8-1.1c3.3,0,5.8,0.8,7.5,2.5c1.8,1.6,2.6,4,2.6,7.2V248H757z"/>
<path class="st1" d="M777.9,248.3c-2.3,0-4.3-0.6-6-1.7c-1.7-1.1-3.1-2.6-4.1-4.5c-1-1.9-1.5-4.1-1.5-6.5c0-2.5,0.5-4.8,1.6-6.6
	c1-1.9,2.4-3.4,4.2-4.4c1.8-1.1,3.7-1.6,5.9-1.6c1.7,0,3.2,0.3,4.6,1c1.3,0.6,2.5,1.5,3.4,2.7c0.9,1.1,1.6,2.4,1.9,3.9L787,231
	v-17.9h3.3V248H787v-7.8l1,0.4c-0.5,1.5-1.1,2.9-2.1,4c-0.9,1.2-2.1,2.1-3.4,2.7C781.2,248,779.6,248.3,777.9,248.3z M778.5,245.4
	c1.7,0,3.3-0.4,4.6-1.3c1.3-0.8,2.3-2,3.1-3.5c0.7-1.5,1.1-3.2,1.1-5.1s-0.4-3.6-1.1-5c-0.7-1.5-1.8-2.6-3.1-3.5
	c-1.3-0.8-2.8-1.2-4.6-1.2c-1.7,0-3.2,0.4-4.6,1.2c-1.3,0.8-2.4,2-3.2,3.5c-0.8,1.5-1.1,3.1-1.1,5s0.4,3.6,1.1,5.1
	c0.8,1.5,1.8,2.6,3.2,3.5C775.2,245,776.8,245.4,778.5,245.4z"/>
<g>
	<g>
		<path d="M754.4,197.8v-34.9h3.2v34.9H754.4z"/>
		<path d="M783.3,198.1c-1.4,0-2.5-0.4-3.4-1.3c-0.8-0.9-1.2-2.3-1.2-4.2v-29.6h3.2V192c0,1.1,0.2,2,0.6,2.5s1,0.8,1.8,0.8
			c0.3,0,0.7,0,1.1-0.1c0.4-0.1,0.8-0.2,1.2-0.3v2.7c-0.6,0.2-1.1,0.4-1.7,0.5C784.3,198.1,783.8,198.1,783.3,198.1z"/>
		<path d="M791.3,168.3v-5.4h3.8v5.4H791.3z M791.6,197.8v-24.6h3.2v24.6H791.6z"/>
		<path d="M802.5,197.8v-24.6h3.2v6.5l-0.8,0.1c0.3-1.5,0.8-2.8,1.8-3.8s2-1.8,3.2-2.4c1.2-0.6,2.3-0.8,3.4-0.8c0.7,0,1.3,0.1,2,0.2
			c0.7,0.1,1.3,0.4,2,0.7l-1.5,2.8c-0.4-0.2-0.9-0.4-1.5-0.5c-0.5-0.1-1-0.2-1.5-0.2c-0.9,0-1.7,0.2-2.6,0.5
			c-0.9,0.3-1.7,0.9-2.4,1.6c-0.7,0.7-1.2,1.7-1.6,2.9c-0.1,0.5-0.2,1.1-0.3,1.9c-0.1,0.7-0.1,1.8-0.1,3.1v12H802.5z"/>
		<path d="M832.5,198.1c-1.8,0-3.5-0.3-4.9-0.9c-1.4-0.6-2.6-1.5-3.5-2.6c-0.9-1.1-1.6-2.5-2.1-4c-0.5-1.5-0.7-3.2-0.7-4.9
			c0-1.8,0.2-3.4,0.7-5c0.5-1.5,1.2-2.9,2.1-4.1c0.9-1.2,2-2.1,3.4-2.8c1.4-0.7,2.9-1,4.7-1c1.9,0,3.5,0.3,4.8,1
			c1.4,0.6,2.5,1.5,3.3,2.6c0.9,1.1,1.5,2.3,1.9,3.7c0.4,1.3,0.6,2.7,0.6,4.1c0,0.3,0,0.6,0,1c0,0.4-0.1,0.8-0.1,1.1h-18.2
			c0.1,2.8,0.8,5,2.3,6.6c1.5,1.6,3.4,2.4,5.9,2.4c1.6,0,2.9-0.2,4-0.7c1.1-0.5,2.2-1.3,3.2-2.4l2.2,2c-0.9,1-1.9,1.7-2.8,2.3
			c-1,0.6-2,1-3.1,1.3C835,198,833.8,198.1,832.5,198.1z M839.6,184.7c0.1-0.3,0.1-0.5,0.1-0.8s0-0.6,0-0.8c0-0.9-0.1-1.8-0.4-2.6
			c-0.3-0.9-0.7-1.7-1.3-2.5c-0.6-0.7-1.4-1.3-2.4-1.8c-1-0.5-2.1-0.7-3.4-0.7c-1.5,0-2.9,0.4-4,1.1c-1.2,0.8-2,1.8-2.7,3.1
			c-0.6,1.3-1,2.7-1.1,4.3h16.3L839.6,184.7z M825.8,168.3v-5.4h3.8v5.4H825.8z M834.7,168.3v-5.4h3.8v5.4H834.7z"/>
	</g>
</g>
<path d="M51.8,2c-2.4,0-4.3,1.9-4.3,4.3v6.9c0,2.4,1.9,4.3,4.3,4.3h6.9c2.4,0,4.3-1.9,4.3-4.3V6.3C63,3.9,61.1,2,58.7,2H51.8z
	 M60.4,3.7c0.5,0,0.9,0.4,0.9,0.9s-0.4,0.9-0.9,0.9c-0.5,0-0.9-0.4-0.9-0.9S59.9,3.7,60.4,3.7z M55.2,5.4c2.4,0,4.3,1.9,4.3,4.3
	S57.6,14,55.2,14c-2.4,0-4.3-1.9-4.3-4.3S52.9,5.4,55.2,5.4z M55.2,7.1c-1.4,0-2.6,1.2-2.6,2.6s1.2,2.6,2.6,2.6
	c1.4,0,2.6-1.2,2.6-2.6S56.7,7.1,55.2,7.1z"/>
<path d="M4.3,3.3l1,3.7v1.8h0.9V6.9l1-3.7H6.3L6,4.9C5.9,5.4,5.8,5.8,5.8,6h0c0-0.3-0.1-0.6-0.2-1.1L5.2,3.3H4.3z M8.3,4.6
	C8,4.6,7.7,4.7,7.5,4.8C7.4,4.9,7.2,5.1,7.1,5.4C7,5.7,7,6,7,6.4V7c0,0.4,0,0.8,0.1,1c0.1,0.3,0.2,0.4,0.4,0.6
	c0.2,0.1,0.4,0.2,0.7,0.2c0.3,0,0.5-0.1,0.7-0.2C9.1,8.5,9.3,8.3,9.3,8s0.1-0.6,0.1-1V6.4c0-0.4,0-0.8-0.1-1C9.3,5.1,9.1,5,9,4.8
	C8.8,4.7,8.5,4.6,8.3,4.6z M9.9,4.7v3c0,0.4,0.1,0.6,0.2,0.8c0.1,0.2,0.3,0.3,0.6,0.3c0.4,0,0.7-0.2,0.9-0.6h0l0.1,0.5h0.7v-4h-0.9
	v3.2c0,0.1-0.1,0.1-0.2,0.2c-0.1,0-0.1,0.1-0.2,0.1c-0.1,0-0.2,0-0.2-0.1c0-0.1-0.1-0.2-0.1-0.4V4.7H9.9z M8.2,5.3
	c0.1,0,0.2,0.1,0.3,0.2c0,0.1,0.1,0.3,0.1,0.6v1.2c0,0.3,0,0.5-0.1,0.6c0,0.1-0.1,0.2-0.3,0.2C8.1,8.2,8,8.1,8,8
	c0-0.1-0.1-0.3-0.1-0.6V6.1c0-0.3,0-0.5,0.1-0.6C8,5.3,8.1,5.3,8.2,5.3z M3.9,9.5c-0.8,0-1.4,0.6-1.4,1.4v4.8c0,0.8,0.6,1.4,1.4,1.4
	h9.6c0.8,0,1.4-0.6,1.4-1.4v-4.8c0-0.8-0.6-1.4-1.4-1.4H3.9z M8.7,10.9h0.7v1.8h0c0.1-0.1,0.2-0.2,0.3-0.3c0.1-0.1,0.2-0.1,0.4-0.1
	c0.2,0,0.3,0,0.4,0.1c0.1,0.1,0.2,0.2,0.2,0.5c0,0.2,0.1,0.5,0.1,0.9v0.5h0c0,0.5-0.1,0.9-0.2,1.1c-0.1,0.2-0.3,0.4-0.6,0.4
	c-0.1,0-0.3,0-0.4-0.1c-0.1-0.1-0.2-0.2-0.3-0.3h0l-0.1,0.3H8.7V10.9z M4.2,11h2.2v0.6H5.7v4H4.9v-4H4.2V11z M12.1,12.2
	c0.3,0,0.5,0,0.6,0.1c0.1,0.1,0.2,0.2,0.3,0.4c0.1,0.2,0.1,0.5,0.1,0.8v0.6h-1.3v0.2c0,0.2,0,0.4,0,0.5c0,0.1,0,0.2,0.1,0.2
	c0,0,0.1,0.1,0.2,0.1c0.1,0,0.2,0,0.2-0.1c0-0.1,0.1-0.2,0.1-0.4l0.6,0c0,0,0,0.1,0,0.1c0,0.3-0.1,0.5-0.3,0.7
	c-0.2,0.2-0.4,0.2-0.7,0.2c-0.4,0-0.6-0.1-0.8-0.4c-0.1-0.2-0.2-0.6-0.2-1.1v-0.6c0-0.5,0.1-0.9,0.2-1.1
	C11.5,12.3,11.8,12.2,12.1,12.2z M6.2,12.3h0.8v2.5c0,0.1,0,0.3,0,0.3c0,0.1,0.1,0.1,0.2,0.1c0.1,0,0.1,0,0.2-0.1
	c0.1,0,0.1-0.1,0.1-0.2v-2.7h0.8v3.4h0H7.6l-0.1-0.4h0c-0.2,0.3-0.4,0.5-0.7,0.5c-0.2,0-0.4-0.1-0.5-0.2c-0.1-0.1-0.2-0.4-0.2-0.7
	V12.3z M12.1,12.7c-0.1,0-0.1,0-0.2,0.1c0,0-0.1,0.1-0.1,0.2c0,0.1,0,0.3,0,0.5v0.2h0.5v-0.2c0-0.2,0-0.4,0-0.5c0-0.1,0-0.2-0.1-0.2
	C12.3,12.7,12.2,12.7,12.1,12.7z M9.7,12.7c-0.1,0-0.1,0-0.2,0.1c-0.1,0.1-0.1,0.1-0.1,0.2V15c0,0.1,0.1,0.1,0.1,0.1
	c0.1,0,0.1,0,0.2,0c0.1,0,0.1,0,0.2-0.1c0-0.1,0.1-0.2,0.1-0.3c0-0.1,0-0.3,0-0.6v-0.4c0-0.3,0-0.5,0-0.6s0-0.2-0.1-0.3
	C9.9,12.8,9.8,12.7,9.7,12.7z"/>
<path class="st1" d="M792.2,254.9l5.6-14.9h3.6l-6.9,14.9H792.2z"/>
<g>
	<g>
		<path d="M821.9,247v-34.9h22.6v3h-19.3v12.7h16.8v3h-16.8V247H821.9z"/>
		<path d="M849.9,247v-24.6h3.2v6.5l-0.8,0.1c0.3-1.5,0.8-2.8,1.8-3.8s2-1.8,3.2-2.4c1.2-0.6,2.3-0.8,3.4-0.8c0.7,0,1.3,0.1,2,0.2
			c0.7,0.1,1.3,0.4,2,0.7l-1.5,2.8c-0.4-0.2-0.9-0.4-1.5-0.5c-0.5-0.1-1-0.2-1.5-0.2c-0.9,0-1.7,0.2-2.6,0.5
			c-0.9,0.3-1.7,0.9-2.4,1.6c-0.7,0.7-1.2,1.7-1.6,2.9c-0.1,0.5-0.2,1.1-0.3,1.9c-0.1,0.7-0.1,1.8-0.1,3.1v12H849.9z"/>
		<path d="M879.9,247.3c-1.8,0-3.5-0.3-4.9-1c-1.4-0.6-2.6-1.5-3.5-2.6c-0.9-1.1-1.6-2.5-2.1-4c-0.5-1.5-0.7-3.2-0.7-4.9
			c0-1.8,0.2-3.4,0.7-5c0.5-1.5,1.2-2.9,2.1-4.1c0.9-1.2,2-2.1,3.4-2.8c1.4-0.7,2.9-1,4.7-1c1.9,0,3.5,0.3,4.8,1
			c1.4,0.6,2.5,1.5,3.3,2.6c0.9,1.1,1.5,2.3,1.9,3.7c0.4,1.3,0.6,2.7,0.6,4.1c0,0.3,0,0.6,0,1c0,0.4-0.1,0.8-0.1,1.1h-18.2
			c0.1,2.8,0.8,5,2.3,6.6c1.5,1.6,3.4,2.4,5.9,2.4c1.6,0,2.9-0.2,4-0.7c1.1-0.5,2.2-1.3,3.2-2.4l2.2,2c-0.9,1-1.9,1.7-2.8,2.3
			c-1,0.6-2,1-3.1,1.3C882.4,247.2,881.2,247.3,879.9,247.3z M887,233.9c0.1-0.3,0.1-0.5,0.1-0.8s0-0.6,0-0.8c0-0.9-0.1-1.8-0.4-2.6
			c-0.3-0.9-0.7-1.7-1.3-2.5c-0.6-0.7-1.4-1.3-2.4-1.8c-1-0.5-2.1-0.7-3.4-0.7c-1.5,0-2.9,0.4-4,1.1c-1.2,0.8-2,1.8-2.7,3.1
			c-0.6,1.3-1,2.7-1.1,4.3H888L887,233.9z"/>
		<path d="M896.4,217.5v-5.4h3.8v5.4H896.4z M896.7,247v-24.6h3.2V247H896.7z"/>
		<path d="M905,254.8l5.4-14.9h3.5l-6.7,14.9H905z"/>
	</g>
</g>
<path class="st2" d="M13.1,17.9H4c-1.5,0-2.7-1.2-2.7-2.7V4.3c0-1.5,1.2-2.7,2.7-2.7h9.1c1.5,0,2.7,1.2,2.7,2.7v10.8
	C15.9,16.6,14.6,17.9,13.1,17.9z"/>
<g>
	<path d="M109.5,3.1H96.7c-1.1,0-2.1,1.1-2.1,2.5v9c0,1.4,0.9,2.5,2.1,2.5h12.8c1.1,0,2.1-1.1,2.1-2.5v-9
		C111.6,4.3,110.6,3.1,109.5,3.1z M108.5,4.8L103.1,9l-5.4-4.2H108.5z M109.5,15.6H96.7c-0.4,0-0.7-0.4-0.7-0.9v-9l6.7,5.3
		c0,0,0,0,0,0c0,0,0,0,0,0c0.1,0,0.1,0.1,0.2,0.1c0,0,0,0,0,0c0.1,0,0.1,0,0.2,0c0,0,0,0,0,0c0,0,0,0,0,0c0.1,0,0.1,0,0.2,0
		c0,0,0,0,0,0c0.1,0,0.1,0,0.2-0.1c0,0,0,0,0,0c0,0,0,0,0,0l6.7-5.3v9C110.2,15.2,109.9,15.6,109.5,15.6z"/>
</g>
</svg>
