<?xml version="1.0" encoding="UTF-8"?>
<svg id="Layer_1" data-name="Layer 1" xmlns="http://www.w3.org/2000/svg" viewBox="0 0 581.9 260.6">
  <defs>
    <style>
      .cls-1 {
        opacity: .99;
        stroke-width: 0px;
      }
    </style>
  </defs>
  <path class="cls-1" d="m16.01,42.5L4.97,14.62h2.88l9.56,24.72h-.64l9.48-24.72h2.88l-11,27.88h-2.12Z"/>
  <path class="cls-1" d="m31.81,18.94v-4.32h3v4.32h-3Zm.24,23.56v-19.72h2.52v19.72h-2.52Z"/>
  <path class="cls-1" d="m57.45,42.78c-1.31,0-2.49-.2-3.54-.6-1.05-.4-1.96-.94-2.72-1.62-.76-.68-1.35-1.43-1.78-2.26l1.8-1.44c.51,1.12,1.3,2.03,2.38,2.74s2.37,1.06,3.86,1.06c1.41,0,2.55-.31,3.4-.94s1.28-1.49,1.28-2.58c0-.91-.26-1.61-.78-2.1-.52-.49-1.19-.89-2-1.18-.81-.29-1.7-.55-2.66-.76-.75-.19-1.49-.41-2.24-.66-.75-.25-1.42-.57-2.02-.96-.6-.39-1.07-.89-1.42-1.5-.35-.61-.52-1.37-.52-2.28,0-1.55.61-2.8,1.82-3.76,1.21-.96,2.79-1.44,4.74-1.44,1.47,0,2.81.31,4.02.94,1.21.63,2.15,1.58,2.82,2.86l-1.64,1.2c-.56-1.04-1.3-1.79-2.22-2.26-.92-.47-1.94-.7-3.06-.7-1.2,0-2.19.27-2.98.8-.79.53-1.18,1.25-1.18,2.16,0,.67.19,1.21.56,1.62.37.41.91.75,1.6,1.02s1.51.51,2.44.72c.85.19,1.7.41,2.54.68.84.27,1.61.61,2.32,1.02.71.41,1.27.97,1.68,1.66.41.69.62,1.57.62,2.64,0,1.2-.29,2.25-.88,3.14-.59.89-1.41,1.58-2.48,2.06-1.07.48-2.32.72-3.76.72Z"/>
  <path class="cls-1" d="m77.69,42.78c-1.47,0-2.77-.25-3.9-.76s-2.07-1.21-2.82-2.12c-.75-.91-1.31-1.97-1.7-3.2-.39-1.23-.58-2.53-.58-3.92s.19-2.74.56-3.98c.37-1.24.93-2.33,1.66-3.28.73-.95,1.64-1.69,2.72-2.22,1.08-.53,2.33-.8,3.74-.8,1.49,0,2.78.26,3.86.78s1.96,1.23,2.64,2.12c.68.89,1.19,1.87,1.52,2.94.33,1.07.5,2.15.5,3.24,0,.21,0,.49-.02.84-.01.35-.05.64-.1.88h-14.6c.05,2.27.66,4.03,1.82,5.28,1.16,1.25,2.73,1.88,4.7,1.88,1.25,0,2.33-.19,3.22-.58.89-.39,1.75-1.03,2.58-1.94l1.8,1.6c-.75.77-1.51,1.39-2.28,1.86-.77.47-1.59.81-2.46,1.04s-1.82.34-2.86.34Zm5.68-10.76c.05-.21.08-.43.08-.66v-.66c0-.69-.11-1.4-.34-2.12-.23-.72-.58-1.37-1.06-1.96-.48-.59-1.11-1.07-1.88-1.44s-1.69-.56-2.76-.56c-1.23,0-2.3.31-3.22.92-.92.61-1.63,1.43-2.14,2.44-.51,1.01-.8,2.16-.88,3.44h13.04l-.84.6Z"/>
  <path class="cls-1" d="m97.21,42.78c-1.31,0-2.49-.2-3.54-.6-1.05-.4-1.96-.94-2.72-1.62-.76-.68-1.35-1.43-1.78-2.26l1.8-1.44c.51,1.12,1.3,2.03,2.38,2.74s2.37,1.06,3.86,1.06c1.41,0,2.55-.31,3.4-.94s1.28-1.49,1.28-2.58c0-.91-.26-1.61-.78-2.1-.52-.49-1.19-.89-2-1.18-.81-.29-1.7-.55-2.66-.76-.75-.19-1.49-.41-2.24-.66-.75-.25-1.42-.57-2.02-.96-.6-.39-1.07-.89-1.42-1.5-.35-.61-.52-1.37-.52-2.28,0-1.55.61-2.8,1.82-3.76,1.21-.96,2.79-1.44,4.74-1.44,1.47,0,2.81.31,4.02.94,1.21.63,2.15,1.58,2.82,2.86l-1.64,1.2c-.56-1.04-1.3-1.79-2.22-2.26-.92-.47-1.94-.7-3.06-.7-1.2,0-2.19.27-2.98.8-.79.53-1.18,1.25-1.18,2.16,0,.67.19,1.21.56,1.62.37.41.91.75,1.6,1.02s1.51.51,2.44.72c.85.19,1.7.41,2.54.68.84.27,1.61.61,2.32,1.02.71.41,1.27.97,1.68,1.66.41.69.62,1.57.62,2.64,0,1.2-.29,2.25-.88,3.14-.59.89-1.41,1.58-2.48,2.06-1.07.48-2.32.72-3.76.72Z"/>
  <path class="cls-1" d="m107.57,48.74l4.28-11.92h2.8l-5.32,11.92h-1.76Z"/>
  <path class="cls-1" d="m138.09,42.86c-2.72,0-4.95-.71-6.68-2.12s-2.79-3.29-3.16-5.64l2.56-.64c.32,1.97,1.14,3.47,2.46,4.5,1.32,1.03,2.95,1.54,4.9,1.54,1.15,0,2.18-.23,3.1-.68.92-.45,1.65-1.09,2.18-1.92.53-.83.8-1.77.8-2.84,0-1.15-.31-2.07-.92-2.78-.61-.71-1.43-1.31-2.44-1.82-1.01-.51-2.16-1-3.44-1.48-1.44-.56-2.73-1.17-3.88-1.82-1.15-.65-2.05-1.45-2.7-2.38-.65-.93-.98-2.09-.98-3.48s.33-2.61,1-3.66c.67-1.05,1.61-1.89,2.82-2.5,1.21-.61,2.62-.92,4.22-.92,1.71,0,3.21.39,4.52,1.16,1.31.77,2.36,1.91,3.16,3.4l-2.08,1.28c-.64-1.12-1.43-1.99-2.38-2.6-.95-.61-2.05-.92-3.3-.92-1.07,0-2,.2-2.8.6-.8.4-1.43.95-1.88,1.66-.45.71-.68,1.51-.68,2.42,0,.96.26,1.77.78,2.44.52.67,1.27,1.24,2.24,1.72s2.11.96,3.42,1.44c1.55.59,2.91,1.22,4.1,1.9,1.19.68,2.11,1.51,2.78,2.5.67.99,1,2.21,1,3.68,0,1.55-.37,2.92-1.12,4.12-.75,1.2-1.77,2.14-3.08,2.82-1.31.68-2.81,1.02-4.52,1.02Z"/>
  <path class="cls-1" d="m159.93,42.78c-1.47,0-2.77-.25-3.9-.76s-2.07-1.21-2.82-2.12c-.75-.91-1.31-1.97-1.7-3.2-.39-1.23-.58-2.53-.58-3.92s.19-2.74.56-3.98c.37-1.24.93-2.33,1.66-3.28.73-.95,1.64-1.69,2.72-2.22,1.08-.53,2.33-.8,3.74-.8,1.49,0,2.78.26,3.86.78s1.96,1.23,2.64,2.12c.68.89,1.19,1.87,1.52,2.94.33,1.07.5,2.15.5,3.24,0,.21,0,.49-.02.84-.01.35-.05.64-.1.88h-14.6c.05,2.27.66,4.03,1.82,5.28,1.16,1.25,2.73,1.88,4.7,1.88,1.25,0,2.33-.19,3.22-.58.89-.39,1.75-1.03,2.58-1.94l1.8,1.6c-.75.77-1.51,1.39-2.28,1.86-.77.47-1.59.81-2.46,1.04s-1.82.34-2.86.34Zm5.68-10.76c.05-.21.08-.43.08-.66v-.66c0-.69-.11-1.4-.34-2.12-.23-.72-.58-1.37-1.06-1.96-.48-.59-1.11-1.07-1.88-1.44s-1.69-.56-2.76-.56c-1.23,0-2.3.31-3.22.92-.92.61-1.63,1.43-2.14,2.44-.51,1.01-.8,2.16-.88,3.44h13.04l-.84.6Z"/>
  <path class="cls-1" d="m181.37,42.78c-1.47,0-2.77-.25-3.9-.76s-2.07-1.21-2.82-2.12c-.75-.91-1.31-1.97-1.7-3.2-.39-1.23-.58-2.53-.58-3.92s.19-2.74.56-3.98c.37-1.24.93-2.33,1.66-3.28.73-.95,1.64-1.69,2.72-2.22,1.08-.53,2.33-.8,3.74-.8,1.49,0,2.78.26,3.86.78s1.96,1.23,2.64,2.12c.68.89,1.19,1.87,1.52,2.94.33,1.07.5,2.15.5,3.24,0,.21,0,.49-.02.84-.01.35-.05.64-.1.88h-14.6c.05,2.27.66,4.03,1.82,5.28,1.16,1.25,2.73,1.88,4.7,1.88,1.25,0,2.33-.19,3.22-.58.89-.39,1.75-1.03,2.58-1.94l1.8,1.6c-.75.77-1.51,1.39-2.28,1.86-.77.47-1.59.81-2.46,1.04s-1.82.34-2.86.34Zm5.68-10.76c.05-.21.08-.43.08-.66v-.66c0-.69-.11-1.4-.34-2.12-.23-.72-.58-1.37-1.06-1.96-.48-.59-1.11-1.07-1.88-1.44s-1.69-.56-2.76-.56c-1.23,0-2.3.31-3.22.92-.92.61-1.63,1.43-2.14,2.44-.51,1.01-.8,2.16-.88,3.44h13.04l-.84.6Z"/>
  <path class="cls-1" d="m207.45,50.62l3.64-8.76-7.8-19.08h2.76l6.36,16.52,6.4-16.52h2.76l-11.36,27.84h-2.76Z"/>
  <path class="cls-1" d="m233.81,42.78c-1.81,0-3.43-.43-4.86-1.3-1.43-.87-2.54-2.07-3.34-3.6-.8-1.53-1.2-3.29-1.2-5.26s.39-3.72,1.18-5.24c.79-1.52,1.89-2.71,3.32-3.58,1.43-.87,3.06-1.3,4.9-1.3s3.46.43,4.86,1.3c1.4.87,2.51,2.06,3.32,3.58.81,1.52,1.22,3.27,1.22,5.24s-.41,3.73-1.22,5.26c-.81,1.53-1.93,2.73-3.34,3.6-1.41.87-3.03,1.3-4.84,1.3Zm0-2.24c1.39,0,2.59-.33,3.62-1,1.03-.67,1.82-1.59,2.38-2.78.56-1.19.84-2.57.84-4.14s-.28-2.99-.84-4.18c-.56-1.19-1.35-2.11-2.38-2.76-1.03-.65-2.23-.98-3.62-.98s-2.6.33-3.64,1-1.85,1.59-2.42,2.76c-.57,1.17-.86,2.56-.86,4.16s.29,2.95.86,4.14c.57,1.19,1.38,2.11,2.42,2.78,1.04.67,2.25,1,3.64,1Z"/>
  <path class="cls-1" d="m254.77,42.78c-1.39,0-2.59-.29-3.6-.86-1.01-.57-1.79-1.43-2.34-2.56-.55-1.13-.82-2.57-.82-4.3v-12.28h2.52v11.4c0,1.44.19,2.63.56,3.58.37.95.92,1.65,1.64,2.12.72.47,1.63.7,2.72.7,1.17,0,2.17-.28,3-.84.83-.56,1.46-1.41,1.9-2.56.44-1.15.66-2.61.66-4.4v-10h2.52v19.72h-2.52v-4.6h.6c-.51,1.63-1.37,2.85-2.58,3.66-1.21.81-2.63,1.22-4.26,1.22Z"/>
  <path class="cls-1" d="m267.73,48.74l4.28-11.92h2.8l-5.32,11.92h-1.76Z"/>
  <path class="cls-1" d="m287.57,42.5l10.36-27.88h2.2l10.32,27.88h-2.84l-8.56-24.24-8.56,24.24h-2.92Zm5.12-7.16l.84-2.36h11l.88,2.36h-12.72Zm5.36-23.28l-4.88-5.6h2.68l4.16,5.6h-1.96Z"/>
  <path class="cls-1" d="m334.36,42.78c-1.28,0-2.45-.26-3.5-.78s-1.94-1.25-2.66-2.18c-.72-.93-1.25-2.01-1.6-3.24l.8-.28v6.2h-2.52V14.62h2.52v14.32l-.68-.4c.29-1.15.8-2.17,1.52-3.08.72-.91,1.6-1.63,2.64-2.16,1.04-.53,2.2-.8,3.48-.8,1.68,0,3.19.42,4.54,1.26,1.35.84,2.42,2.02,3.22,3.54.8,1.52,1.2,3.29,1.2,5.32,0,1.92-.38,3.65-1.14,5.18-.76,1.53-1.81,2.75-3.16,3.64-1.35.89-2.9,1.34-4.66,1.34Zm-.4-2.32c1.33,0,2.51-.34,3.54-1.02,1.03-.68,1.83-1.61,2.42-2.78.59-1.17.88-2.52.88-4.04s-.29-2.87-.88-4.04c-.59-1.17-1.39-2.09-2.42-2.76-1.03-.67-2.21-1-3.54-1s-2.51.33-3.52,1c-1.01.67-1.81,1.59-2.38,2.76-.57,1.17-.86,2.52-.86,4.04s.29,2.87.86,4.04c.57,1.17,1.37,2.1,2.38,2.78s2.19,1.02,3.52,1.02Z"/>
  <path class="cls-1" d="m348.36,18.94v-4.32h3v4.32h-3Zm.24,23.56v-19.72h2.52v19.72h-2.52Z"/>
  <path class="cls-1" d="m365.4,42.78c-1.47,0-2.77-.25-3.9-.76s-2.07-1.21-2.82-2.12c-.75-.91-1.31-1.97-1.7-3.2-.39-1.23-.58-2.53-.58-3.92s.19-2.74.56-3.98c.37-1.24.93-2.33,1.66-3.28.73-.95,1.64-1.69,2.72-2.22,1.08-.53,2.33-.8,3.74-.8,1.49,0,2.78.26,3.86.78s1.96,1.23,2.64,2.12c.68.89,1.19,1.87,1.52,2.94.33,1.07.5,2.15.5,3.24,0,.21,0,.49-.02.84-.01.35-.05.64-.1.88h-14.6c.05,2.27.66,4.03,1.82,5.28,1.16,1.25,2.73,1.88,4.7,1.88,1.25,0,2.33-.19,3.22-.58.89-.39,1.75-1.03,2.58-1.94l1.8,1.6c-.75.77-1.51,1.39-2.28,1.86-.77.47-1.59.81-2.46,1.04s-1.82.34-2.86.34Zm5.68-10.76c.05-.21.08-.43.08-.66v-.66c0-.69-.11-1.4-.34-2.12-.23-.72-.58-1.37-1.06-1.96-.48-.59-1.11-1.07-1.88-1.44s-1.69-.56-2.76-.56c-1.23,0-2.3.31-3.22.92-.92.61-1.63,1.43-2.14,2.44-.51,1.01-.8,2.16-.88,3.44h13.04l-.84.6Z"/>
  <path class="cls-1" d="m378.84,42.5v-19.72h2.56v4.6l-.6.2c.35-1.09.84-2.01,1.48-2.76.64-.75,1.41-1.32,2.3-1.72.89-.4,1.89-.6,2.98-.6,2.13,0,3.8.63,5,1.9,1.2,1.27,1.8,3.19,1.8,5.78v12.32h-2.52v-11.4c0-2.19-.41-3.8-1.22-4.84-.81-1.04-2.03-1.56-3.66-1.56-1.12,0-2.1.27-2.94.82-.84.55-1.49,1.41-1.94,2.6-.45,1.19-.68,2.73-.68,4.62v9.76h-2.56Z"/>
  <path class="cls-1" d="m397.28,24.78v-2h11.6v2h-11.6Zm8.76,18c-.88,0-1.65-.17-2.32-.52-.67-.35-1.18-.89-1.54-1.62-.36-.73-.54-1.66-.54-2.78v-20.72l2.56-1.48v21.6c0,1.07.18,1.9.54,2.5.36.6.99.9,1.9.9.32,0,.67-.03,1.04-.1.37-.07.77-.15,1.2-.26v2c-.48.16-.96.28-1.44.36-.48.08-.95.12-1.4.12Z"/>
  <path class="cls-1" d="m421.32,42.78c-1.81,0-3.43-.43-4.86-1.3-1.43-.87-2.54-2.07-3.34-3.6-.8-1.53-1.2-3.29-1.2-5.26s.39-3.72,1.18-5.24c.79-1.52,1.89-2.71,3.32-3.58,1.43-.87,3.06-1.3,4.9-1.3s3.46.43,4.86,1.3c1.4.87,2.51,2.06,3.32,3.58.81,1.52,1.22,3.27,1.22,5.24s-.41,3.73-1.22,5.26c-.81,1.53-1.93,2.73-3.34,3.6-1.41.87-3.03,1.3-4.84,1.3Zm0-2.24c1.39,0,2.59-.33,3.62-1,1.03-.67,1.82-1.59,2.38-2.78.56-1.19.84-2.57.84-4.14s-.28-2.99-.84-4.18c-.56-1.19-1.35-2.11-2.38-2.76-1.03-.65-2.23-.98-3.62-.98s-2.6.33-3.64,1-1.85,1.59-2.42,2.76c-.57,1.17-.86,2.56-.86,4.16s.29,2.95.86,4.14c.57,1.19,1.38,2.11,2.42,2.78,1.04.67,2.25,1,3.64,1Zm-5.92-20.04l5.92-6.24,5.92,6.24h-2.12l-3.8-4-3.8,4h-2.12Z"/>
  <path class="cls-1" d="m432.52,24.78v-2h11.6v2h-11.6Zm8.76,18c-.88,0-1.65-.17-2.32-.52-.67-.35-1.18-.89-1.54-1.62-.36-.73-.54-1.66-.54-2.78v-20.72l2.56-1.48v21.6c0,1.07.18,1.9.54,2.5.36.6.99.9,1.9.9.32,0,.67-.03,1.04-.1.37-.07.77-.15,1.2-.26v2c-.48.16-.96.28-1.44.36-.48.08-.95.12-1.4.12Z"/>
  <path class="cls-1" d="m446.57,48.74l4.28-11.92h2.8l-5.32,11.92h-1.76Z"/>
  <path class="cls-1" d="m474.08,10.58c-.08.48-.44.76-1.24.88-.32,4.64-.72,15.24-.72,21.16s2.96,8.84,8,8.84,9.84-2.44,14.4-7.6c.4.64,1.32,1.92,1.8,2.36-4.68,5.32-10.36,8.12-16.24,8.12-7.28,0-11-4.2-11-11.76,0-5.04.36-17.44.64-22.36l4.36.36Zm10.84,4.2c1.88,1.44,4.2,3.84,5.44,5.52l-1.48,1.24c-1.2-1.72-3.64-4.2-5.36-5.52l1.4-1.24Zm4.88-3.64c1.92,1.44,4.28,3.8,5.48,5.44l-1.52,1.28c-1.08-1.6-3.44-4.04-5.32-5.48l1.36-1.24Z"/>
  <path class="cls-1" d="m499.96,28.82c1.96-.6,5.24-1.8,7.44-2.64-.96-3.24-1.8-6.24-2.36-8.04l3.44-.64c.04.4-.16.64-.72.88.72,2.48,1.24,4.52,1.92,7.04,3.64-1.28,7.04-2.32,9.2-2.68-1.48-1.64-3.96-3.72-5.68-4.8l1.52-1.52c2.16,1.2,5,3.56,6.52,5.4l-1.04.8c.36-.04.68-.04,1.04-.04,3.4.08,6.92,1.92,6.92,6.4s-3.4,6.72-7.12,6.72c-2.16,0-4.52-.64-6.72-2.44.24-.44.64-1.32.84-1.92,1.84,1.44,4.04,2.08,5.68,2.08,2.76,0,4.84-1.28,4.84-4.4,0-2.56-1.96-4.24-4.72-4.24s-6.6,1.32-10.68,2.76c1.48,5.08,3.6,12.2,4.88,16.96l-2.56.56c-.96-4.64-3.2-11.96-4.6-16.68-1.92.72-4.76,1.76-6.44,2.44,0,.28-.24.64-.56.76l-1.04-2.76Z"/>
  <path class="cls-1" d="m557.96,21.86c-.12.52-.24,1.04-.4,1.52,7.04,1.24,9.64,5.64,9.64,10.36,0,6.36-5.44,10.2-15.44,11.32-.16-.56-.72-1.76-1.08-2.4,8.28-.8,13.6-3.68,13.6-8.84v-.28c-.2-4.64-3.32-6.92-7.6-7.64-1.72,4.52-4.64,8.72-7.96,11.76.28.84.64,1.56,1.04,2.16l-2.36,1.48c-.36-.56-.68-1.24-.96-2-3.2,2.36-5.76,3-7.56,3-3.2,0-4.84-2.36-4.84-5.32,0-5.52,4.56-9.92,10.36-12.24-.08-2.08-.08-4.36-.04-6.72-6.76,0-7.48,0-8.8-.08l-.08-2.64c2.04.12,5.52.12,8.96.12.04-1.84.12-4.08.2-5.96l4,.28c-.04.4-.44.72-1.04.8-.12,1.48-.2,3.32-.32,4.8,4.36-.12,12-.64,16.04-1.68l.36,2.72c-4.24,1.04-11.96,1.44-16.52,1.56-.08,2.08-.12,4.08-.08,5.96,2.8-.88,5.32-.92,6-.92.6,0,1.12,0,1.64.04.16-.64.28-1.24.4-1.88l2.84.72Zm-12.28,14.92c-.64-2.48-1-5.64-1.16-9.36-4.36,1.92-7.76,5.24-7.76,9.12,0,2.36,1.32,3.16,2.76,3.08,1.88-.04,4.04-1.12,6.16-2.84Zm8.2-11.24c-.64-.04-3.76-.12-6.76.96.08,3.24.36,6,.92,8.24,2.4-2.44,4.56-5.68,5.84-9.2Z"/>
  <path class="cls-1" d="m6.77,65.34c3,0,5.72-.04,7.88-.48.04-1.04.24-6.04.24-7.2l3.96.36c-.04.44-.4.68-1.08.76-.16,1.72-.24,3.72-.32,5.64l1.64.56c-.68,1.32-1.28,3.4-1.88,5.36,0,.52-.04,1.08-.04,1.6,4.12-3.6,9.12-5.84,13.4-5.84,6.04,0,9,4.12,9,11.6,0,2.56-.32,4.96-1.04,7.08,1.2,1.04,2.52,2.36,3.48,3.48l-1.84,2.36c-.72-.88-1.92-2.12-3-3.12-1.56,2.72-3.92,4.64-8,4.64-3.76,0-6.48-2.36-6.48-5.48,0-3.32,2.92-5.6,6.56-5.6,2.52,0,4.76.84,6.76,2.12.52-1.6.72-3.48.72-5.52,0-5.4-2.12-8.88-6.52-8.88-3.72,0-8.84,2.16-13.12,6.16,0,2.6-.04,15.4,0,18.28h-2.76c.04-3.52.08-12,.12-16.96h-.04c-1,2.32-3.36,6.4-6.76,10.08l-1.68-2.48c3.56-3.6,6.48-8.2,8.48-13.12l.12-3.16c-1.48.24-4.32.44-7.8.44v-2.68Zm28.47,20.24c-1.84-1.44-3.96-2.28-5.96-2.28-2.24,0-4.24,1.32-4.24,3.16,0,2.04,1.96,3.32,4.24,3.32,3.56,0,5.24-2.52,5.96-4.2Z"/>
  <path class="cls-1" d="m60.73,85.26c-1,3.68-2.96,8.72-4.04,10.6l-2.44.28c.92-2.44,2.12-7.28,2.6-10.44l3.88-.44Z"/>
  <path class="cls-1" d="m73.49,90.5l10.36-27.88h2.2l10.32,27.88h-2.84l-8.56-24.24-8.56,24.24h-2.92Zm5.12-7.16l.84-2.36h11l.88,2.36h-12.72Z"/>
  <path class="cls-1" d="m110.81,98.66v-27.88h2.52v6.2l-.8-.56c.37-1.25.92-2.32,1.64-3.2.72-.88,1.6-1.55,2.64-2.02,1.04-.47,2.2-.7,3.48-.7,1.76,0,3.31.45,4.66,1.34,1.35.89,2.4,2.1,3.16,3.62s1.14,3.25,1.14,5.2-.4,3.77-1.2,5.3c-.8,1.53-1.87,2.72-3.22,3.56s-2.86,1.26-4.54,1.26c-1.28,0-2.45-.25-3.5-.74s-1.93-1.18-2.64-2.06c-.71-.88-1.21-1.88-1.5-3l.68-.64v14.32h-2.52Zm9.08-10.2c1.33,0,2.51-.33,3.54-1,1.03-.67,1.83-1.59,2.42-2.76.59-1.17.88-2.52.88-4.04s-.29-2.87-.88-4.04c-.59-1.17-1.39-2.1-2.42-2.78-1.03-.68-2.21-1.02-3.54-1.02s-2.51.34-3.52,1.02c-1.01.68-1.81,1.61-2.38,2.78-.57,1.17-.86,2.52-.86,4.04s.29,2.87.86,4.04,1.37,2.09,2.38,2.76c1.01.67,2.19,1,3.52,1Z"/>
  <path class="cls-1" d="m134.53,90.5v-19.72h2.56v5.24l-.64.12c.21-1.23.68-2.25,1.4-3.08.72-.83,1.56-1.46,2.52-1.9s1.88-.66,2.76-.66c.53,0,1.07.06,1.62.18.55.12,1.07.31,1.58.58l-1.24,2.28c-.35-.16-.73-.29-1.16-.4-.43-.11-.84-.16-1.24-.16-.69,0-1.39.13-2.08.4-.69.27-1.33.69-1.9,1.26-.57.57-.99,1.34-1.26,2.3-.11.4-.19.89-.26,1.48-.07.59-.1,1.4-.1,2.44v9.64h-2.56Z"/>
  <path class="cls-1" d="m157.09,90.78c-1.47,0-2.77-.25-3.9-.76s-2.07-1.21-2.82-2.12c-.75-.91-1.31-1.97-1.7-3.2-.39-1.23-.58-2.53-.58-3.92s.19-2.74.56-3.98c.37-1.24.93-2.33,1.66-3.28.73-.95,1.64-1.69,2.72-2.22,1.08-.53,2.33-.8,3.74-.8,1.49,0,2.78.26,3.86.78s1.96,1.23,2.64,2.12c.68.89,1.19,1.87,1.52,2.94.33,1.07.5,2.15.5,3.24,0,.21,0,.49-.02.84-.01.35-.05.64-.1.88h-14.6c.05,2.27.66,4.03,1.82,5.28,1.16,1.25,2.73,1.88,4.7,1.88,1.25,0,2.33-.19,3.22-.58.89-.39,1.75-1.03,2.58-1.94l1.8,1.6c-.75.77-1.51,1.39-2.28,1.86-.77.47-1.59.81-2.46,1.04s-1.82.34-2.86.34Zm5.68-10.76c.05-.21.08-.43.08-.66v-.66c0-.69-.11-1.4-.34-2.12-.23-.72-.58-1.37-1.06-1.96-.48-.59-1.11-1.07-1.88-1.44s-1.69-.56-2.76-.56c-1.23,0-2.3.31-3.22.92-.92.61-1.63,1.43-2.14,2.44-.51,1.01-.8,2.16-.88,3.44h13.04l-.84.6Z"/>
  <path class="cls-1" d="m176.61,90.78c-1.31,0-2.49-.2-3.54-.6-1.05-.4-1.96-.94-2.72-1.62-.76-.68-1.35-1.43-1.78-2.26l1.8-1.44c.51,1.12,1.3,2.03,2.38,2.74s2.37,1.06,3.86,1.06c1.41,0,2.55-.31,3.4-.94s1.28-1.49,1.28-2.58c0-.91-.26-1.61-.78-2.1-.52-.49-1.19-.89-2-1.18-.81-.29-1.7-.55-2.66-.76-.75-.19-1.49-.41-2.24-.66-.75-.25-1.42-.57-2.02-.96-.6-.39-1.07-.89-1.42-1.5-.35-.61-.52-1.37-.52-2.28,0-1.55.61-2.8,1.82-3.76,1.21-.96,2.79-1.44,4.74-1.44,1.47,0,2.81.31,4.02.94,1.21.63,2.15,1.58,2.82,2.86l-1.64,1.2c-.56-1.04-1.3-1.79-2.22-2.26-.92-.47-1.94-.7-3.06-.7-1.2,0-2.19.27-2.98.8-.79.53-1.18,1.25-1.18,2.16,0,.67.19,1.21.56,1.62.37.41.91.75,1.6,1.02s1.51.51,2.44.72c.85.19,1.7.41,2.54.68.84.27,1.61.61,2.32,1.02.71.41,1.27.97,1.68,1.66.41.69.62,1.57.62,2.64,0,1.2-.29,2.25-.88,3.14-.59.89-1.41,1.58-2.48,2.06-1.07.48-2.32.72-3.76.72Z"/>
  <path class="cls-1" d="m186.01,72.78v-2h11.6v2h-11.6Zm8.76,18c-.88,0-1.65-.17-2.32-.52-.67-.35-1.18-.89-1.54-1.62-.36-.73-.54-1.66-.54-2.78v-20.72l2.56-1.48v21.6c0,1.07.18,1.9.54,2.5.36.6.99.9,1.9.9.32,0,.67-.03,1.04-.1.37-.07.77-.15,1.2-.26v2c-.48.16-.96.28-1.44.36-.48.08-.95.12-1.4.12Z"/>
  <path class="cls-1" d="m210.05,90.78c-1.81,0-3.43-.43-4.86-1.3-1.43-.87-2.54-2.07-3.34-3.6-.8-1.53-1.2-3.29-1.2-5.26s.39-3.72,1.18-5.24c.79-1.52,1.89-2.71,3.32-3.58,1.43-.87,3.06-1.3,4.9-1.3s3.46.43,4.86,1.3c1.4.87,2.51,2.06,3.32,3.58.81,1.52,1.22,3.27,1.22,5.24s-.41,3.73-1.22,5.26c-.81,1.53-1.93,2.73-3.34,3.6-1.41.87-3.03,1.3-4.84,1.3Zm0-2.24c1.39,0,2.59-.33,3.62-1,1.03-.67,1.82-1.59,2.38-2.78.56-1.19.84-2.57.84-4.14s-.28-2.99-.84-4.18c-.56-1.19-1.35-2.11-2.38-2.76-1.03-.65-2.23-.98-3.62-.98s-2.6.33-3.64,1-1.85,1.59-2.42,2.76c-.57,1.17-.86,2.56-.86,4.16s.29,2.95.86,4.14c.57,1.19,1.38,2.11,2.42,2.78,1.04.67,2.25,1,3.64,1Z"/>
  <path class="cls-1" d="m222.61,96.74l4.28-11.92h2.8l-5.32,11.92h-1.76Z"/>
  <path class="cls-1" d="m244.93,90.5v-27.88h8.44c2.59,0,4.61.61,6.08,1.84,1.47,1.23,2.2,2.92,2.2,5.08,0,1.44-.33,2.69-1,3.76-.67,1.07-1.6,1.85-2.8,2.36,1.68.4,2.97,1.21,3.86,2.42.89,1.21,1.34,2.78,1.34,4.7,0,2.48-.77,4.39-2.3,5.72-1.53,1.33-3.73,2-6.58,2h-9.24Zm2.6-15.6h6.56c1.49,0,2.69-.45,3.6-1.36.91-.91,1.36-2.12,1.36-3.64s-.5-2.71-1.5-3.58c-1-.87-2.39-1.3-4.18-1.3h-5.84v9.88Zm0,13.2h6.48c4.29,0,6.44-1.81,6.44-5.44,0-1.71-.47-3.03-1.42-3.98-.95-.95-2.29-1.42-4.02-1.42h-7.48v10.84Z"/>
  <path class="cls-1" d="m267.85,66.94v-4.32h3v4.32h-3Zm.24,23.56v-19.72h2.52v19.72h-2.52Z"/>
  <path class="cls-1" d="m283.09,90.78c-1.31,0-2.49-.2-3.54-.6-1.05-.4-1.96-.94-2.72-1.62-.76-.68-1.35-1.43-1.78-2.26l1.8-1.44c.51,1.12,1.3,2.03,2.38,2.74s2.37,1.06,3.86,1.06c1.41,0,2.55-.31,3.4-.94s1.28-1.49,1.28-2.58c0-.91-.26-1.61-.78-2.1-.52-.49-1.19-.89-2-1.18-.81-.29-1.7-.55-2.66-.76-.75-.19-1.49-.41-2.24-.66-.75-.25-1.42-.57-2.02-.96-.6-.39-1.07-.89-1.42-1.5-.35-.61-.52-1.37-.52-2.28,0-1.55.61-2.8,1.82-3.76,1.21-.96,2.79-1.44,4.74-1.44,1.47,0,2.81.31,4.02.94,1.21.63,2.15,1.58,2.82,2.86l-1.64,1.2c-.56-1.04-1.3-1.79-2.22-2.26-.92-.47-1.94-.7-3.06-.7-1.2,0-2.19.27-2.98.8-.79.53-1.18,1.25-1.18,2.16,0,.67.19,1.21.56,1.62.37.41.91.75,1.6,1.02s1.51.51,2.44.72c.85.19,1.7.41,2.54.68.84.27,1.61.61,2.32,1.02.71.41,1.27.97,1.68,1.66.41.69.62,1.57.62,2.64,0,1.2-.29,2.25-.88,3.14-.59.89-1.41,1.58-2.48,2.06-1.07.48-2.32.72-3.76.72Z"/>
  <path class="cls-1" d="m315.33,90.78c-1.28,0-2.45-.26-3.5-.78s-1.94-1.25-2.66-2.18c-.72-.93-1.25-2.01-1.6-3.24l.8-.28v6.2h-2.52v-27.88h2.52v14.32l-.68-.4c.29-1.15.8-2.17,1.52-3.08.72-.91,1.6-1.63,2.64-2.16,1.04-.53,2.2-.8,3.48-.8,1.68,0,3.19.42,4.54,1.26,1.35.84,2.42,2.02,3.22,3.54.8,1.52,1.2,3.29,1.2,5.32,0,1.92-.38,3.65-1.14,5.18-.76,1.53-1.81,2.75-3.16,3.64-1.35.89-2.9,1.34-4.66,1.34Zm-.4-2.32c1.33,0,2.51-.34,3.54-1.02,1.03-.68,1.83-1.61,2.42-2.78.59-1.17.88-2.52.88-4.04s-.29-2.87-.88-4.04c-.59-1.17-1.39-2.09-2.42-2.76-1.03-.67-2.21-1-3.54-1s-2.51.33-3.52,1c-1.01.67-1.81,1.59-2.38,2.76-.57,1.17-.86,2.52-.86,4.04s.29,2.87.86,4.04c.57,1.17,1.37,2.1,2.38,2.78s2.19,1.02,3.52,1.02Z"/>
  <path class="cls-1" d="m335.57,90.78c-1.47,0-2.74-.25-3.82-.76s-1.91-1.21-2.48-2.1c-.57-.89-.86-1.94-.86-3.14,0-1.07.21-1.97.62-2.7.41-.73.95-1.31,1.62-1.74.72-.48,1.54-.81,2.46-1,.92-.19,1.91-.28,2.98-.28h6.52v1.92h-6.2c-.77,0-1.53.07-2.26.2-.73.13-1.35.4-1.86.8-.43.29-.75.67-.98,1.14-.23.47-.34,1.02-.34,1.66,0,1.2.43,2.15,1.3,2.86.87.71,2.05,1.06,3.54,1.06,1.2,0,2.29-.29,3.28-.86.99-.57,1.78-1.37,2.38-2.38.6-1.01.9-2.15.9-3.4l1.08,1.2c-.13,1.49-.56,2.81-1.28,3.96s-1.65,2.03-2.8,2.64c-1.15.61-2.41.92-3.8.92Zm6.96-.28l-.16-4.48v-7.8c0-1.81-.47-3.19-1.4-4.12-.93-.93-2.31-1.4-4.12-1.4-1.17,0-2.25.23-3.24.7-.99.47-1.92,1.26-2.8,2.38l-1.84-1.56c1.07-1.28,2.26-2.22,3.58-2.82,1.32-.6,2.81-.9,4.46-.9,2.51,0,4.44.66,5.8,1.98,1.36,1.32,2.04,3.23,2.04,5.74v12.28h-2.32Z"/>
  <path class="cls-1" d="m354.45,90.78c-1.12,0-2.01-.35-2.68-1.06-.67-.71-1-1.83-1-3.38v-23.72h2.52v23.28c0,.91.17,1.56.52,1.96.35.4.81.6,1.4.6.27,0,.56-.03.88-.1.32-.07.65-.15,1-.26v2.16c-.45.16-.91.29-1.38.38-.47.09-.89.14-1.26.14Z"/>
  <path class="cls-1" d="m369.21,90.78c-1.76,0-3.31-.45-4.66-1.34-1.35-.89-2.4-2.11-3.16-3.64-.76-1.53-1.14-3.26-1.14-5.18,0-2.03.4-3.8,1.2-5.32.8-1.52,1.88-2.7,3.24-3.54,1.36-.84,2.87-1.26,4.52-1.26,1.31,0,2.48.26,3.52.78s1.92,1.23,2.64,2.14c.72.91,1.21,1.93,1.48,3.08l-.68.44v-14.32h2.52v27.88h-2.52v-6.2l.8.28c-.35,1.23-.88,2.31-1.6,3.24-.72.93-1.6,1.66-2.64,2.18s-2.21.78-3.52.78Zm.4-2.32c1.33,0,2.51-.34,3.52-1.02,1.01-.68,1.81-1.61,2.38-2.78.57-1.17.86-2.52.86-4.04s-.29-2.87-.86-4.04c-.57-1.17-1.37-2.09-2.38-2.76-1.01-.67-2.19-1-3.52-1s-2.48.33-3.52,1c-1.04.67-1.85,1.59-2.44,2.76-.59,1.17-.88,2.52-.88,4.04s.29,2.87.88,4.04c.59,1.17,1.4,2.1,2.44,2.78s2.21,1.02,3.52,1.02Z"/>
  <path class="cls-1" d="m382.89,96.74l4.28-11.92h2.8l-5.32,11.92h-1.76Z"/>
  <path class="cls-1" d="m405.2,90.5v-27.88h2.84l14.96,24.52h-.52v-24.52h2.6v27.88h-2.92l-14.88-24.56h.52v24.56h-2.6Z"/>
  <path class="cls-1" d="m440.08,90.78c-1.81,0-3.43-.43-4.86-1.3-1.43-.87-2.54-2.07-3.34-3.6-.8-1.53-1.2-3.29-1.2-5.26s.39-3.72,1.18-5.24c.79-1.52,1.89-2.71,3.32-3.58,1.43-.87,3.06-1.3,4.9-1.3s3.46.43,4.86,1.3c1.4.87,2.51,2.06,3.32,3.58.81,1.52,1.22,3.27,1.22,5.24s-.41,3.73-1.22,5.26c-.81,1.53-1.93,2.73-3.34,3.6-1.41.87-3.03,1.3-4.84,1.3Zm0-2.24c1.39,0,2.59-.33,3.62-1,1.03-.67,1.82-1.59,2.38-2.78.56-1.19.84-2.57.84-4.14s-.28-2.99-.84-4.18c-.56-1.19-1.35-2.11-2.38-2.76-1.03-.65-2.23-.98-3.62-.98s-2.6.33-3.64,1-1.85,1.59-2.42,2.76c-.57,1.17-.86,2.56-.86,4.16s.29,2.95.86,4.14c.57,1.19,1.38,2.11,2.42,2.78,1.04.67,2.25,1,3.64,1Z"/>
  <path class="cls-1" d="m460.72,90.78c-1.31,0-2.49-.2-3.54-.6-1.05-.4-1.96-.94-2.72-1.62-.76-.68-1.35-1.43-1.78-2.26l1.8-1.44c.51,1.12,1.3,2.03,2.38,2.74s2.37,1.06,3.86,1.06c1.41,0,2.55-.31,3.4-.94s1.28-1.49,1.28-2.58c0-.91-.26-1.61-.78-2.1-.52-.49-1.19-.89-2-1.18-.81-.29-1.7-.55-2.66-.76-.75-.19-1.49-.41-2.24-.66-.75-.25-1.42-.57-2.02-.96-.6-.39-1.07-.89-1.42-1.5-.35-.61-.52-1.37-.52-2.28,0-1.55.61-2.8,1.82-3.76,1.21-.96,2.79-1.44,4.74-1.44,1.47,0,2.81.31,4.02.94,1.21.63,2.15,1.58,2.82,2.86l-1.64,1.2c-.56-1.04-1.3-1.79-2.22-2.26-.92-.47-1.94-.7-3.06-.7-1.2,0-2.19.27-2.98.8-.79.53-1.18,1.25-1.18,2.16,0,.67.19,1.21.56,1.62.37.41.91.75,1.6,1.02s1.51.51,2.44.72c.85.19,1.7.41,2.54.68.84.27,1.61.61,2.32,1.02.71.41,1.27.97,1.68,1.66.41.69.62,1.57.62,2.64,0,1.2-.29,2.25-.88,3.14-.59.89-1.41,1.58-2.48,2.06-1.07.48-2.32.72-3.76.72Z"/>
  <path class="cls-1" d="m13.29,138.5l-8.08-19.72h2.76l6.36,16.52,6.4-16.52h2.76l-8.04,19.72h-2.16Z"/>
  <path class="cls-1" d="m35.33,138.78c-1.47,0-2.77-.25-3.9-.76-1.13-.51-2.07-1.21-2.82-2.12-.75-.91-1.31-1.97-1.7-3.2-.39-1.23-.58-2.53-.58-3.92s.19-2.74.56-3.98c.37-1.24.93-2.33,1.66-3.28.73-.95,1.64-1.69,2.72-2.22,1.08-.53,2.33-.8,3.74-.8,1.49,0,2.78.26,3.86.78s1.96,1.23,2.64,2.12c.68.89,1.19,1.87,1.52,2.94.33,1.07.5,2.15.5,3.24,0,.21,0,.49-.02.84-.01.35-.05.64-.1.88h-14.6c.05,2.27.66,4.03,1.82,5.28,1.16,1.25,2.73,1.88,4.7,1.88,1.25,0,2.33-.19,3.22-.58s1.75-1.03,2.58-1.94l1.8,1.6c-.75.77-1.51,1.39-2.28,1.86-.77.47-1.59.81-2.46,1.04-.87.23-1.82.34-2.86.34Zm5.68-10.76c.05-.21.08-.43.08-.66v-.66c0-.69-.11-1.4-.34-2.12-.23-.72-.58-1.37-1.06-1.96-.48-.59-1.11-1.07-1.88-1.44s-1.69-.56-2.76-.56c-1.23,0-2.3.31-3.22.92-.92.61-1.63,1.43-2.14,2.44-.51,1.01-.8,2.16-.88,3.44h13.04l-.84.6Z"/>
  <path class="cls-1" d="m48.77,138.5v-19.72h2.56v5.08h-.52c.24-.93.56-1.73.96-2.4.4-.67.88-1.22,1.44-1.66.56-.44,1.17-.77,1.82-.98.65-.21,1.34-.32,2.06-.32,1.17,0,2.21.22,3.1.66s1.62,1.11,2.18,2.02c.56.91.95,2.07,1.16,3.48l-1.4.08c.37-1.36.86-2.5,1.46-3.42.6-.92,1.35-1.62,2.26-2.1.91-.48,1.97-.72,3.2-.72,1.6,0,2.88.37,3.84,1.1.96.73,1.65,1.71,2.08,2.94.43,1.23.64,2.63.64,4.2v11.76h-2.52v-11.2c0-1.36-.15-2.53-.44-3.52-.29-.99-.77-1.75-1.44-2.28-.67-.53-1.57-.8-2.72-.8-.99,0-1.86.26-2.62.78-.76.52-1.35,1.31-1.76,2.38-.41,1.07-.62,2.4-.62,4v10.64h-2.56v-11.56c0-2.11-.38-3.67-1.14-4.7-.76-1.03-1.89-1.54-3.38-1.54-.99,0-1.87.27-2.64.8-.77.53-1.37,1.35-1.8,2.44-.43,1.09-.64,2.48-.64,4.16v10.4h-2.56Z"/>
  <path class="cls-1" d="m89.89,138.78c-1.81,0-3.43-.43-4.86-1.3-1.43-.87-2.54-2.07-3.34-3.6-.8-1.53-1.2-3.29-1.2-5.26s.39-3.72,1.18-5.24c.79-1.52,1.89-2.71,3.32-3.58,1.43-.87,3.06-1.3,4.9-1.3s3.46.43,4.86,1.3c1.4.87,2.51,2.06,3.32,3.58.81,1.52,1.22,3.27,1.22,5.24s-.41,3.73-1.22,5.26c-.81,1.53-1.93,2.73-3.34,3.6-1.41.87-3.03,1.3-4.84,1.3Zm0-2.24c1.39,0,2.59-.33,3.62-1,1.03-.67,1.82-1.59,2.38-2.78.56-1.19.84-2.57.84-4.14s-.28-2.99-.84-4.18c-.56-1.19-1.35-2.11-2.38-2.76-1.03-.65-2.23-.98-3.62-.98s-2.6.33-3.64,1-1.85,1.59-2.42,2.76c-.57,1.17-.86,2.56-.86,4.16s.29,2.95.86,4.14c.57,1.19,1.38,2.11,2.42,2.78,1.04.67,2.25,1,3.64,1Z"/>
  <path class="cls-1" d="m110.53,138.78c-1.31,0-2.49-.2-3.54-.6-1.05-.4-1.96-.94-2.72-1.62-.76-.68-1.35-1.43-1.78-2.26l1.8-1.44c.51,1.12,1.3,2.03,2.38,2.74,1.08.71,2.37,1.06,3.86,1.06,1.41,0,2.55-.31,3.4-.94.85-.63,1.28-1.49,1.28-2.58,0-.91-.26-1.61-.78-2.1-.52-.49-1.19-.89-2-1.18-.81-.29-1.7-.55-2.66-.76-.75-.19-1.49-.41-2.24-.66-.75-.25-1.42-.57-2.02-.96-.6-.39-1.07-.89-1.42-1.5-.35-.61-.52-1.37-.52-2.28,0-1.55.61-2.8,1.82-3.76,1.21-.96,2.79-1.44,4.74-1.44,1.47,0,2.81.31,4.02.94,1.21.63,2.15,1.58,2.82,2.86l-1.64,1.2c-.56-1.04-1.3-1.79-2.22-2.26-.92-.47-1.94-.7-3.06-.7-1.2,0-2.19.27-2.98.8-.79.53-1.18,1.25-1.18,2.16,0,.67.19,1.21.56,1.62.37.41.91.75,1.6,1.02s1.51.51,2.44.72c.85.19,1.7.41,2.54.68.84.27,1.61.61,2.32,1.02.71.41,1.27.97,1.68,1.66.41.69.62,1.57.62,2.64,0,1.2-.29,2.25-.88,3.14s-1.41,1.58-2.48,2.06c-1.07.48-2.32.72-3.76.72Z"/>
  <path class="cls-1" d="m120.89,144.74l4.28-11.92h2.8l-5.32,11.92h-1.76Z"/>
  <path class="cls-1" d="m143.21,138.5v-27.88h8.44c2.59,0,4.61.61,6.08,1.84,1.47,1.23,2.2,2.92,2.2,5.08,0,1.44-.33,2.69-1,3.76-.67,1.07-1.6,1.85-2.8,2.36,1.68.4,2.97,1.21,3.86,2.42.89,1.21,1.34,2.78,1.34,4.7,0,2.48-.77,4.39-2.3,5.72-1.53,1.33-3.73,2-6.58,2h-9.24Zm2.6-15.6h6.56c1.49,0,2.69-.45,3.6-1.36.91-.91,1.36-2.12,1.36-3.64s-.5-2.71-1.5-3.58c-1-.87-2.39-1.3-4.18-1.3h-5.84v9.88Zm0,13.2h6.48c4.29,0,6.44-1.81,6.44-5.44,0-1.71-.47-3.03-1.42-3.98-.95-.95-2.29-1.42-4.02-1.42h-7.48v10.84Z"/>
  <path class="cls-1" d="m166.13,114.94v-4.32h3v4.32h-3Zm.24,23.56v-19.72h2.52v19.72h-2.52Z"/>
  <path class="cls-1" d="m181.37,138.78c-1.31,0-2.49-.2-3.54-.6-1.05-.4-1.96-.94-2.72-1.62-.76-.68-1.35-1.43-1.78-2.26l1.8-1.44c.51,1.12,1.3,2.03,2.38,2.74,1.08.71,2.37,1.06,3.86,1.06,1.41,0,2.55-.31,3.4-.94.85-.63,1.28-1.49,1.28-2.58,0-.91-.26-1.61-.78-2.1-.52-.49-1.19-.89-2-1.18-.81-.29-1.7-.55-2.66-.76-.75-.19-1.49-.41-2.24-.66-.75-.25-1.42-.57-2.02-.96-.6-.39-1.07-.89-1.42-1.5-.35-.61-.52-1.37-.52-2.28,0-1.55.61-2.8,1.82-3.76,1.21-.96,2.79-1.44,4.74-1.44,1.47,0,2.81.31,4.02.94,1.21.63,2.15,1.58,2.82,2.86l-1.64,1.2c-.56-1.04-1.3-1.79-2.22-2.26-.92-.47-1.94-.7-3.06-.7-1.2,0-2.19.27-2.98.8-.79.53-1.18,1.25-1.18,2.16,0,.67.19,1.21.56,1.62.37.41.91.75,1.6,1.02s1.51.51,2.44.72c.85.19,1.7.41,2.54.68.84.27,1.61.61,2.32,1.02.71.41,1.27.97,1.68,1.66.41.69.62,1.57.62,2.64,0,1.2-.29,2.25-.88,3.14s-1.41,1.58-2.48,2.06c-1.07.48-2.32.72-3.76.72Z"/>
  <path class="cls-1" d="m213.61,138.78c-1.28,0-2.45-.26-3.5-.78s-1.94-1.25-2.66-2.18c-.72-.93-1.25-2.01-1.6-3.24l.8-.28v6.2h-2.52v-27.88h2.52v14.32l-.68-.4c.29-1.15.8-2.17,1.52-3.08.72-.91,1.6-1.63,2.64-2.16,1.04-.53,2.2-.8,3.48-.8,1.68,0,3.19.42,4.54,1.26,1.35.84,2.42,2.02,3.22,3.54.8,1.52,1.2,3.29,1.2,5.32,0,1.92-.38,3.65-1.14,5.18-.76,1.53-1.81,2.75-3.16,3.64s-2.9,1.34-4.66,1.34Zm-.4-2.32c1.33,0,2.51-.34,3.54-1.02,1.03-.68,1.83-1.61,2.42-2.78.59-1.17.88-2.52.88-4.04s-.29-2.87-.88-4.04c-.59-1.17-1.39-2.09-2.42-2.76-1.03-.67-2.21-1-3.54-1s-2.51.33-3.52,1c-1.01.67-1.81,1.59-2.38,2.76-.57,1.17-.86,2.52-.86,4.04s.29,2.87.86,4.04c.57,1.17,1.37,2.1,2.38,2.78,1.01.68,2.19,1.02,3.52,1.02Z"/>
  <path class="cls-1" d="m233.85,138.78c-1.47,0-2.74-.25-3.82-.76-1.08-.51-1.91-1.21-2.48-2.1s-.86-1.94-.86-3.14c0-1.07.21-1.97.62-2.7.41-.73.95-1.31,1.62-1.74.72-.48,1.54-.81,2.46-1,.92-.19,1.91-.28,2.98-.28h6.52v1.92h-6.2c-.77,0-1.53.07-2.26.2-.73.13-1.35.4-1.86.8-.43.29-.75.67-.98,1.14-.23.47-.34,1.02-.34,1.66,0,1.2.43,2.15,1.3,2.86.87.71,2.05,1.06,3.54,1.06,1.2,0,2.29-.29,3.28-.86s1.78-1.37,2.38-2.38c.6-1.01.9-2.15.9-3.4l1.08,1.2c-.13,1.49-.56,2.81-1.28,3.96s-1.65,2.03-2.8,2.64c-1.15.61-2.41.92-3.8.92Zm6.96-.28l-.16-4.48v-7.8c0-1.81-.47-3.19-1.4-4.12-.93-.93-2.31-1.4-4.12-1.4-1.17,0-2.25.23-3.24.7-.99.47-1.92,1.26-2.8,2.38l-1.84-1.56c1.07-1.28,2.26-2.22,3.58-2.82,1.32-.6,2.81-.9,4.46-.9,2.51,0,4.44.66,5.8,1.98,1.36,1.32,2.04,3.23,2.04,5.74v12.28h-2.32Z"/>
  <path class="cls-1" d="m252.73,138.78c-1.12,0-2.01-.35-2.68-1.06-.67-.71-1-1.83-1-3.38v-23.72h2.52v23.28c0,.91.17,1.56.52,1.96.35.4.81.6,1.4.6.27,0,.56-.03.88-.1.32-.07.65-.15,1-.26v2.16c-.45.16-.91.29-1.38.38-.47.09-.89.14-1.26.14Z"/>
  <path class="cls-1" d="m267.49,138.78c-1.76,0-3.31-.45-4.66-1.34s-2.4-2.11-3.16-3.64c-.76-1.53-1.14-3.26-1.14-5.18,0-2.03.4-3.8,1.2-5.32.8-1.52,1.88-2.7,3.24-3.54,1.36-.84,2.87-1.26,4.52-1.26,1.31,0,2.48.26,3.52.78s1.92,1.23,2.64,2.14c.72.91,1.21,1.93,1.48,3.08l-.68.44v-14.32h2.52v27.88h-2.52v-6.2l.8.28c-.35,1.23-.88,2.31-1.6,3.24-.72.93-1.6,1.66-2.64,2.18s-2.21.78-3.52.78Zm.4-2.32c1.33,0,2.51-.34,3.52-1.02,1.01-.68,1.81-1.61,2.38-2.78.57-1.17.86-2.52.86-4.04s-.29-2.87-.86-4.04c-.57-1.17-1.37-2.09-2.38-2.76-1.01-.67-2.19-1-3.52-1s-2.48.33-3.52,1c-1.04.67-1.85,1.59-2.44,2.76-.59,1.17-.88,2.52-.88,4.04s.29,2.87.88,4.04c.59,1.17,1.4,2.1,2.44,2.78,1.04.68,2.21,1.02,3.52,1.02Z"/>
  <path class="cls-1" d="m281.17,144.74l4.28-11.92h2.8l-5.32,11.92h-1.76Z"/>
  <path class="cls-1" d="m311.69,138.86c-2.72,0-4.95-.71-6.68-2.12s-2.79-3.29-3.16-5.64l2.56-.64c.32,1.97,1.14,3.47,2.46,4.5,1.32,1.03,2.95,1.54,4.9,1.54,1.15,0,2.18-.23,3.1-.68.92-.45,1.65-1.09,2.18-1.92.53-.83.8-1.77.8-2.84,0-1.15-.31-2.07-.92-2.78-.61-.71-1.43-1.31-2.44-1.82-1.01-.51-2.16-1-3.44-1.48-1.44-.56-2.73-1.17-3.88-1.82-1.15-.65-2.05-1.45-2.7-2.38-.65-.93-.98-2.09-.98-3.48s.33-2.61,1-3.66c.67-1.05,1.61-1.89,2.82-2.5,1.21-.61,2.62-.92,4.22-.92,1.71,0,3.21.39,4.52,1.16,1.31.77,2.36,1.91,3.16,3.4l-2.08,1.28c-.64-1.12-1.43-1.99-2.38-2.6-.95-.61-2.05-.92-3.3-.92-1.07,0-2,.2-2.8.6-.8.4-1.43.95-1.88,1.66-.45.71-.68,1.51-.68,2.42,0,.96.26,1.77.78,2.44.52.67,1.27,1.24,2.24,1.72s2.11.96,3.42,1.44c1.55.59,2.91,1.22,4.1,1.9,1.19.68,2.11,1.51,2.78,2.5.67.99,1,2.21,1,3.68,0,1.55-.37,2.92-1.12,4.12-.75,1.2-1.77,2.14-3.08,2.82-1.31.68-2.81,1.02-4.52,1.02Z"/>
  <path class="cls-1" d="m331.65,138.78c-1.47,0-2.74-.25-3.82-.76-1.08-.51-1.91-1.21-2.48-2.1s-.86-1.94-.86-3.14c0-1.07.21-1.97.62-2.7.41-.73.95-1.31,1.62-1.74.72-.48,1.54-.81,2.46-1,.92-.19,1.91-.28,2.98-.28h6.52v1.92h-6.2c-.77,0-1.53.07-2.26.2-.73.13-1.35.4-1.86.8-.43.29-.75.67-.98,1.14-.23.47-.34,1.02-.34,1.66,0,1.2.43,2.15,1.3,2.86.87.71,2.05,1.06,3.54,1.06,1.2,0,2.29-.29,3.28-.86s1.78-1.37,2.38-2.38c.6-1.01.9-2.15.9-3.4l1.08,1.2c-.13,1.49-.56,2.81-1.28,3.96s-1.65,2.03-2.8,2.64c-1.15.61-2.41.92-3.8.92Zm6.96-.28l-.16-4.48v-7.8c0-1.81-.47-3.19-1.4-4.12-.93-.93-2.31-1.4-4.12-1.4-1.17,0-2.25.23-3.24.7-.99.47-1.92,1.26-2.8,2.38l-1.84-1.56c1.07-1.28,2.26-2.22,3.58-2.82,1.32-.6,2.81-.9,4.46-.9,2.51,0,4.44.66,5.8,1.98,1.36,1.32,2.04,3.23,2.04,5.74v12.28h-2.32Z"/>
  <path class="cls-1" d="m346.89,138.5v-19.72h2.56v5.08h-.52c.24-.93.56-1.73.96-2.4.4-.67.88-1.22,1.44-1.66.56-.44,1.17-.77,1.82-.98.65-.21,1.34-.32,2.06-.32,1.17,0,2.21.22,3.1.66s1.62,1.11,2.18,2.02c.56.91.95,2.07,1.16,3.48l-1.4.08c.37-1.36.86-2.5,1.46-3.42.6-.92,1.35-1.62,2.26-2.1.91-.48,1.97-.72,3.2-.72,1.6,0,2.88.37,3.84,1.1.96.73,1.65,1.71,2.08,2.94.43,1.23.64,2.63.64,4.2v11.76h-2.52v-11.2c0-1.36-.15-2.53-.44-3.52-.29-.99-.77-1.75-1.44-2.28-.67-.53-1.57-.8-2.72-.8-.99,0-1.86.26-2.62.78-.76.52-1.35,1.31-1.76,2.38-.41,1.07-.62,2.4-.62,4v10.64h-2.56v-11.56c0-2.11-.38-3.67-1.14-4.7-.76-1.03-1.89-1.54-3.38-1.54-.99,0-1.87.27-2.64.8-.77.53-1.37,1.35-1.8,2.44-.43,1.09-.64,2.48-.64,4.16v10.4h-2.56Z"/>
  <path class="cls-1" d="m379.68,146.66v-27.88h2.52v6.2l-.8-.56c.37-1.25.92-2.32,1.64-3.2.72-.88,1.6-1.55,2.64-2.02,1.04-.47,2.2-.7,3.48-.7,1.76,0,3.31.45,4.66,1.34,1.35.89,2.4,2.1,3.16,3.62s1.14,3.25,1.14,5.2-.4,3.77-1.2,5.3c-.8,1.53-1.87,2.72-3.22,3.56s-2.86,1.26-4.54,1.26c-1.28,0-2.45-.25-3.5-.74s-1.93-1.18-2.64-2.06c-.71-.88-1.21-1.88-1.5-3l.68-.64v14.32h-2.52Zm9.08-10.2c1.33,0,2.51-.33,3.54-1,1.03-.67,1.83-1.59,2.42-2.76.59-1.17.88-2.52.88-4.04s-.29-2.87-.88-4.04c-.59-1.17-1.39-2.1-2.42-2.78-1.03-.68-2.21-1.02-3.54-1.02s-2.51.34-3.52,1.02c-1.01.68-1.81,1.61-2.38,2.78-.57,1.17-.86,2.52-.86,4.04s.29,2.87.86,4.04c.57,1.17,1.37,2.09,2.38,2.76,1.01.67,2.19,1,3.52,1Z"/>
  <path class="cls-1" d="m409.64,138.78c-1.47,0-2.74-.25-3.82-.76-1.08-.51-1.91-1.21-2.48-2.1s-.86-1.94-.86-3.14c0-1.07.21-1.97.62-2.7.41-.73.95-1.31,1.62-1.74.72-.48,1.54-.81,2.46-1,.92-.19,1.91-.28,2.98-.28h6.52v1.92h-6.2c-.77,0-1.53.07-2.26.2-.73.13-1.35.4-1.86.8-.43.29-.75.67-.98,1.14-.23.47-.34,1.02-.34,1.66,0,1.2.43,2.15,1.3,2.86.87.71,2.05,1.06,3.54,1.06,1.2,0,2.29-.29,3.28-.86s1.78-1.37,2.38-2.38c.6-1.01.9-2.15.9-3.4l1.08,1.2c-.13,1.49-.56,2.81-1.28,3.96s-1.65,2.03-2.8,2.64c-1.15.61-2.41.92-3.8.92Zm6.96-.28l-.16-4.48v-7.8c0-1.81-.47-3.19-1.4-4.12-.93-.93-2.31-1.4-4.12-1.4-1.17,0-2.25.23-3.24.7-.99.47-1.92,1.26-2.8,2.38l-1.84-1.56c1.07-1.28,2.26-2.22,3.58-2.82,1.32-.6,2.81-.9,4.46-.9,2.51,0,4.44.66,5.8,1.98,1.36,1.32,2.04,3.23,2.04,5.74v12.28h-2.32Z"/>
  <path class="cls-1" d="m424.64,114.94v-4.32h3v4.32h-3Zm.24,23.56v-19.72h2.52v19.72h-2.52Z"/>
  <path class="cls-1" d="m441.68,146.94c-.43,0-.88-.05-1.36-.14-.48-.09-.97-.21-1.48-.34v-2.24c.43.16.81.27,1.14.32.33.05.61.08.82.08.69,0,1.21-.21,1.56-.62.35-.41.52-1.11.52-2.1v-23.12h2.52v23.72c0,1.55-.33,2.67-1,3.38-.67.71-1.57,1.06-2.72,1.06Zm1-32v-4.32h3v4.32h-3Z"/>
  <path class="cls-1" d="m458.08,138.78c-1.39,0-2.59-.29-3.6-.86-1.01-.57-1.79-1.43-2.34-2.56-.55-1.13-.82-2.57-.82-4.3v-12.28h2.52v11.4c0,1.44.19,2.63.56,3.58.37.95.92,1.65,1.64,2.12.72.47,1.63.7,2.72.7,1.17,0,2.17-.28,3-.84.83-.56,1.46-1.41,1.9-2.56.44-1.15.66-2.61.66-4.4v-10h2.52v19.72h-2.52v-4.6h.6c-.51,1.63-1.37,2.85-2.58,3.66-1.21.81-2.63,1.22-4.26,1.22Z"/>
  <path class="cls-1" d="m473.04,138.5v-19.72h2.56v5.08h-.52c.24-.93.56-1.73.96-2.4.4-.67.88-1.22,1.44-1.66.56-.44,1.17-.77,1.82-.98.65-.21,1.34-.32,2.06-.32,1.17,0,2.21.22,3.1.66s1.62,1.11,2.18,2.02c.56.91.95,2.07,1.16,3.48l-1.4.08c.37-1.36.86-2.5,1.46-3.42.6-.92,1.35-1.62,2.26-2.1.91-.48,1.97-.72,3.2-.72,1.6,0,2.88.37,3.84,1.1.96.73,1.65,1.71,2.08,2.94.43,1.23.64,2.63.64,4.2v11.76h-2.52v-11.2c0-1.36-.15-2.53-.44-3.52-.29-.99-.77-1.75-1.44-2.28-.67-.53-1.57-.8-2.72-.8-.99,0-1.86.26-2.62.78-.76.52-1.35,1.31-1.76,2.38-.41,1.07-.62,2.4-.62,4v10.64h-2.56v-11.56c0-2.11-.38-3.67-1.14-4.7-.76-1.03-1.89-1.54-3.38-1.54-.99,0-1.87.27-2.64.8-.77.53-1.37,1.35-1.8,2.44-.43,1.09-.64,2.48-.64,4.16v10.4h-2.56Z"/>
  <path class="cls-1" d="m505.84,146.66v-27.88h2.52v6.2l-.8-.56c.37-1.25.92-2.32,1.64-3.2.72-.88,1.6-1.55,2.64-2.02,1.04-.47,2.2-.7,3.48-.7,1.76,0,3.31.45,4.66,1.34,1.35.89,2.4,2.1,3.16,3.62s1.14,3.25,1.14,5.2-.4,3.77-1.2,5.3c-.8,1.53-1.87,2.72-3.22,3.56s-2.86,1.26-4.54,1.26c-1.28,0-2.45-.25-3.5-.74s-1.93-1.18-2.64-2.06c-.71-.88-1.21-1.88-1.5-3l.68-.64v14.32h-2.52Zm9.08-10.2c1.33,0,2.51-.33,3.54-1,1.03-.67,1.83-1.59,2.42-2.76.59-1.17.88-2.52.88-4.04s-.29-2.87-.88-4.04c-.59-1.17-1.39-2.1-2.42-2.78-1.03-.68-2.21-1.02-3.54-1.02s-2.51.34-3.52,1.02c-1.01.68-1.81,1.61-2.38,2.78-.57,1.17-.86,2.52-.86,4.04s.29,2.87.86,4.04c.57,1.17,1.37,2.09,2.38,2.76,1.01.67,2.19,1,3.52,1Z"/>
  <path class="cls-1" d="m535.8,138.78c-1.47,0-2.74-.25-3.82-.76-1.08-.51-1.91-1.21-2.48-2.1s-.86-1.94-.86-3.14c0-1.07.21-1.97.62-2.7.41-.73.95-1.31,1.62-1.74.72-.48,1.54-.81,2.46-1,.92-.19,1.91-.28,2.98-.28h6.52v1.92h-6.2c-.77,0-1.53.07-2.26.2-.73.13-1.35.4-1.86.8-.43.29-.75.67-.98,1.14-.23.47-.34,1.02-.34,1.66,0,1.2.43,2.15,1.3,2.86.87.71,2.05,1.06,3.54,1.06,1.2,0,2.29-.29,3.28-.86s1.78-1.37,2.38-2.38c.6-1.01.9-2.15.9-3.4l1.08,1.2c-.13,1.49-.56,2.81-1.28,3.96s-1.65,2.03-2.8,2.64c-1.15.61-2.41.92-3.8.92Zm6.96-.28l-.16-4.48v-7.8c0-1.81-.47-3.19-1.4-4.12-.93-.93-2.31-1.4-4.12-1.4-1.17,0-2.25.23-3.24.7-.99.47-1.92,1.26-2.8,2.38l-1.84-1.56c1.07-1.28,2.26-2.22,3.58-2.82,1.32-.6,2.81-.9,4.46-.9,2.51,0,4.44.66,5.8,1.98,1.36,1.32,2.04,3.23,2.04,5.74v12.28h-2.32Z"/>
  <path class="cls-1" d="m555.32,133.26c-1,3.68-2.96,8.72-4.04,10.6l-2.44.28c.92-2.44,2.12-7.28,2.6-10.44l3.88-.44Z"/>
  <path class="cls-1" d="m10.25,165.46c0-1.44-.04-2.64-.16-3.76.96.12,1.88.16,3.6.16h8.84v-4.68h-11.8c-1.64,0-2.96.08-4.2.24v-2.76c1.16.16,2.48.24,4.2.24h27.04c1.72,0,2.92-.08,4.2-.24v2.76c-1.24-.16-2.64-.24-4.2-.24h-12.76v4.68h9.56c1.72,0,2.68-.04,3.64-.16-.12,1.16-.16,2.16-.16,3.68v11.04h.32c1.68,0,2.8-.08,3.84-.24v2.72c-1.12-.16-2.32-.24-3.84-.24h-.32v7.32c0,2.68-.96,3.24-5.64,3.24-1.32,0-2.72-.04-4.04-.16-.12-1.08-.24-1.68-.6-2.64,2.08.28,3.72.4,5.6.4,1.76,0,2.12-.24,2.12-1.32v-6.84H12.85v6.64c0,1.88.08,3.08.24,4.2h-3.08c.16-1.36.24-2.48.24-4.24v-6.6h-.64c-1.48,0-2.6.08-3.8.24v-2.72c1.04.16,2.2.24,3.84.24h.6v-10.96Zm12.28,3.56v-4.92h-9.68v4.92h9.68Zm0,7.4v-5.24h-9.68v5.24h9.68Zm12.96-7.4v-4.92h-10.48v4.92h10.48Zm0,7.4v-5.24h-10.48v5.24h10.48Z"/>
  <path class="cls-1" d="m61.81,159.86l2.04.24c.68.08,1.08.32,1.08.68,0,.4-.2.6-.6.68l-.52.28v2.88c0,10.76-.28,18.6-9.08,22.52-2.6,1.16-5.52,2-8.56,2.4-.28,0-.48-.12-.48-.36s.08-.4.32-.4c3.04-.64,5.8-1.6,8.12-2.84,7.48-4.04,7.68-10.2,7.68-21.32v-4.76Zm-8.92-6.28l1.76,1.2h17.92l1-1.28,1.84,1.2c.12.08.16.2.16.4,0,.48-.36.72-.56.8-.32.12-.44.28-.44.4v20.92c0,.44-.8.76-1.44.76-.4,0-.56-.24-.56-.72v-21.24h-17.68v21.36c0,.6-1.16.76-1.44.76-.4,0-.56-.24-.56-.84v-23.72Zm12.84,19l2.64.72c.32.08.48.28.48.6s-.24.52-.6.56c-.36.04-.56.24-.56.48v11.6c0,.48.12.52.8.76h9.24c1.6,0,2-1.4,2.16-2.48l.4-2.8c0-.2.16-.32.4-.32.2,0,.32.12.32.36v3c0,1.04.24,1.68.72,1.92.36.2.6.52.6.84,0,.68-.48.92-1.4,1.4h-14.04c-.96-.52-1.16-.6-1.16-1.76v-14.88Z"/>
  <path class="cls-1" d="m86.73,190.3c2.08-2.08,2.64-2.72,2.64-3.48,0-.48-.32-.96-1.04-1.32-.6-.32-.84-.8-.84-1.48,0-.4.2-1.6,1.6-1.6.92,0,1.96.76,1.96,2.6,0,2.04-1,3.72-3.36,5.84l-.96-.56Z"/>
  <path class="cls-1" d="m107.53,186.5v-27.88h2.84l14.96,24.52h-.52v-24.52h2.6v27.88h-2.92l-14.88-24.56h.52v24.56h-2.6Z"/>
  <path class="cls-1" d="m140.13,186.78c-1.47,0-2.74-.25-3.82-.76-1.08-.51-1.91-1.21-2.48-2.1-.57-.89-.86-1.94-.86-3.14,0-1.07.21-1.97.62-2.7.41-.73.95-1.31,1.62-1.74.72-.48,1.54-.81,2.46-1,.92-.19,1.91-.28,2.98-.28h6.52v1.92h-6.2c-.77,0-1.53.07-2.26.2-.73.13-1.35.4-1.86.8-.43.29-.75.67-.98,1.14s-.34,1.02-.34,1.66c0,1.2.43,2.15,1.3,2.86.87.71,2.05,1.06,3.54,1.06,1.2,0,2.29-.29,3.28-.86.99-.57,1.78-1.37,2.38-2.38.6-1.01.9-2.15.9-3.4l1.08,1.2c-.13,1.49-.56,2.81-1.28,3.96-.72,1.15-1.65,2.03-2.8,2.64-1.15.61-2.41.92-3.8.92Zm6.96-.28l-.16-4.48v-7.8c0-1.81-.47-3.19-1.4-4.12-.93-.93-2.31-1.4-4.12-1.4-1.17,0-2.25.23-3.24.7-.99.47-1.92,1.26-2.8,2.38l-1.84-1.56c1.07-1.28,2.26-2.22,3.58-2.82,1.32-.6,2.81-.9,4.46-.9,2.51,0,4.44.66,5.8,1.98,1.36,1.32,2.04,3.23,2.04,5.74v12.28h-2.32Z"/>
  <path class="cls-1" d="m161.69,186.78c-1.31,0-2.49-.2-3.54-.6-1.05-.4-1.96-.94-2.72-1.62-.76-.68-1.35-1.43-1.78-2.26l1.8-1.44c.51,1.12,1.3,2.03,2.38,2.74,1.08.71,2.37,1.06,3.86,1.06,1.41,0,2.55-.31,3.4-.94.85-.63,1.28-1.49,1.28-2.58,0-.91-.26-1.61-.78-2.1-.52-.49-1.19-.89-2-1.18-.81-.29-1.7-.55-2.66-.76-.75-.19-1.49-.41-2.24-.66-.75-.25-1.42-.57-2.02-.96-.6-.39-1.07-.89-1.42-1.5s-.52-1.37-.52-2.28c0-1.55.61-2.8,1.82-3.76,1.21-.96,2.79-1.44,4.74-1.44,1.47,0,2.81.31,4.02.94,1.21.63,2.15,1.58,2.82,2.86l-1.64,1.2c-.56-1.04-1.3-1.79-2.22-2.26-.92-.47-1.94-.7-3.06-.7-1.2,0-2.19.27-2.98.8-.79.53-1.18,1.25-1.18,2.16,0,.67.19,1.21.56,1.62.37.41.91.75,1.6,1.02.69.27,1.51.51,2.44.72.85.19,1.7.41,2.54.68.84.27,1.61.61,2.32,1.02.71.41,1.27.97,1.68,1.66.41.69.62,1.57.62,2.64,0,1.2-.29,2.25-.88,3.14s-1.41,1.58-2.48,2.06c-1.07.48-2.32.72-3.76.72Z"/>
  <path class="cls-1" d="m174.05,186.5v-27.88h2.56v12.76l-.64.2c.35-1.09.85-2.01,1.5-2.76s1.43-1.32,2.32-1.72c.89-.4,1.89-.6,2.98-.6,2.16,0,3.83.65,5.02,1.94,1.19,1.29,1.78,3.21,1.78,5.74v12.32h-2.52v-11.4c0-2.19-.41-3.8-1.22-4.84-.81-1.04-2.03-1.56-3.66-1.56-1.71,0-3.06.64-4.06,1.92s-1.5,3.32-1.5,6.12v9.76h-2.56Z"/>
  <path class="cls-1" d="m199.17,186.78c-1.12,0-2.01-.35-2.68-1.06-.67-.71-1-1.83-1-3.38v-23.72h2.52v23.28c0,.91.17,1.56.52,1.96.35.4.81.6,1.4.6.27,0,.56-.03.88-.1.32-.07.65-.15,1-.26v2.16c-.45.16-.91.29-1.38.38-.47.09-.89.14-1.26.14Z"/>
  <path class="cls-1" d="m213.97,186.78c-1.47,0-2.77-.25-3.9-.76-1.13-.51-2.07-1.21-2.82-2.12-.75-.91-1.31-1.97-1.7-3.2-.39-1.23-.58-2.53-.58-3.92s.19-2.74.56-3.98.93-2.33,1.66-3.28c.73-.95,1.64-1.69,2.72-2.22,1.08-.53,2.33-.8,3.74-.8,1.49,0,2.78.26,3.86.78,1.08.52,1.96,1.23,2.64,2.12s1.19,1.87,1.52,2.94c.33,1.07.5,2.15.5,3.24,0,.21,0,.49-.02.84-.01.35-.05.64-.1.88h-14.6c.05,2.27.66,4.03,1.82,5.28,1.16,1.25,2.73,1.88,4.7,1.88,1.25,0,2.33-.19,3.22-.58.89-.39,1.75-1.03,2.58-1.94l1.8,1.6c-.75.77-1.51,1.39-2.28,1.86s-1.59.81-2.46,1.04c-.87.23-1.82.34-2.86.34Zm5.68-10.76c.05-.21.08-.43.08-.66v-.66c0-.69-.11-1.4-.34-2.12s-.58-1.37-1.06-1.96c-.48-.59-1.11-1.07-1.88-1.44-.77-.37-1.69-.56-2.76-.56-1.23,0-2.3.31-3.22.92s-1.63,1.43-2.14,2.44-.8,2.16-.88,3.44h13.04l-.84.6Z"/>
  <path class="cls-1" d="m235.37,186.78c-1.76,0-3.31-.45-4.66-1.34s-2.4-2.11-3.16-3.64c-.76-1.53-1.14-3.26-1.14-5.18,0-2.03.4-3.8,1.2-5.32.8-1.52,1.88-2.7,3.24-3.54,1.36-.84,2.87-1.26,4.52-1.26,1.31,0,2.48.26,3.52.78,1.04.52,1.92,1.23,2.64,2.14.72.91,1.21,1.93,1.48,3.08l-.68.44v-14.32h2.52v27.88h-2.52v-6.2l.8.28c-.35,1.23-.88,2.31-1.6,3.24-.72.93-1.6,1.66-2.64,2.18s-2.21.78-3.52.78Zm.4-2.32c1.33,0,2.51-.34,3.52-1.02,1.01-.68,1.81-1.61,2.38-2.78.57-1.17.86-2.52.86-4.04s-.29-2.87-.86-4.04c-.57-1.17-1.37-2.09-2.38-2.76-1.01-.67-2.19-1-3.52-1s-2.48.33-3.52,1-1.85,1.59-2.44,2.76c-.59,1.17-.88,2.52-.88,4.04s.29,2.87.88,4.04c.59,1.17,1.4,2.1,2.44,2.78,1.04.68,2.21,1.02,3.52,1.02Z"/>
  <path class="cls-1" d="m257.01,186.78c-1.47,0-2.74-.25-3.82-.76-1.08-.51-1.91-1.21-2.48-2.1-.57-.89-.86-1.94-.86-3.14,0-1.07.21-1.97.62-2.7.41-.73.95-1.31,1.62-1.74.72-.48,1.54-.81,2.46-1,.92-.19,1.91-.28,2.98-.28h6.52v1.92h-6.2c-.77,0-1.53.07-2.26.2-.73.13-1.35.4-1.86.8-.43.29-.75.67-.98,1.14s-.34,1.02-.34,1.66c0,1.2.43,2.15,1.3,2.86.87.71,2.05,1.06,3.54,1.06,1.2,0,2.29-.29,3.28-.86.99-.57,1.78-1.37,2.38-2.38.6-1.01.9-2.15.9-3.4l1.08,1.2c-.13,1.49-.56,2.81-1.28,3.96-.72,1.15-1.65,2.03-2.8,2.64-1.15.61-2.41.92-3.8.92Zm6.96-.28l-.16-4.48v-7.8c0-1.81-.47-3.19-1.4-4.12-.93-.93-2.31-1.4-4.12-1.4-1.17,0-2.25.23-3.24.7-.99.47-1.92,1.26-2.8,2.38l-1.84-1.56c1.07-1.28,2.26-2.22,3.58-2.82,1.32-.6,2.81-.9,4.46-.9,2.51,0,4.44.66,5.8,1.98,1.36,1.32,2.04,3.23,2.04,5.74v12.28h-2.32Z"/>
  <path class="cls-1" d="m272.25,186.5v-19.72h2.56v4.6l-.6.2c.35-1.09.84-2.01,1.48-2.76.64-.75,1.41-1.32,2.3-1.72.89-.4,1.89-.6,2.98-.6,2.13,0,3.8.63,5,1.9s1.8,3.19,1.8,5.78v12.32h-2.52v-11.4c0-2.19-.41-3.8-1.22-4.84-.81-1.04-2.03-1.56-3.66-1.56-1.12,0-2.1.27-2.94.82-.84.55-1.49,1.41-1.94,2.6-.45,1.19-.68,2.73-.68,4.62v9.76h-2.56Z"/>
  <path class="cls-1" d="m302.05,186.78c-1.81,0-3.43-.43-4.86-1.3-1.43-.87-2.54-2.07-3.34-3.6-.8-1.53-1.2-3.29-1.2-5.26s.39-3.72,1.18-5.24c.79-1.52,1.89-2.71,3.32-3.58,1.43-.87,3.06-1.3,4.9-1.3s3.46.43,4.86,1.3c1.4.87,2.51,2.06,3.32,3.58.81,1.52,1.22,3.27,1.22,5.24s-.41,3.73-1.22,5.26c-.81,1.53-1.93,2.73-3.34,3.6-1.41.87-3.03,1.3-4.84,1.3Zm0-2.24c1.39,0,2.59-.33,3.62-1,1.03-.67,1.82-1.59,2.38-2.78.56-1.19.84-2.57.84-4.14s-.28-2.99-.84-4.18c-.56-1.19-1.35-2.11-2.38-2.76-1.03-.65-2.23-.98-3.62-.98s-2.6.33-3.64,1c-1.04.67-1.85,1.59-2.42,2.76-.57,1.17-.86,2.56-.86,4.16s.29,2.95.86,4.14c.57,1.19,1.38,2.11,2.42,2.78,1.04.67,2.25,1,3.64,1Z"/>
  <path class="cls-1" d="m323.01,186.78c-1.39,0-2.59-.29-3.6-.86-1.01-.57-1.79-1.43-2.34-2.56-.55-1.13-.82-2.57-.82-4.3v-12.28h2.52v11.4c0,1.44.19,2.63.56,3.58.37.95.92,1.65,1.64,2.12.72.47,1.63.7,2.72.7,1.17,0,2.17-.28,3-.84.83-.56,1.46-1.41,1.9-2.56.44-1.15.66-2.61.66-4.4v-10h2.52v19.72h-2.52v-4.6h.6c-.51,1.63-1.37,2.85-2.58,3.66-1.21.81-2.63,1.22-4.26,1.22Z"/>
  <path class="cls-1" d="m335.97,192.74l4.28-11.92h2.8l-5.32,11.92h-1.76Z"/>
  <path class="cls-1" d="m356,183.4c.54-.11,1.04-.18,2.95-.18h.54c-.04-3.49-.32-10.73-.58-13.03h-.11c-.65,0-2.16-.04-2.74-.25l.65-3.17c1.12.22,3.46.14,5.65.14h5.9c5.29,0,6.3,1.26,6.3,7.42v12.17h-2.81v-11.16c0-3.56-.4-5.15-3.74-5.15h-6.33c.18,2.3.58,10.55.54,13.07l-.5,3.24h-2.84c-1.44,0-2.74.04-3.56.14l.68-3.24Z"/>
  <path class="cls-1" d="m383.58,175.23c0-3.1-.36-4.21-3.17-4.9-1.26-.32-1.94-.47-2.45-.68l.61-3.17c.47.18,1.19.36,2.48.58,4.03.86,5.33,2.2,5.33,7.67v11.77h-2.81v-11.27Z"/>
  <path class="cls-1" d="m391.18,181.71c0-3.53.83-6.8,3.38-9.5-1.58-1.84-3.42-3.67-4.86-5l.11-.18,3.85-.29c1.84,1.87,4.5,4.9,8.28,9.58,1.44-.97,2.34-2.41,2.34-4.72-.04-1.37-.4-2.99-1.08-4.54l3.53-.32c.47,1.37.68,2.66.68,4.25,0,2.95-1.51,5.58-4.1,7.09,1.94,2.38,5,6.7,6.08,8.42h-3.82c-1.22-1.94-4.32-6.41-9.47-12.38-1.58,1.94-1.91,4.5-1.84,6.8.04,2.05.54,4.07,1.01,5.58h-3.46c-.4-1.4-.65-3.17-.65-4.79Z"/>
  <path class="cls-1" d="m420.91,175.34c0-3.56-.4-5.15-3.78-5.15h-3.56c-2.12,0-3.49-.07-4-.22l.61-3.2c.72.14,2.56.14,5,.14h2.23c5.25,0,6.26,1.26,6.26,7.42v12.17h-2.77v-11.16Z"/>
  <path class="cls-1" d="m427.46,183.4c.54-.11,1.04-.18,2.95-.18h.54c-.04-3.49-.32-10.73-.58-13.03h-.11c-.65,0-2.16-.04-2.74-.25l.65-3.17c1.12.22,3.46.14,5.65.14h5.9c5.29,0,6.3,1.26,6.3,7.42v12.17h-2.81v-11.16c0-3.56-.4-5.15-3.74-5.15h-6.33c.18,2.3.58,10.55.54,13.07l-.5,3.24h-2.84c-1.44,0-2.74.04-3.56.14l.68-3.24Z"/>
  <path class="cls-1" d="m464.51,175.77c0-4-.36-5.58-3.74-5.58h-6.12c-2.12,0-3.64-.07-4.14-.22l.61-3.2c.72.14,2.52.14,4.97.14h4.93c5.11,0,6.26,1.48,6.26,7.38v12.2h-2.77v-10.73Zm-13.28.43h2.81v10.29h-2.81v-10.29Z"/>
  <path class="cls-1" d="m473.33,183.15c4.79-1.44,8.53-5.18,8.53-10.26,0-2.27-.9-2.7-2.81-2.7h-8.57v-5.18c0-2.2-.11-4.82-.5-5.72l2.92-.5c.22.47.36,2.92.36,5.58v2.56h6.95c3.67,0,4.54,1.83,4.54,5.04,0,8.1-6.37,13.61-12.06,14.87l.65-3.67Z"/>
  <path class="cls-1" d="m487.74,191.42c.88-2.4,1.96-6.64,2.36-9.56l3.92-.4c-.96,3.4-2.72,7.84-3.84,9.72l-2.44.24Z"/>
  <path class="cls-1" d="m505.25,186.5l10.36-27.88h2.2l10.32,27.88h-2.84l-8.56-24.24-8.56,24.24h-2.92Zm5.12-7.16l.84-2.36h11l.88,2.36h-12.72Z"/>
  <path class="cls-1" d="m527.5,168.78v-2h11.6v2h-11.6Zm8.76,18c-.88,0-1.65-.17-2.32-.52-.67-.35-1.18-.89-1.54-1.62-.36-.73-.54-1.66-.54-2.78v-20.72l2.56-1.48v21.6c0,1.07.18,1.9.54,2.5.36.6.99.9,1.9.9.32,0,.67-.03,1.04-.1.37-.07.77-.15,1.2-.26v2c-.48.16-.96.28-1.44.36-.48.08-.95.12-1.4.12Z"/>
  <path class="cls-1" d="m551.14,186.78c-1.47,0-2.77-.25-3.9-.76-1.13-.51-2.07-1.21-2.82-2.12-.75-.91-1.31-1.97-1.7-3.2-.39-1.23-.58-2.53-.58-3.92s.19-2.74.56-3.98.93-2.33,1.66-3.28c.73-.95,1.64-1.69,2.72-2.22,1.08-.53,2.33-.8,3.74-.8,1.49,0,2.78.26,3.86.78,1.08.52,1.96,1.23,2.64,2.12s1.19,1.87,1.52,2.94c.33,1.07.5,2.15.5,3.24,0,.21,0,.49-.02.84-.01.35-.05.64-.1.88h-14.6c.05,2.27.66,4.03,1.82,5.28,1.16,1.25,2.73,1.88,4.7,1.88,1.25,0,2.33-.19,3.22-.58.89-.39,1.75-1.03,2.58-1.94l1.8,1.6c-.75.77-1.51,1.39-2.28,1.86s-1.59.81-2.46,1.04c-.87.23-1.82.34-2.86.34Zm5.68-10.76c.05-.21.08-.43.08-.66v-.66c0-.69-.11-1.4-.34-2.12s-.58-1.37-1.06-1.96c-.48-.59-1.11-1.07-1.88-1.44-.77-.37-1.69-.56-2.76-.56-1.23,0-2.3.31-3.22.92s-1.63,1.43-2.14,2.44-.8,2.16-.88,3.44h13.04l-.84.6Zm-6.96-11.8l4.28-5.6h2.72l-5.08,5.6h-1.92Z"/>
  <path class="cls-1" d="m10.77,235.98c-1.12,0-2.01-.35-2.68-1.06-.67-.71-1-1.83-1-3.38v-23.72h2.52v23.28c0,.91.17,1.56.52,1.96.35.4.81.6,1.4.6.27,0,.56-.03.88-.1.32-.07.65-.15,1-.26v2.16c-.45.16-.91.29-1.38.38-.47.09-.89.14-1.26.14Z"/>
  <path class="cls-1" d="m25.97,235.98c-1.81,0-3.43-.43-4.86-1.3-1.43-.87-2.54-2.07-3.34-3.6-.8-1.53-1.2-3.29-1.2-5.26s.39-3.72,1.18-5.24c.79-1.52,1.89-2.71,3.32-3.58,1.43-.87,3.06-1.3,4.9-1.3s3.46.43,4.86,1.3c1.4.87,2.51,2.06,3.32,3.58.81,1.52,1.22,3.27,1.22,5.24s-.41,3.73-1.22,5.26c-.81,1.53-1.93,2.73-3.34,3.6-1.41.87-3.03,1.3-4.84,1.3Zm0-2.24c1.39,0,2.59-.33,3.62-1,1.03-.67,1.82-1.59,2.38-2.78.56-1.19.84-2.57.84-4.14s-.28-2.99-.84-4.18c-.56-1.19-1.35-2.11-2.38-2.76-1.03-.65-2.23-.98-3.62-.98s-2.6.33-3.64,1c-1.04.67-1.85,1.59-2.42,2.76-.57,1.17-.86,2.56-.86,4.16s.29,2.95.86,4.14c.57,1.19,1.38,2.11,2.42,2.78,1.04.67,2.25,1,3.64,1Z"/>
  <path class="cls-1" d="m48.13,244.18c-2.8,0-5.01-.52-6.62-1.56s-2.42-2.48-2.42-4.32v-.5c0-.2.03-.38.08-.54l4.56-3.64.96.64-3.08,3.56c-.03.11-.04.21-.04.3v.26c0,1.28.61,2.24,1.84,2.88,1.23.64,2.8.96,4.72.96,1.63,0,2.97-.26,4.02-.78,1.05-.52,1.58-1.33,1.58-2.42,0-.64-.18-1.15-.54-1.54-.36-.39-.86-.69-1.5-.92-.64-.23-1.39-.41-2.24-.56-.85-.15-1.77-.3-2.76-.46-1.17-.19-2.3-.45-3.38-.78-1.08-.33-1.96-.81-2.64-1.44-.68-.63-1.02-1.47-1.02-2.54,0-.91.29-1.71.88-2.42.59-.71,1.4-1.31,2.44-1.82l1.6,1.12c-.91.27-1.55.63-1.94,1.1-.39.47-.58,1.02-.58,1.66s.21,1.11.62,1.48c.41.37.99.66,1.72.86.73.2,1.59.37,2.58.5,1.23.19,2.39.39,3.5.6,1.11.21,2.09.51,2.96.88.87.37,1.55.87,2.04,1.5s.74,1.46.74,2.5c0,1.76-.73,3.11-2.18,4.04-1.45.93-3.42,1.4-5.9,1.4Zm-.56-15c-1.44,0-2.73-.28-3.86-.84-1.13-.56-2.01-1.35-2.64-2.36-.63-1.01-.94-2.17-.94-3.48s.33-2.51.98-3.54c.65-1.03,1.54-1.83,2.66-2.4,1.12-.57,2.36-.86,3.72-.86s2.59.29,3.7.86c1.11.57,1.99,1.38,2.64,2.42s.98,2.25.98,3.64c0,1.31-.31,2.45-.94,3.44-.63.99-1.48,1.75-2.56,2.3-1.08.55-2.33.82-3.74.82Zm-.04-2.08c1.47,0,2.63-.44,3.48-1.32s1.28-1.99,1.28-3.32c0-1.41-.44-2.55-1.32-3.42-.88-.87-2.03-1.3-3.44-1.3s-2.61.44-3.52,1.32-1.36,2-1.36,3.36.44,2.45,1.32,3.34c.88.89,2.07,1.34,3.56,1.34Zm6.04-7.72l-1.84-1.24,3.96-3.36,1.28,1.6-3.4,3Z"/>
  <path class="cls-1" d="m68.81,235.98c-1.81,0-3.43-.43-4.86-1.3-1.43-.87-2.54-2.07-3.34-3.6-.8-1.53-1.2-3.29-1.2-5.26s.39-3.72,1.18-5.24c.79-1.52,1.89-2.71,3.32-3.58,1.43-.87,3.06-1.3,4.9-1.3s3.46.43,4.86,1.3c1.4.87,2.51,2.06,3.32,3.58.81,1.52,1.22,3.27,1.22,5.24s-.41,3.73-1.22,5.26c-.81,1.53-1.93,2.73-3.34,3.6-1.41.87-3.03,1.3-4.84,1.3Zm0-2.24c1.39,0,2.59-.33,3.62-1,1.03-.67,1.82-1.59,2.38-2.78.56-1.19.84-2.57.84-4.14s-.28-2.99-.84-4.18c-.56-1.19-1.35-2.11-2.38-2.76-1.03-.65-2.23-.98-3.62-.98s-2.6.33-3.64,1c-1.04.67-1.85,1.59-2.42,2.76-.57,1.17-.86,2.56-.86,4.16s.29,2.95.86,4.14c.57,1.19,1.38,2.11,2.42,2.78,1.04.67,2.25,1,3.64,1Z"/>
  <path class="cls-1" d="m81.37,241.94l4.28-11.92h2.8l-5.32,11.92h-1.76Z"/>
  <path class="cls-1" d="m107.05,240.47c-.23.49-.49.94-.76,1.33-1.95.31-3.65.82-5.08,1.46l-.04-.06.47-.82c.18-.21.57-.53.9-.64v-.06c-.92-.27-1.52-.86-1.52-1.7,0-.53.37-1.21.92-1.72.64-.62,1.56-1.11,2.36-1.11s1.23.45,1.23.96-.31.9-.62,1.27h-.04c-.21-.43-.41-.7-.62-.76-.14-.04-.37-.06-.61-.06-.68,0-1.37.39-1.37.68,0,.94,1.64,1.25,2.79,1.25.66,0,1.33-.04,1.99-.08v.06Zm-3.95-4.43c.2-1.23.21-2.62.21-3.91v-1.91c0-3.57-.39-8.77-.7-12.15.55-.7,1.31-1.52,1.91-2.07l.18.06c.41,4.26.51,9.2.51,13.75,0,1.19-.04,2.36-.14,3.22-.06,1.07-.59,1.89-1.72,3.14l-.25-.14Z"/>
  <path class="cls-1" d="m121.75,215.7c0,1.39.61,2.91,1.64,4.51-.37.37-.8.72-1.33,1.09.1,2.52.23,5.62.23,8.14,0,1.33,0,2.97-.96,5.74-.61.98-1.37,1.64-2.23,2.19-1.25.82-2.79,1.23-4.08,1.23-1.7,0-3.11-.59-4.06-1.68-.9-1.04-1.39-2.52-1.39-4.41,0-1.64.53-3.28,1.31-4.92l.7.27c-.49,1.11-.82,2.27-.82,3.4s.31,2.15,1,3.03c.8,1.05,1.99,1.58,3.38,1.58,1.31,0,2.42-.37,3.38-.94.98-.51,1.74-1.11,2.13-1.84.04-.41.06-.82.06-1.21,0-2.95-.2-6.56-.51-10.92-.06-.8-.18-1.7-.18-2.56,0-.57.06-1.09.41-1.54.27-.41.68-.82,1.17-1.23l.14.06Z"/>
  <path class="cls-1" d="m141.48,228.22c-.37-1.66-.94-2.44-1.48-2.44-.86,0-2.07.57-3.11,1.39-1.09.86-1.91,1.82-1.91,2.52,0,1.74,5.08,1.52,6.45,2.64.51.47.86,1.09.86,2.19,0,1.04-.7,2.75-1.6,3.61-1.91,1.8-4.9,3.24-7.54,3.24-4.55,0-6.76-3.07-6.76-7.17,0-1.82.41-3.38,1.04-4.82l.76.25c-.43,1.31-.61,2.42-.61,3.42,0,3.69,2.52,5.68,5.74,5.68,1.21,0,3.3-.47,5.27-1.62,1.25-.74,2.42-1.66,2.42-1.95,0-.59-1.43-1.04-3.05-1.27-1.72-.25-3.07-.62-3.57-1.19-.41-.45-.72-1-.72-1.76,0-1.97.84-3.63,2.17-5.02,1.37-1.41,3.5-2.77,4.84-2.77.62,0,1.07.31,1.43,1.04.31.66.47,1.31.47,1.84,0,.47-.47,1.48-.8,2.17l-.29.04Z"/>
  <path class="cls-1" d="m156.78,236.03c.2-1.23.21-2.62.21-3.91v-1.91c0-3.57-.39-8.77-.7-12.15.55-.7,1.31-1.52,1.91-2.07l.18.06c.41,4.26.51,9.2.51,13.75,0,1.19-.04,2.36-.14,3.22-.06,1.07-.59,1.89-1.72,3.14l-.25-.14Z"/>
  <path class="cls-1" d="m174.87,215.7c0,1.39.61,2.91,1.64,4.51-.37.37-.8.72-1.33,1.09.1,2.52.23,5.62.23,8.14,0,1.33,0,2.97-.96,5.74-.61.98-1.37,1.64-2.23,2.19-1.25.82-2.79,1.23-4.08,1.23-1.7,0-3.11-.59-4.06-1.68-.9-1.04-1.39-2.52-1.39-4.41,0-1.64.53-3.28,1.31-4.92l.7.27c-.49,1.11-.82,2.27-.82,3.4s.31,2.15,1,3.03c.8,1.05,1.99,1.58,3.38,1.58,1.31,0,2.42-.37,3.38-.94.98-.51,1.74-1.11,2.13-1.84.04-.41.06-.82.06-1.21,0-2.95-.2-6.56-.51-10.92-.06-.8-.18-1.7-.18-2.56,0-.57.06-1.09.41-1.54.27-.41.68-.82,1.17-1.23l.14.06Z"/>
  <path class="cls-1" d="m191.76,215.7c0,1.39.61,2.91,1.64,4.51-.37.37-.8.72-1.33,1.09.1,2.52.23,5.62.23,8.14,0,1.33,0,2.97-.96,5.74-.61.98-1.37,1.64-2.23,2.19-1.25.82-2.79,1.23-4.08,1.23-1.7,0-3.11-.59-4.06-1.68-.9-1.04-1.39-2.52-1.39-4.41,0-1.64.53-3.28,1.31-4.92l.7.27c-.49,1.11-.82,2.27-.82,3.4s.31,2.15,1,3.03c.8,1.05,1.99,1.58,3.38,1.58,1.31,0,2.42-.37,3.38-.94.98-.51,1.74-1.11,2.13-1.84.04-.41.06-.82.06-1.21,0-2.95-.2-6.56-.51-10.92-.06-.8-.18-1.7-.18-2.56,0-.57.06-1.09.41-1.54.27-.41.68-.82,1.17-1.23l.14.06Z"/>
  <path class="cls-1" d="m210.08,232.42c-1.45,0-2.7-.25-3.55-.84-1.09-.76-1.37-1.78-1.37-3.22,0-.7.31-1.56.7-2.27.68-1.25,1.91-2.36,3.2-2.36,1.58,0,2.85,1.23,3.87,3.75.37,1.11.88,3.11.88,4.75,0,1.02-.08,1.95-.31,2.79-.1.64-.8,1.52-1.45,2.11-1.91,1.7-4.84,3.28-8.18,3.28-3.85,0-7.38-2.62-7.38-7.38,0-1.99.45-4,1.17-5.51l.82.21c-.39,1.15-.66,2.25-.66,3.24,0,4.1,2.54,6.62,6.11,6.62,1.82,0,4.1-.45,6.27-1.88,1.19-.8,2.4-1.82,2.4-2.36,0-.37-.12-.76-.27-1.13-.64.12-1.41.2-2.25.2Zm-3.75-11.5c-.8-.76-1.5-1.39-2.29-2.03.51-.7,1.05-1.35,1.54-1.86.8.62,1.46,1.27,2.23,2.09-.55.78-.94,1.29-1.48,1.8Zm2.4,5.35c-1.11,0-2.38.88-2.38,1.84,0,.82,1.09,1.8,3.85,1.8.7,0,1.27-.02,1.76-.12-.66-2.23-1.78-3.52-3.22-3.52Zm1.37-5.61c-.8-.76-1.5-1.39-2.29-2.03.51-.7,1.05-1.35,1.54-1.86.8.62,1.46,1.27,2.23,2.09-.55.78-.94,1.29-1.48,1.8Z"/>
  <path class="cls-1" d="m217.66,236.03c.2-1.23.21-2.62.21-3.91v-1.91c0-3.57-.39-8.77-.7-12.15.55-.7,1.31-1.52,1.91-2.07l.18.06c.41,4.26.51,9.2.51,13.75,0,1.19-.04,2.36-.14,3.22-.06,1.07-.59,1.89-1.72,3.14l-.25-.14Z"/>
  <path class="cls-1" d="m232.1,231.77l-.96,1.93c-2.25.25-4.69.8-7.03,2.19l-.2-.2.88-1.43c.33-.31.68-.62,1.11-.78v-.1c-1.23-.43-2.15-1.17-2.15-2.34s.7-2.11,1.31-2.68c.96-.9,2.32-1.46,3.36-1.46s1.89.62,1.89,1.52c0,.59-.23,1.19-.9,1.82h-.12c-.14-.39-.37-.84-.57-1.09-.25-.31-.57-.47-1.04-.47-.59,0-1.31.29-1.68.55-.31.2-.55.45-.55.68,0,.45.25.9.74,1.23.62.43,1.58.78,2.52.78,1.11,0,2.4-.16,3.28-.31l.08.16Z"/>
  <path class="cls-1" d="m236.18,231.85c1.07,0,2.75,1.17,2.75,3.18,0,2.3-2.11,3.57-4,4.1l-.31-.88c1.46-.59,2.3-1.37,2.3-2.44s-.8-1.72-1.89-1.97c-.14,0-.35-.25-.35-.76,0-.74.72-1.23,1.46-1.23h.04Z"/>
  <path class="cls-1" d="m258.66,235.7v-26.16h-10v-2.42h22.67v2.42h-9.96v26.16h-2.71Z"/>
  <path class="cls-1" d="m278.05,235.99c-1.42,0-2.65-.29-3.69-.88-1.04-.59-1.84-1.46-2.4-2.62-.56-1.16-.84-2.63-.84-4.41v-12.59h2.58v11.68c0,1.48.19,2.7.57,3.67.38.97.94,1.7,1.68,2.17.74.48,1.67.72,2.79.72,1.2,0,2.23-.29,3.08-.86.85-.57,1.5-1.45,1.95-2.62.45-1.17.68-2.68.68-4.51v-10.25h2.58v20.21h-2.58v-4.71h.61c-.52,1.67-1.4,2.92-2.64,3.75-1.24.83-2.7,1.25-4.37,1.25Z"/>
  <path class="cls-1" d="m290.27,217.54v-2.05h11.89v2.05h-11.89Zm8.98,18.45c-.9,0-1.69-.18-2.38-.53-.68-.35-1.21-.91-1.58-1.66s-.55-1.7-.55-2.85v-21.24l2.62-1.52v22.14c0,1.09.18,1.95.55,2.56s1.02.92,1.95.92c.33,0,.68-.03,1.07-.1.38-.07.79-.16,1.23-.27v2.05c-.49.16-.98.29-1.48.37s-.97.12-1.44.12Z"/>
  <path class="cls-1" d="m313.02,235.99c-1.5,0-2.81-.26-3.92-.78-1.11-.52-1.96-1.24-2.54-2.15-.59-.92-.88-1.99-.88-3.22,0-1.09.21-2.01.64-2.77.42-.75.98-1.35,1.66-1.78.74-.49,1.58-.83,2.52-1.03.94-.19,1.96-.29,3.05-.29h6.68v1.97h-6.35c-.79,0-1.57.07-2.32.21-.75.14-1.39.41-1.91.82-.44.3-.77.69-1,1.17-.23.48-.35,1.05-.35,1.7,0,1.23.44,2.21,1.33,2.93.89.72,2.1,1.09,3.63,1.09,1.23,0,2.35-.29,3.36-.88,1.01-.59,1.82-1.4,2.44-2.44.62-1.04.92-2.2.92-3.49l1.11,1.23c-.14,1.53-.57,2.88-1.31,4.06-.74,1.18-1.7,2.08-2.87,2.71-1.18.63-2.47.94-3.9.94Zm7.13-.29l-.16-4.59v-8c0-1.86-.48-3.27-1.44-4.22s-2.36-1.44-4.22-1.44c-1.2,0-2.31.24-3.32.72-1.01.48-1.97,1.29-2.87,2.44l-1.89-1.6c1.09-1.31,2.32-2.28,3.67-2.89,1.35-.62,2.88-.92,4.57-.92,2.57,0,4.55.68,5.94,2.03,1.39,1.35,2.09,3.31,2.09,5.88v12.59h-2.38Z"/>
  <path class="cls-1" d="m337.17,235.99c-1.86,0-3.52-.44-4.98-1.33-1.46-.89-2.6-2.12-3.42-3.69-.82-1.57-1.23-3.37-1.23-5.39s.4-3.81,1.21-5.37c.81-1.56,1.94-2.78,3.4-3.67,1.46-.89,3.14-1.33,5.02-1.33s3.55.44,4.98,1.33c1.44.89,2.57,2.11,3.4,3.67s1.25,3.35,1.25,5.37-.42,3.82-1.25,5.39c-.83,1.57-1.97,2.8-3.42,3.69-1.45.89-3.1,1.33-4.96,1.33Zm0-2.3c1.42,0,2.66-.34,3.71-1.03,1.05-.68,1.87-1.63,2.44-2.85.57-1.22.86-2.63.86-4.24s-.29-3.07-.86-4.28-1.39-2.16-2.44-2.83c-1.05-.67-2.29-1-3.71-1s-2.67.34-3.73,1.03c-1.07.68-1.89,1.63-2.48,2.83-.59,1.2-.88,2.62-.88,4.26s.29,3.03.88,4.24c.59,1.22,1.41,2.17,2.48,2.85,1.07.68,2.31,1.03,3.73,1.03Z"/>
  <path class="cls-1" d="m352.18,235.7v-20.21h2.62v4.71l-.62.21c.35-1.12.86-2.06,1.52-2.83.66-.76,1.44-1.35,2.36-1.76s1.93-.62,3.05-.62c2.19,0,3.9.65,5.12,1.95,1.23,1.3,1.85,3.27,1.85,5.92v12.63h-2.58v-11.68c0-2.24-.42-3.9-1.25-4.96-.83-1.07-2.08-1.6-3.75-1.6-1.15,0-2.15.28-3.01.84-.86.56-1.52,1.45-1.99,2.67s-.7,2.79-.7,4.74v10h-2.62Z"/>
  <path class="cls-1" d="m380.59,235.99c-1.5,0-2.81-.26-3.92-.78-1.11-.52-1.96-1.24-2.54-2.15-.59-.92-.88-1.99-.88-3.22,0-1.09.21-2.01.64-2.77.42-.75.98-1.35,1.66-1.78.74-.49,1.58-.83,2.52-1.03.94-.19,1.96-.29,3.05-.29h6.68v1.97h-6.35c-.79,0-1.57.07-2.32.21-.75.14-1.39.41-1.91.82-.44.3-.77.69-1,1.17-.23.48-.35,1.05-.35,1.7,0,1.23.44,2.21,1.33,2.93.89.72,2.1,1.09,3.63,1.09,1.23,0,2.35-.29,3.36-.88,1.01-.59,1.82-1.4,2.44-2.44.62-1.04.92-2.2.92-3.49l1.11,1.23c-.14,1.53-.57,2.88-1.31,4.06-.74,1.18-1.7,2.08-2.87,2.71-1.18.63-2.47.94-3.9.94Zm7.13-.29l-.16-4.59v-8c0-1.86-.48-3.27-1.44-4.22s-2.36-1.44-4.22-1.44c-1.2,0-2.31.24-3.32.72-1.01.48-1.97,1.29-2.87,2.44l-1.89-1.6c1.09-1.31,2.32-2.28,3.67-2.89,1.35-.62,2.88-.92,4.57-.92,2.57,0,4.55.68,5.94,2.03,1.39,1.35,2.09,3.31,2.09,5.88v12.59h-2.38Z"/>
  <path class="cls-1" d="m396.21,235.7v-20.21h2.62v4.71l-.62.21c.35-1.12.86-2.06,1.52-2.83.66-.76,1.44-1.35,2.36-1.76s1.93-.62,3.05-.62c2.19,0,3.9.65,5.12,1.95,1.23,1.3,1.85,3.27,1.85,5.92v12.63h-2.58v-11.68c0-2.24-.42-3.9-1.25-4.96-.83-1.07-2.08-1.6-3.75-1.6-1.15,0-2.15.28-3.01.84-.86.56-1.52,1.45-1.99,2.67s-.7,2.79-.7,4.74v10h-2.62Z"/>
  <path class="cls-1" d="m424.62,235.99c-1.5,0-2.81-.26-3.92-.78-1.11-.52-1.96-1.24-2.54-2.15-.59-.92-.88-1.99-.88-3.22,0-1.09.21-2.01.64-2.77.42-.75.98-1.35,1.66-1.78.74-.49,1.58-.83,2.52-1.03.94-.19,1.96-.29,3.05-.29h6.68v1.97h-6.35c-.79,0-1.57.07-2.32.21-.75.14-1.39.41-1.91.82-.44.3-.77.69-1,1.17-.23.48-.35,1.05-.35,1.7,0,1.23.44,2.21,1.33,2.93.89.72,2.1,1.09,3.63,1.09,1.23,0,2.35-.29,3.36-.88,1.01-.59,1.82-1.4,2.44-2.44.62-1.04.92-2.2.92-3.49l1.11,1.23c-.14,1.53-.57,2.88-1.31,4.06-.74,1.18-1.7,2.08-2.87,2.71-1.18.63-2.47.94-3.9.94Zm7.13-.29l-.16-4.59v-8c0-1.86-.48-3.27-1.44-4.22s-2.36-1.44-4.22-1.44c-1.2,0-2.31.24-3.32.72-1.01.48-1.97,1.29-2.87,2.44l-1.89-1.6c1.09-1.31,2.32-2.28,3.67-2.89,1.35-.62,2.88-.92,4.57-.92,2.57,0,4.55.68,5.94,2.03,1.39,1.35,2.09,3.31,2.09,5.88v12.59h-2.38Z"/>
</svg>