<?xml version="1.0" encoding="UTF-8"?>
<svg id="Layer_1" data-name="Layer 1" xmlns="http://www.w3.org/2000/svg" viewBox="0 0 1560.77 270.25">
  <defs>
    <style>
      .cls-1 {
        fill: #1d1d1b;
        stroke-width: 0px;
      }
    </style>
  </defs>
  <path class="cls-1" d="m31.19,124.77L0,8.22l6.96-.04,28.19,106.18L63.59,13.85l6.8-.04,29.85,100.14L126.95,7.42l6.96-.04-29.89,116.93-7.11.04-30.33-101.98h1.08s-29.2,102.35-29.2,102.35l-7.26.05Z"/>
  <path class="cls-1" d="m150.25,124.02l-.73-116.74,6.34-.04.34,54.94-1.39.68c1.21-4.92,2.98-9.06,5.33-12.43,2.35-3.36,5.27-5.9,8.77-7.59,3.49-1.7,7.4-2.56,11.74-2.59,8.24-.05,14.63,2.67,19.15,8.17,4.52,5.5,6.81,13.72,6.88,24.66l.32,50.58-6.49.04-.3-48.4c-.06-9.82-1.81-17.13-5.24-21.91-3.43-4.78-8.6-7.15-15.51-7.11-7.01.04-12.64,3.07-16.88,9.07-4.24,6-6.32,15.31-6.24,27.93l.26,40.7-6.34.04Z"/>
  <path class="cls-1" d="m230.34,23.69l-.11-16.92,8.04-.05.11,16.92-8.04.05Zm1.55,99.82l-.52-82.57,6.34-.04.52,82.57-6.34.04Z"/>
  <path class="cls-1" d="m277.05,124.23c-4.02.03-7.15-1.35-9.38-4.13-2.24-2.78-3.37-7.18-3.4-13.21l-.63-100.33,6.34-.04.62,99.15c.03,4.25.76,7.31,2.22,9.2,1.45,1.89,3.52,2.83,6.2,2.81,1.13,0,2.32-.13,3.55-.36,1.24-.23,2.57-.63,4.01-1.2l.04,6.03c-1.65.68-3.27,1.19-4.86,1.54-1.6.35-3.17.52-4.71.53Z"/>
  <path class="cls-1" d="m333.49,123.88c-5.36.03-10.13-.97-14.32-3.01-4.19-2.04-7.74-4.92-10.65-8.64-2.91-3.72-5.15-8.12-6.73-13.19-1.58-5.07-2.39-10.62-2.42-16.65-.04-6.03.67-11.64,2.14-16.85,1.46-5.2,3.57-9.76,6.33-13.69,2.76-3.92,6.17-6.99,10.23-9.19,4.06-2.2,8.61-3.32,13.66-3.35,5.88-.04,10.85,1.05,14.94,3.26,4.09,2.21,7.4,5.09,9.95,8.65,2.55,3.56,4.4,7.51,5.56,11.86,1.16,4.35,1.76,8.59,1.78,12.72,0,1.23-.01,2.51-.05,3.85-.05,1.34-.12,2.4-.21,3.18l-57.83.36c.17,10.94,2.75,19.41,7.74,25.41,4.99,6,11.65,8.97,20,8.92,5.15-.03,9.53-.9,13.13-2.6,3.6-1.7,7.19-4.62,10.77-8.78l4.66,4.33c-2.87,3.26-5.76,5.87-8.69,7.84-2.93,1.97-5.99,3.39-9.17,4.24-3.19.86-6.8,1.3-10.82,1.32Zm24.15-44.71c.09-1.01.17-1.98.21-2.93.04-.95.07-1.81.06-2.6-.02-3.12-.53-6.36-1.53-9.7-1-3.34-2.51-6.43-4.54-9.27-2.03-2.84-4.67-5.11-7.93-6.82-3.26-1.71-7.26-2.55-12-2.52-5.16.03-9.63,1.46-13.43,4.27-3.8,2.82-6.79,6.66-8.97,11.53-2.19,4.87-3.47,10.44-3.84,16.69l54.12-.34-2.15,1.69Z"/>
  <path class="cls-1" d="m425.17,22.47l-.11-16.92,8.04-.05.11,16.92-8.04.05Zm1.55,99.82l-.52-82.57,6.34-.04.52,82.57-6.34.04Z"/>
  <path class="cls-1" d="m458.89,122.09l-.52-82.57,6.34-.04.13,20.77-1.39.51c1.21-4.92,3.01-9.03,5.41-12.34,2.4-3.31,5.35-5.81,8.85-7.51,3.49-1.7,7.35-2.56,11.58-2.59,8.04-.05,14.37,2.56,18.99,7.84,4.62,5.28,6.97,13.61,7.04,25l.32,50.58-6.49.04-.3-48.4c-.06-9.94-1.84-17.27-5.32-21.99-3.49-4.72-8.62-7.06-15.43-7.02-4.54.03-8.52,1.31-11.96,3.84-3.44,2.53-6.17,6.52-8.2,11.94-2.03,5.43-3.02,12.5-2.96,21.21l.26,40.7-6.34.04Z"/>
  <path class="cls-1" d="m581.82,121.32l-.73-116.74,30.77-.19c9.69-.06,17.31,2.43,22.86,7.48,5.55,5.05,8.35,12.09,8.4,21.14.04,6.36-1.29,11.85-3.99,16.44-2.7,4.6-6.52,7.91-11.46,9.95,6.61,1.3,11.75,4.51,15.45,9.62,3.69,5.11,5.56,11.8,5.62,20.07.07,10.38-2.8,18.3-8.59,23.75-5.79,5.45-14.2,8.21-25.23,8.28l-33.09.21Zm6.25-63.86l27.68-.17c6.39-.04,11.48-2.17,15.27-6.38,3.79-4.21,5.66-9.83,5.62-16.87-.05-7.37-2.25-13.05-6.6-17.04-4.36-3.99-10.4-5.97-18.13-5.92l-24.12.15.29,46.23Zm.36,57.11l26.13-.16c18.56-.12,27.78-8.61,27.68-25.47-.05-8.04-2.1-14.25-6.15-18.64-4.05-4.39-9.68-6.56-16.9-6.51l-31.08.19.32,50.58Z"/>
  <path class="cls-1" d="m693.31,121.63c-5.57.03-10.34-.94-14.32-2.93-3.98-1.99-7.04-4.81-9.18-8.48-2.14-3.67-3.22-7.96-3.25-12.88-.03-4.24.7-7.88,2.17-10.9,1.47-3.02,3.39-5.44,5.75-7.24,2.77-2.14,5.98-3.61,9.64-4.41,3.65-.8,7.7-1.22,12.13-1.25l25.98-.16.03,5.53-25.05.16c-3.71.02-7.17.38-10.36,1.07-3.19.69-5.92,1.88-8.17,3.57-1.75,1.58-3.15,3.48-4.22,5.72-1.07,2.24-1.59,4.92-1.57,8.05.03,5.58,1.92,10.07,5.65,13.45,3.73,3.38,8.85,5.05,15.34,5.01,5.05-.03,9.66-1.43,13.81-4.19,4.16-2.76,7.48-6.5,9.98-11.2,2.5-4.71,3.73-10.02,3.69-15.93l2.96,4c-.17,6.7-1.73,12.52-4.69,17.45-2.96,4.93-6.72,8.75-11.29,11.46-4.57,2.71-9.59,4.08-15.05,4.11Zm28.6-1.18l-.44-21.1-.19-30.15c-.05-8.6-2.03-15.12-5.92-19.56-3.89-4.44-9.71-6.64-17.44-6.59-5.05.03-9.53,1.15-13.43,3.35-3.91,2.2-7.59,5.77-11.07,10.71l-4.66-4.16c3.88-5.61,8.21-9.65,12.99-12.14,4.78-2.49,10.26-3.75,16.44-3.79,9.48-.06,16.77,2.66,21.86,8.15,5.08,5.5,7.66,13.49,7.73,23.99l.32,51.25-6.19.04Z"/>
  <path class="cls-1" d="m738.28,43.29l-.03-5.53,43.14-.27.03,5.53-43.14.27Zm33.12,77.85c-3.09.02-5.78-.66-8.05-2.04-2.28-1.38-3.99-3.46-5.14-6.25-1.16-2.78-1.74-6.19-1.77-10.21l-.57-90.28,6.47-4.4.58,92.96c.03,4.58.83,8.12,2.39,10.62,1.56,2.5,4.09,3.74,7.6,3.72,1.24,0,2.63-.15,4.18-.44,1.54-.29,3.14-.72,4.78-1.29l.04,5.69c-1.85.57-3.6,1.03-5.25,1.37-1.65.35-3.4.52-5.25.54Z"/>
  <path class="cls-1" d="m780.95,43.02l-.03-5.53,43.14-.27.03,5.53-43.14.27Zm33.12,77.85c-3.09.02-5.78-.66-8.05-2.04-2.28-1.38-3.99-3.46-5.14-6.25-1.16-2.78-1.74-6.19-1.77-10.21l-.57-90.28,6.47-4.4.58,92.96c.03,4.58.83,8.12,2.39,10.62,1.56,2.5,4.09,3.74,7.6,3.72,1.24,0,2.63-.15,4.18-.44,1.54-.29,3.14-.72,4.78-1.29l.04,5.69c-1.85.57-3.6,1.03-5.25,1.37-1.65.35-3.4.52-5.25.54Z"/>
  <path class="cls-1" d="m855.2,120.61c-4.02.03-7.15-1.35-9.38-4.13-2.24-2.78-3.37-7.18-3.4-13.21l-.63-100.33,6.34-.04.62,99.15c.03,4.25.76,7.31,2.22,9.2,1.45,1.89,3.52,2.83,6.2,2.81,1.13,0,2.32-.13,3.55-.36,1.24-.23,2.57-.63,4.01-1.2l.04,6.03c-1.65.68-3.27,1.19-4.86,1.54-1.6.35-3.17.52-4.71.53Z"/>
  <path class="cls-1" d="m911.64,120.26c-5.36.03-10.13-.97-14.32-3.01-4.19-2.04-7.74-4.92-10.65-8.64-2.91-3.72-5.15-8.12-6.73-13.19-1.58-5.07-2.39-10.62-2.42-16.65-.04-6.03.67-11.64,2.14-16.85,1.46-5.2,3.57-9.76,6.33-13.69,2.76-3.92,6.17-6.99,10.23-9.19,4.06-2.2,8.61-3.32,13.66-3.35,5.88-.04,10.85,1.05,14.94,3.26,4.09,2.21,7.4,5.09,9.95,8.65,2.55,3.56,4.4,7.51,5.56,11.86,1.16,4.35,1.76,8.59,1.78,12.72,0,1.23-.01,2.51-.05,3.85-.05,1.34-.12,2.4-.21,3.18l-57.83.36c.17,10.94,2.75,19.41,7.74,25.41,4.99,6,11.65,8.97,20,8.92,5.15-.03,9.53-.9,13.13-2.6,3.6-1.7,7.19-4.62,10.77-8.78l4.66,4.33c-2.87,3.26-5.76,5.87-8.69,7.84-2.93,1.97-5.99,3.39-9.17,4.24-3.19.86-6.8,1.3-10.82,1.32Zm24.15-44.71c.09-1.01.17-1.98.21-2.93.04-.95.07-1.81.06-2.6-.02-3.12-.53-6.36-1.53-9.7-1-3.34-2.51-6.43-4.54-9.27-2.03-2.84-4.67-5.11-7.93-6.82-3.26-1.71-7.26-2.55-12-2.52-5.16.03-9.63,1.46-13.43,4.27-3.8,2.82-6.79,6.66-8.97,11.53-2.19,4.87-3.47,10.44-3.84,16.69l54.12-.34-2.15,1.69Z"/>
  <path class="cls-1" d="m1005.95,118.66l-.73-116.74,6.65-.04.73,116.74-6.65.04Z"/>
  <path class="cls-1" d="m1032.12,49.82l17.94-48.18,7.42-.05-20.73,48.2-4.64.03Z"/>
  <path class="cls-1" d="m1076.62,118.22l-.52-82.57,6.34-.04.13,21.1h-1.08c.8-3.68,1.97-6.93,3.5-9.73,1.53-2.8,3.32-5.13,5.37-6.99,2.05-1.85,4.36-3.24,6.93-4.15,2.57-.91,5.3-1.37,8.19-1.39,4.43-.03,8.3.84,11.61,2.61,3.31,1.77,6.03,4.51,8.17,8.24,2.13,3.73,3.58,8.49,4.34,14.29l-3.24.19c1.2-5.48,2.95-10.12,5.24-13.93,2.3-3.81,5.16-6.7,8.61-8.68,3.44-1.97,7.43-2.98,11.96-3.01,6.08-.04,10.91,1.44,14.48,4.43,3.58,2.99,6.21,7.14,7.89,12.43,1.68,5.29,2.54,11.35,2.59,18.16l.3,48.4-6.5.04-.29-46.9c-.04-6.14-.69-11.49-1.96-16.07-1.26-4.57-3.32-8.13-6.17-10.68-2.85-2.55-6.75-3.81-11.7-3.78-3.92.02-7.47,1.22-10.65,3.58-3.18,2.37-5.71,5.98-7.59,10.85-1.88,4.87-2.79,10.99-2.75,18.36l.28,44.89-6.34.04-.3-48.57c-.06-9.94-1.76-17.24-5.09-21.91-3.33-4.67-8.19-6.98-14.58-6.94-3.92.02-7.47,1.28-10.65,3.75-3.18,2.48-5.71,6.29-7.58,11.44-1.87,5.15-2.79,11.8-2.73,19.95l.27,42.54-6.49.04Z"/>
  <path class="cls-1" d="m1243.62,117.17l-.73-116.74,68.96-.43.04,6.53-62.31.39.3,47.9,54.12-.34.04,6.53-54.12.34.35,55.77-6.65.04Z"/>
  <path class="cls-1" d="m1324.95,116.66l-.52-82.57,6.34-.04.14,21.77-1.54.34c1-5.37,2.93-9.76,5.79-13.18,2.86-3.42,6.12-5.96,9.77-7.6,3.65-1.64,7.12-2.47,10.42-2.49,1.96-.01,3.92.17,5.88.55,1.96.38,3.87,1.06,5.73,2.06l-3.36,6.22c-1.24-.55-2.66-1.02-4.26-1.4-1.6-.38-3.28-.56-5.03-.55-2.78.02-5.67.65-8.65,1.9-2.99,1.25-5.65,3.19-8.01,5.83-2.36,2.64-4.14,6.2-5.34,10.67-.4,1.68-.73,3.72-.97,6.12-.24,2.4-.35,5.89-.32,10.47l.26,41.87-6.34.04Z"/>
  <path class="cls-1" d="m1408.14,117.15c-5.36.03-10.13-.97-14.32-3.01-4.19-2.04-7.74-4.92-10.65-8.64-2.91-3.72-5.15-8.12-6.73-13.19-1.58-5.07-2.39-10.62-2.42-16.65s.67-11.64,2.14-16.85c1.46-5.2,3.57-9.76,6.33-13.69,2.76-3.92,6.17-6.99,10.23-9.19,4.06-2.2,8.61-3.32,13.66-3.35,5.88-.04,10.85,1.05,14.94,3.26,4.09,2.21,7.4,5.09,9.95,8.65,2.55,3.56,4.4,7.51,5.56,11.86,1.16,4.35,1.76,8.59,1.78,12.72,0,1.23-.01,2.51-.05,3.85-.05,1.34-.12,2.4-.21,3.18l-57.83.36c.17,10.94,2.75,19.41,7.74,25.41,4.99,6,11.65,8.97,20,8.92,5.15-.03,9.53-.9,13.13-2.6,3.6-1.7,7.19-4.62,10.77-8.78l4.66,4.33c-2.87,3.26-5.76,5.87-8.69,7.84-2.93,1.97-5.99,3.39-9.17,4.24-3.19.86-6.8,1.3-10.82,1.32Zm24.15-44.71c.09-1.01.17-1.98.21-2.93.04-.95.07-1.81.06-2.6-.02-3.12-.53-6.36-1.53-9.7s-2.51-6.43-4.54-9.27-4.67-5.11-7.93-6.82c-3.26-1.71-7.26-2.55-12-2.52-5.16.03-9.63,1.46-13.43,4.27-3.8,2.82-6.79,6.66-8.97,11.53-2.19,4.87-3.47,10.44-3.84,16.69l54.12-.34-2.15,1.69Z"/>
  <path class="cls-1" d="m1490.56,116.63c-5.36.03-10.13-.97-14.32-3.01-4.19-2.04-7.74-4.92-10.65-8.64-2.91-3.72-5.15-8.12-6.73-13.19-1.58-5.07-2.39-10.62-2.42-16.65-.04-6.03.67-11.64,2.14-16.85,1.46-5.2,3.57-9.76,6.33-13.69,2.76-3.92,6.17-6.99,10.23-9.19,4.06-2.2,8.61-3.32,13.66-3.35,5.88-.04,10.85,1.05,14.94,3.26,4.09,2.21,7.4,5.09,9.95,8.65,2.55,3.56,4.4,7.51,5.56,11.86,1.16,4.35,1.76,8.59,1.78,12.72,0,1.23-.01,2.51-.05,3.85-.05,1.34-.12,2.4-.21,3.18l-57.83.36c.17,10.94,2.75,19.41,7.74,25.41,4.99,6,11.65,8.97,20,8.92,5.15-.03,9.53-.9,13.13-2.6,3.6-1.7,7.19-4.62,10.77-8.78l4.66,4.33c-2.87,3.26-5.76,5.87-8.69,7.84-2.93,1.97-5.99,3.39-9.17,4.24-3.19.86-6.8,1.3-10.82,1.32Zm24.15-44.71c.09-1.01.17-1.98.21-2.93.04-.95.07-1.81.06-2.6-.02-3.12-.53-6.36-1.53-9.7-1-3.34-2.51-6.43-4.54-9.27s-4.67-5.11-7.93-6.82c-3.26-1.71-7.26-2.55-12-2.52-5.16.03-9.63,1.46-13.43,4.27-3.8,2.82-6.79,6.66-8.97,11.53-2.19,4.87-3.47,10.44-3.84,16.69l54.12-.34-2.15,1.69Z"/>
  <path class="cls-1" d="m1535.56,141.98l18.09-49.52,7.11-.04-20.57,49.54-4.64.03Z"/>
  <path class="cls-1" d="m10.3,270.06l-.73-116.74,7.73-.05,61.14,107.32h-1.08s-.67-107.69-.67-107.69l6.65-.04.73,116.74-7.89.05L15.04,162.33h1.24s.67,107.69.67,107.69l-6.65.04Z"/>
  <path class="cls-1" d="m141.27,270.25c-5.36.03-10.13-.97-14.32-3.01-4.19-2.04-7.74-4.92-10.65-8.64-2.91-3.72-5.15-8.12-6.73-13.19-1.58-5.07-2.39-10.62-2.42-16.65-.04-6.03.67-11.64,2.14-16.85,1.46-5.2,3.57-9.76,6.33-13.69,2.76-3.92,6.17-6.99,10.23-9.19,4.06-2.2,8.61-3.32,13.66-3.35,5.88-.04,10.85,1.05,14.94,3.26,4.09,2.21,7.4,5.09,9.95,8.65,2.55,3.56,4.4,7.51,5.56,11.86,1.16,4.35,1.76,8.59,1.78,12.72,0,1.23-.01,2.51-.05,3.85-.05,1.34-.12,2.4-.21,3.18l-57.83.36c.17,10.94,2.75,19.41,7.74,25.41,4.99,6,11.65,8.97,20,8.92,5.15-.03,9.53-.9,13.13-2.6,3.6-1.7,7.19-4.62,10.77-8.78l4.66,4.33c-2.87,3.26-5.76,5.87-8.69,7.84-2.93,1.97-5.99,3.39-9.17,4.24-3.19.86-6.8,1.3-10.82,1.32Zm24.15-44.71c.09-1.01.17-1.98.21-2.93.04-.95.07-1.81.06-2.6-.02-3.12-.53-6.36-1.53-9.7s-2.51-6.43-4.54-9.27-4.67-5.11-7.93-6.82c-3.26-1.71-7.26-2.55-12-2.52-5.16.03-9.63,1.46-13.43,4.27-3.8,2.82-6.79,6.66-8.97,11.53-2.19,4.87-3.47,10.44-3.84,16.69l54.12-.34-2.15,1.69Z"/>
  <path class="cls-1" d="m216.73,268.77l-31.75-82.38,7.26-.05,27.37,73.7,26.44-74.03,7.27-.05-30.72,82.77-5.88.04Z"/>
  <path class="cls-1" d="m300.23,269.25c-5.36.03-10.13-.97-14.32-3.01-4.19-2.04-7.74-4.92-10.65-8.64-2.91-3.72-5.15-8.12-6.73-13.19-1.58-5.07-2.39-10.62-2.42-16.65-.04-6.03.67-11.64,2.14-16.85,1.46-5.2,3.57-9.76,6.33-13.69,2.76-3.92,6.17-6.99,10.23-9.19,4.06-2.2,8.61-3.32,13.66-3.35,5.88-.04,10.85,1.05,14.94,3.26,4.09,2.21,7.4,5.09,9.95,8.65,2.55,3.56,4.4,7.51,5.56,11.86s1.76,8.59,1.78,12.72c0,1.23-.01,2.51-.05,3.85-.05,1.34-.12,2.4-.21,3.18l-57.83.36c.17,10.94,2.75,19.41,7.74,25.41,4.99,6,11.65,8.97,20,8.92,5.15-.03,9.53-.9,13.13-2.6,3.6-1.7,7.19-4.62,10.77-8.78l4.66,4.33c-2.87,3.26-5.76,5.87-8.69,7.84-2.93,1.97-5.99,3.39-9.17,4.24-3.19.86-6.8,1.3-10.82,1.32Zm24.15-44.71c.09-1.01.17-1.98.21-2.93.04-.95.07-1.81.06-2.6-.02-3.12-.53-6.36-1.53-9.7s-2.51-6.43-4.54-9.27c-2.03-2.84-4.67-5.11-7.93-6.82-3.26-1.71-7.26-2.55-12-2.52-5.16.03-9.63,1.46-13.43,4.27-3.8,2.82-6.79,6.66-8.97,11.53-2.19,4.87-3.47,10.44-3.84,16.69l54.12-.34-2.15,1.69Z"/>
  <path class="cls-1" d="m353.11,267.92l-.52-82.57,6.34-.04.14,21.77-1.54.34c1-5.37,2.93-9.76,5.79-13.18,2.86-3.42,6.12-5.96,9.77-7.6,3.65-1.64,7.12-2.47,10.42-2.49,1.96-.01,3.92.17,5.88.55,1.96.38,3.87,1.06,5.73,2.06l-3.36,6.22c-1.24-.55-2.66-1.02-4.26-1.4-1.6-.38-3.28-.56-5.03-.55-2.78.02-5.67.65-8.65,1.9-2.99,1.25-5.65,3.19-8.01,5.83-2.36,2.64-4.14,6.2-5.34,10.67-.4,1.68-.73,3.72-.97,6.12-.24,2.4-.35,5.89-.32,10.47l.26,41.87-6.34.04Z"/>
  <path class="cls-1" d="m454.23,267.28l-.73-116.74,68.96-.43.04,6.53-62.31.39.3,47.9,54.12-.34.04,6.53-54.12.34.35,55.77-6.65.04Z"/>
  <path class="cls-1" d="m535.57,266.77l-.52-82.57,6.34-.04.14,21.77-1.54.34c1-5.37,2.93-9.76,5.79-13.18,2.86-3.42,6.12-5.96,9.77-7.6,3.65-1.64,7.12-2.47,10.42-2.49,1.96-.01,3.92.17,5.88.55,1.96.38,3.87,1.06,5.73,2.06l-3.36,6.22c-1.24-.55-2.66-1.02-4.26-1.4-1.6-.38-3.28-.56-5.03-.55-2.78.02-5.67.65-8.65,1.9-2.99,1.25-5.65,3.19-8.01,5.83-2.36,2.64-4.14,6.2-5.34,10.67-.4,1.68-.73,3.72-.97,6.12-.24,2.4-.35,5.89-.32,10.47l.26,41.87-6.34.04Z"/>
  <path class="cls-1" d="m618.75,267.26c-5.36.03-10.13-.97-14.32-3.01-4.19-2.04-7.74-4.92-10.65-8.64-2.91-3.72-5.15-8.12-6.73-13.19-1.58-5.07-2.39-10.62-2.42-16.65s.67-11.64,2.14-16.85c1.46-5.2,3.57-9.76,6.33-13.69,2.76-3.92,6.17-6.99,10.23-9.19,4.06-2.2,8.61-3.32,13.66-3.35,5.88-.04,10.85,1.05,14.94,3.26,4.09,2.21,7.4,5.09,9.95,8.65,2.55,3.56,4.4,7.51,5.56,11.86s1.76,8.59,1.78,12.72c0,1.23-.01,2.51-.05,3.85-.05,1.34-.12,2.4-.21,3.18l-57.83.36c.17,10.94,2.75,19.41,7.74,25.41,4.99,6,11.65,8.97,20,8.92,5.15-.03,9.53-.9,13.13-2.6,3.6-1.7,7.19-4.62,10.77-8.78l4.66,4.33c-2.87,3.26-5.76,5.87-8.69,7.84-2.93,1.97-5.99,3.39-9.17,4.24-3.19.86-6.8,1.3-10.82,1.32Zm24.15-44.71c.09-1.01.17-1.98.21-2.93.04-.95.07-1.81.06-2.6-.02-3.12-.53-6.36-1.53-9.7-1-3.34-2.51-6.43-4.54-9.27s-4.67-5.11-7.93-6.82c-3.26-1.71-7.26-2.55-12-2.52-5.16.03-9.63,1.46-13.43,4.27-3.8,2.82-6.79,6.66-8.97,11.53-2.19,4.87-3.47,10.44-3.84,16.69l54.12-.34-2.15,1.69Z"/>
  <path class="cls-1" d="m701.17,266.74c-5.36.03-10.13-.97-14.32-3.01-4.19-2.04-7.74-4.92-10.65-8.64-2.91-3.72-5.15-8.12-6.73-13.19-1.58-5.07-2.39-10.62-2.42-16.65-.04-6.03.67-11.64,2.14-16.85,1.46-5.2,3.57-9.76,6.33-13.69,2.76-3.92,6.17-6.99,10.23-9.19,4.06-2.2,8.61-3.32,13.66-3.35,5.88-.04,10.85,1.05,14.94,3.26,4.09,2.21,7.4,5.09,9.95,8.65,2.55,3.56,4.4,7.51,5.56,11.86,1.16,4.35,1.76,8.59,1.78,12.72,0,1.23-.01,2.51-.05,3.85-.05,1.34-.12,2.4-.21,3.18l-57.83.36c.17,10.94,2.75,19.41,7.74,25.41,4.99,6,11.65,8.97,20,8.92,5.15-.03,9.53-.9,13.13-2.6,3.6-1.7,7.19-4.62,10.77-8.78l4.66,4.33c-2.87,3.26-5.76,5.87-8.69,7.84-2.93,1.97-5.99,3.39-9.17,4.24-3.19.86-6.8,1.3-10.82,1.32Zm24.15-44.71c.09-1.01.17-1.98.21-2.93.04-.95.07-1.81.06-2.6-.02-3.12-.53-6.36-1.53-9.7s-2.51-6.43-4.54-9.27c-2.03-2.84-4.67-5.11-7.93-6.82-3.26-1.71-7.26-2.55-12-2.52-5.16.03-9.63,1.46-13.43,4.27-3.8,2.82-6.79,6.66-8.97,11.53-2.19,4.87-3.47,10.44-3.84,16.69l54.12-.34-2.15,1.69Z"/>
  <path class="cls-1" d="m782.49,188.18l-.03-5.53,43.14-.27.03,5.53-43.14.27Zm33.12,77.85c-3.09.02-5.78-.66-8.05-2.04-2.28-1.38-3.99-3.46-5.14-6.25-1.16-2.78-1.74-6.19-1.77-10.21l-.57-90.28,6.47-4.4.58,92.96c.03,4.58.83,8.12,2.39,10.62,1.56,2.5,4.09,3.74,7.6,3.72,1.24,0,2.63-.15,4.18-.44,1.54-.29,3.14-.72,4.78-1.29l.04,5.69c-1.85.57-3.6,1.03-5.25,1.37-1.65.35-3.4.52-5.25.54Z"/>
  <path class="cls-1" d="m873.74,265.66c-6.91.04-13.05-1.7-18.43-5.24-5.38-3.54-9.64-8.51-12.77-14.91-3.13-6.4-4.72-13.73-4.78-22-.05-8.26,1.42-15.58,4.42-21.97,3-6.39,7.17-11.38,12.51-14.99,5.34-3.6,11.51-5.43,18.52-5.48s13.21,1.71,18.59,5.24c5.38,3.54,9.59,8.48,12.62,14.83,3.03,6.35,4.57,13.65,4.62,21.91.05,8.27-1.43,15.59-4.43,21.97-3,6.39-7.14,11.41-12.43,15.07-5.29,3.66-11.44,5.51-18.45,5.56Zm-.04-6.2c5.88-.04,10.97-1.6,15.28-4.7,4.31-3.1,7.69-7.36,10.12-12.79,2.44-5.43,3.64-11.72,3.59-18.87-.04-7.14-1.32-13.42-3.83-18.82-2.51-5.4-5.96-9.59-10.36-12.58-4.4-2.99-9.49-4.46-15.26-4.43-5.88.04-10.99,1.58-15.36,4.62-4.36,3.04-7.74,7.28-10.13,12.71-2.39,5.43-3.56,11.72-3.52,18.87.04,7.15,1.3,13.42,3.75,18.82,2.45,5.4,5.88,9.62,10.28,12.67,4.4,3.04,9.54,4.55,15.41,4.51Z"/>
  <path class="cls-1" d="m973,264.03l-.73-116.74,28.3-.18c7.73-.05,14.21,1.14,19.43,3.56,5.22,2.42,9.14,6,11.74,10.73,2.61,4.73,3.93,10.44,3.97,17.14.06,8.82-2.22,15.93-6.83,21.31-4.6,5.39-11.44,8.78-20.5,10.18-1.45.12-3.09.22-4.95.28-1.86.07-3.56.11-5.1.12l-19.02.12.33,53.43-6.65.04Zm6.28-60l21.18-.13c6.08-.04,11.26-.99,15.52-2.86,4.26-1.87,7.55-4.68,9.84-8.44,2.3-3.75,3.43-8.37,3.39-13.84-.04-5.8-1.23-10.54-3.57-14.22-2.34-3.67-5.68-6.41-10.02-8.23-4.34-1.81-9.5-2.7-15.48-2.67l-21.18.13.31,50.25Zm55.73,59.61l-29.26-54.59,6.8-.88,30.04,55.42-7.58.05Z"/>
  <path class="cls-1" d="m1088.98,264.31c-5.36.03-10.13-.97-14.32-3.01-4.19-2.04-7.74-4.92-10.65-8.64-2.91-3.72-5.15-8.12-6.73-13.19-1.58-5.07-2.39-10.62-2.42-16.65-.04-6.03.67-11.64,2.14-16.85,1.46-5.2,3.57-9.76,6.33-13.69,2.76-3.92,6.17-6.99,10.23-9.19,4.06-2.2,8.61-3.32,13.66-3.35,5.88-.04,10.85,1.05,14.94,3.26,4.09,2.21,7.4,5.09,9.95,8.65,2.55,3.56,4.4,7.51,5.56,11.86,1.16,4.35,1.76,8.59,1.78,12.72,0,1.23-.01,2.51-.05,3.85-.05,1.34-.12,2.4-.21,3.18l-57.83.36c.17,10.94,2.75,19.41,7.74,25.41,4.99,6,11.65,8.97,20,8.92,5.15-.03,9.53-.9,13.13-2.6,3.6-1.7,7.19-4.62,10.77-8.78l4.66,4.33c-2.87,3.26-5.76,5.87-8.69,7.84-2.93,1.97-5.99,3.39-9.17,4.24-3.19.86-6.8,1.3-10.82,1.32Zm24.15-44.71c.09-1.01.17-1.98.21-2.93.04-.95.07-1.81.06-2.6-.02-3.12-.53-6.36-1.53-9.7s-2.51-6.43-4.54-9.27c-2.03-2.84-4.67-5.11-7.93-6.82-3.26-1.71-7.26-2.55-12-2.52-5.16.03-9.63,1.46-13.43,4.27-3.8,2.82-6.79,6.66-8.97,11.53-2.19,4.87-3.47,10.44-3.84,16.69l54.12-.34-2.15,1.69Z"/>
  <path class="cls-1" d="m1163.2,263.85c-4.95.03-9.44-.78-13.47-2.43-4.03-1.65-7.47-3.92-10.33-6.8-2.85-2.88-5.06-6.17-6.63-9.84l4.61-4.05c1.89,5.12,5.11,9.26,9.67,12.42,4.56,3.15,9.98,4.71,16.27,4.67,5.88-.04,10.66-1.54,14.35-4.53,3.69-2.98,5.52-7.15,5.49-12.51-.03-4.35-1.13-7.72-3.31-10.11-2.18-2.39-5.03-4.21-8.54-5.47-3.51-1.26-7.18-2.38-11-3.36-3.1-.76-6.07-1.66-8.91-2.71-2.85-1.04-5.35-2.34-7.52-3.89-2.17-1.55-3.91-3.52-5.22-5.91-1.3-2.39-1.97-5.37-1.99-8.95-.04-6.14,2.17-11.18,6.63-15.12,4.46-3.94,10.3-5.93,17.51-5.97,5.46-.03,10.47,1.27,15.02,3.93,4.55,2.65,8.08,6.71,10.59,12.16l-4.31,3.21c-2.3-4.79-5.29-8.26-8.96-10.41-3.67-2.15-7.83-3.22-12.47-3.19-5.26.03-9.58,1.43-12.96,4.19-3.39,2.76-5.06,6.26-5.04,10.5.02,3.35.84,6.02,2.45,8.02,1.61,2,3.86,3.58,6.75,4.73,2.89,1.15,6.25,2.22,10.07,3.2,3.41.87,6.74,1.83,9.99,2.87,3.25,1.04,6.18,2.42,8.76,4.13,2.58,1.72,4.69,3.93,6.3,6.66,1.61,2.73,2.44,6.32,2.46,10.79.03,4.69-1.03,8.83-3.17,12.41-2.14,3.59-5.17,6.37-9.07,8.35-3.91,1.98-8.59,2.99-14.05,3.02Z"/>
  <path class="cls-1" d="m1197.51,185.58l-.03-5.53,43.14-.27.03,5.53-43.14.27Zm33.12,77.85c-3.09.02-5.78-.66-8.05-2.04-2.28-1.38-3.99-3.46-5.14-6.25-1.16-2.78-1.74-6.19-1.77-10.21l-.57-90.28,6.47-4.4.58,92.96c.03,4.58.83,8.12,2.39,10.62,1.56,2.5,4.09,3.74,7.6,3.72,1.24,0,2.63-.15,4.18-.44,1.54-.29,3.14-.72,4.78-1.29l.04,5.69c-1.85.57-3.6,1.03-5.25,1.37-1.65.35-3.4.52-5.25.54Z"/>
  <path class="cls-1" d="m1260.92,262.23l-.1-16.58,7.89-.05.1,16.58-7.89.05Z"/>
</svg>