<?xml version="1.0" encoding="UTF-8"?>
<svg id="Layer_1" data-name="Layer 1" xmlns="http://www.w3.org/2000/svg" viewBox="0 0 112.62 19.44">
  <defs>
    <style>
      .cls-1 {
        stroke-width: 0px;
      }

      .cls-2 {
        fill: none;
        stroke: #000;
        stroke-miterlimit: 10;
        stroke-width: .25px;
      }
    </style>
  </defs>
  <path class="cls-1" d="m51.79,1.97c-2.38,0-4.31,1.93-4.31,4.31v6.89c0,2.38,1.93,4.31,4.31,4.31h6.89c2.38,0,4.31-1.93,4.31-4.31v-6.89c0-2.38-1.93-4.31-4.31-4.31h-6.89Zm8.61,1.72c.48,0,.86.39.86.86s-.39.86-.86.86-.86-.39-.86-.86.39-.86.86-.86Zm-5.17,1.72c2.38,0,4.31,1.93,4.31,4.31s-1.93,4.31-4.31,4.31-4.31-1.93-4.31-4.31,1.93-4.31,4.31-4.31Zm0,1.72c-1.43,0-2.58,1.16-2.58,2.58s1.16,2.58,2.58,2.58,2.58-1.16,2.58-2.58-1.16-2.58-2.58-2.58Z"/>
  <path class="cls-1" d="m4.32,3.25l1.01,3.69v1.77h.88v-1.77l1.03-3.69h-.88l-.37,1.68c-.1.49-.17.84-.2,1.05h-.03c-.04-.29-.11-.64-.2-1.05l-.35-1.67h-.88Zm3.94,1.39c-.3,0-.54.06-.72.18-.18.12-.32.31-.4.57-.09.26-.13.61-.13,1.04v.58c0,.43.04.77.11,1.02s.2.45.38.57c.18.12.42.18.74.18s.55-.06.73-.18c.18-.12.31-.31.39-.57s.12-.6.12-1.03v-.58c0-.43-.04-.77-.12-1.03-.08-.26-.21-.45-.39-.57-.18-.12-.41-.18-.7-.18Zm1.68.08v2.98c0,.37.06.64.19.81.12.17.32.26.58.26.38,0,.66-.18.85-.55h.02l.08.49h.7v-3.99h-.89v3.17c-.03.07-.09.13-.16.18-.07.05-.14.07-.22.07-.09,0-.15-.04-.19-.11s-.06-.2-.06-.38v-2.93h-.89Zm-1.7.54c.12,0,.21.07.26.2.05.13.07.34.07.63v1.24c0,.3-.02.51-.07.64-.05.13-.14.2-.26.2-.12,0-.21-.07-.26-.2-.05-.13-.07-.34-.07-.64v-1.24c0-.29.02-.5.07-.63.05-.13.13-.2.25-.2Zm-4.39,4.21c-.75,0-1.37.62-1.37,1.38v4.84c0,.76.62,1.38,1.37,1.38h9.59c.75,0,1.37-.62,1.37-1.38v-4.84c0-.76-.62-1.38-1.37-1.38H3.85Zm4.83,1.38h.72v1.78h0c.07-.13.16-.23.28-.31.12-.08.25-.12.39-.12.18,0,.32.05.42.14.1.1.18.25.22.46.05.21.07.51.07.89v.53h0c0,.5-.06.87-.18,1.11-.12.24-.31.36-.56.36-.14,0-.27-.03-.39-.1-.12-.07-.2-.16-.26-.27h-.02l-.08.32h-.62v-4.78Zm-4.49.17h2.23v.61h-.75v4h-.73v-4h-.75v-.61Zm7.95,1.18c.26,0,.46.05.59.14.14.1.23.24.29.45.06.2.08.48.08.84v.58h-1.26v.17c0,.22,0,.38.02.49.01.11.04.19.08.24.04.05.1.07.18.07.11,0,.19-.04.23-.13.04-.09.06-.23.07-.44l.65.04s0,.07,0,.12c0,.31-.08.54-.25.7-.17.15-.41.23-.72.23-.37,0-.63-.12-.78-.35s-.22-.6-.22-1.09v-.59c0-.51.08-.88.23-1.11s.42-.35.79-.35Zm-5.95.06h.75v2.47c0,.15.02.26.05.32.03.06.09.1.16.1.07,0,.13-.02.19-.06.06-.04.1-.09.13-.15v-2.68h.75v3.37h-.59l-.06-.41h-.02c-.16.31-.4.47-.72.47-.22,0-.38-.07-.49-.22s-.16-.38-.16-.69v-2.52Zm5.93.45c-.08,0-.14.02-.18.07-.04.05-.06.13-.08.23-.01.11-.02.27-.02.49v.24h.55v-.24c0-.22,0-.38-.02-.49-.01-.11-.04-.19-.08-.24s-.1-.07-.18-.07Zm-2.39.02c-.07,0-.14.03-.2.09s-.11.13-.13.23v1.91c.03.06.08.1.13.13.05.03.11.04.17.04.08,0,.14-.03.19-.09.05-.06.08-.16.1-.3.02-.14.03-.33.03-.58v-.43c0-.26,0-.47-.02-.61-.02-.14-.05-.25-.09-.31-.04-.06-.1-.09-.18-.09Z"/>
  <rect class="cls-2" x="1.29" y="1.58" width="14.57" height="16.28" rx="2.72" ry="2.72"/>
  <path class="cls-1" d="m109.5,3.15h-12.81c-1.14,0-2.07,1.14-2.07,2.53v9c0,1.4.93,2.53,2.07,2.53h12.81c1.14,0,2.07-1.14,2.07-2.53V5.68c0-1.4-.93-2.53-2.07-2.53Zm-1.01,1.65l-5.39,4.25-5.39-4.25h10.79Zm1.01,10.76h-12.81c-.4,0-.72-.39-.72-.88V5.73l6.71,5.27s.02.01.03.02c0,0,.02.01.03.02.05.03.11.06.16.08,0,0,.01,0,.02,0,.06.02.12.03.18.03h0c.06,0,.12-.01.18-.03,0,0,.01,0,.02,0,.05-.02.11-.04.16-.08,0,0,.02-.01.03-.02,0,0,.02-.01.03-.02l6.71-5.27v8.96c0,.49-.32.88-.72.88Z"/>
</svg>