<?xml version="1.0" encoding="UTF-8"?>
<svg id="Layer_1" data-name="Layer 1" xmlns="http://www.w3.org/2000/svg" viewBox="0 0 6057.34 2747.49">
  <defs>
    <style>
      .cls-1 {
        stroke-width: 12px;
      }

      .cls-1, .cls-2, .cls-3 {
        fill: none;
        stroke: #eeb249;
        stroke-miterlimit: 10;
      }

      .cls-2 {
        stroke-width: 5px;
      }

      .cls-3 {
        stroke-width: 19px;
      }
    </style>
  </defs>
  <path class="cls-3" d="m-37.5,261c215.84-73.13,567.46,129.92,1131.23,406.92,881.35,433.05,1039.92,330.48,1176.63,93.21,717.97-1246.09,1515.41,851.11,1773.19-402.94,193.36-940.66,591.89,892.12,2013.95,1901.81"/>
  <path class="cls-1" d="m-18.5,531c215.84-73.13,583.69,125.32,1147.46,402.33,881.35,433.05,1039.92,330.48,1176.63,93.21,717.97-1246.09,1515.41,851.11,1773.19-402.94,193.36-940.66,776.45,1010.81,1975.73,1847.4"/>
  <path class="cls-2" d="m.5,801c215.84-73.13,599.91,120.73,1163.68,397.73,881.35,433.05,1039.92,330.48,1176.63,93.21,717.97-1246.09,1515.41,851.11,1773.19-402.94,193.36-940.66,961.01,1129.5,1937.51,1793"/>
</svg>